<?xml version="1.0" standalone="no"?>
<!DOCTYPE svg PUBLIC "-//W3C//DTD SVG 1.1//EN" "http://www.w3.org/Graphics/SVG/1.1/DTD/svg11.dtd" >
<svg>
<metadata>
Created by FontForge 20090914 at Wed Jan  6 20:18:46 2016
 By www-data
2009 Albert-Jan Pool published by FSI FontShop International GmbH
</metadata>
<defs>
<font id="DINOffcPro-Light" horiz-adv-x="559" >
  <font-face 
    font-family="DIN Offc Pro Light"
    font-weight="350"
    font-stretch="normal"
    units-per-em="1000"
    panose-1="2 11 5 4 2 1 1 1 1 2"
    ascent="764"
    descent="-236"
    x-height="482"
    cap-height="712"
    bbox="-100 -236.001 1174 1132"
    underline-thickness="38"
    underline-position="-103"
    unicode-range="U+0020-U+FEFF"
  />
<missing-glyph 
d="M97 0v712h365v-712h-365zM424 674h-289v-636h289v636z" />
    <glyph glyph-name=".notdef" 
d="M97 0v712h365v-712h-365zM424 674h-289v-636h289v636z" />
    <glyph glyph-name="space" unicode=" " horiz-adv-x="255" 
 />
    <glyph glyph-name="exclam" unicode="!" horiz-adv-x="304" 
d="M191 192h-49l-3 520h55zM133 0v67h67v-67h-67z" />
    <glyph glyph-name="quotedbl" unicode="&#x22;" horiz-adv-x="408" 
d="M95 556v156h63v-156h-63zM250 556v156h63v-156h-63z" />
    <glyph glyph-name="numbersign" unicode="#" horiz-adv-x="639" 
d="M488 437l-25 -153h96v-44h-103l-38 -240h-51l39 240h-176l-37 -240h-51l38 240h-96v44h103l25 153h-99v45h105l36 230h52l-37 -230h175l36 230h50l-36 -230h94v-45h-100zM437 437h-175l-25 -153h175z" />
    <glyph glyph-name="dollar" unicode="$" horiz-adv-x="587" 
d="M528 191c0 -58 -19.168 -104.332 -57.501 -138.999s-91.833 -53.667 -160.5 -57v-109h-45v108c-46.667 2 -86.334 10.5 -119.001 25.5s-64.334 37.833 -95.001 68.5l38 38c28.667 -29.333 56.334 -49.833 83.001 -61.5s57.667 -18.834 93 -21.501v295
c-34 3.33301 -63 10.333 -87 21s-42.667 21.667 -56 33c-37.333 32 -56 75.667 -56 131c0 56.667 17.5 102.167 52.5 136.5s83.833 53.5 146.5 57.5v89h45v-89c38 -2 70.833 -9.16699 98.5 -21.5s55.5 -30.5 83.5 -54.5l-35 -35c-19.333 17.333 -40.166 31.833 -62.499 43.5
s-50.5 18.834 -84.5 21.501v-290c24.667 -4 45.334 -7.83301 62.001 -11.5s30.667 -7.5 42 -11.5s21 -8.33301 29 -13s15.667 -10 23 -16c19.333 -16 34.5 -35.833 45.5 -59.5s16.5 -49.834 16.5 -78.501zM264.999 671.001c-46 -3.33301 -81.833 -17.999 -107.5 -43.999
s-38.5 -60 -38.5 -102c0 -41.333 12.333 -72.333 37 -93c16 -13.333 33.333 -23.333 52 -30s37.667 -11.334 57 -14.001v283zM473.999 189.002c0 44.667 -13.001 77.999 -39.001 99.999c-8.66699 7.33301 -17.167 13.166 -25.5 17.499s-17.166 7.83301 -26.499 10.5
s-19.833 4.83398 -31.5 6.50098s-25.5 3.83398 -41.5 6.50098v-287c50.667 3.33301 90.667 17.5 120 42.5s44 59.5 44 103.5z" />
    <glyph glyph-name="percent" unicode="%" horiz-adv-x="828" 
d="M288 583c0 30 -6.5 53.833 -19.5 71.5s-35.5 26.5 -67.5 26.5s-54.667 -8.83301 -68 -26.5s-20 -41.5 -20 -71.5v-103c0 -30 6.66699 -53.667 20 -71s36 -26 68 -26s54.5 8.66699 67.5 26s19.5 41 19.5 71v103zM332 478c0 -40 -12 -72.167 -36 -96.5
s-55.667 -36.5 -95 -36.5s-71.166 12.167 -95.499 36.5s-36.5 56.5 -36.5 96.5v107c0 40 12.167 72.333 36.5 97s56.166 37 95.499 37s71 -12.333 95 -37s36 -57 36 -97v-107zM226 0l332 712h45l-332 -712h-45zM715 231c0 30 -6.5 53.833 -19.5 71.5s-35.5 26.5 -67.5 26.5
s-54.667 -8.83301 -68 -26.5s-20 -41.5 -20 -71.5v-103c0 -30 6.66699 -53.667 20 -71s36 -26 68 -26s54.5 8.66699 67.5 26s19.5 41 19.5 71v103zM759 126c0 -40 -12 -72.167 -36 -96.5s-55.667 -36.5 -95 -36.5s-71.166 12.167 -95.499 36.5s-36.5 56.5 -36.5 96.5v107
c0 40 12.167 72.333 36.5 97s56.166 37 95.499 37s71 -12.333 95 -37s36 -57 36 -97v-107z" />
    <glyph glyph-name="ampersand" unicode="&#x26;" horiz-adv-x="746" 
d="M593 0l-68.9961 83.9961c-6.66699 -6.66699 -16.334 -15.167 -29.001 -25.5s-28.167 -20.166 -46.5 -29.499s-39.5 -17.5 -63.5 -24.5s-50.667 -10.5 -80 -10.5c-32.667 0 -62.5 4.83301 -89.5 14.5s-50.333 23.5 -70 41.5s-34.834 39.5 -45.501 64.5s-16 52.5 -16 82.5
c0 27.333 4.33301 51.333 13 72s20.334 39.5 35.001 56.5s32 32.833 52 47.5l63 45l-28 35c-9.33301 12 -17.833 24.5 -25.5 37.5s-13.834 26.667 -18.501 41s-7 29.166 -7 44.499c0 20 3.83301 38.667 11.5 56s18 32.333 31 45s28.333 22.667 46 30s36.5 11 56.5 11
s38.833 -3.66699 56.5 -11s33 -17.5 46 -30.5s23.333 -28.167 31 -45.5s11.5 -36 11.5 -56c0 -29.333 -8 -54.166 -24 -74.499s-35.333 -38.166 -58 -53.499l-53 -36l204 -247c8 12 14.667 23.667 20 35s9.66602 23.833 12.999 37.5s5.66602 28.834 6.99902 45.501
s2 36.334 2 59.001h53c0 -44.667 -4.66699 -85 -14 -121s-25.333 -68 -48 -96l102 -124h-69zM278.004 381.996l-53.499 -37.501c-17 -12.333 -31.833 -25.5 -44.5 -39.5s-22.834 -29.5 -30.501 -46.5s-11.5 -36.5 -11.5 -58.5c0 -23.333 4 -44.666 12 -63.999
s19.333 -36 34 -50s32.167 -24.833 52.5 -32.5s42.833 -11.5 67.5 -11.5c28.667 0 58.5 5.16699 89.5 15.5s64.5 31.5 100.5 63.5zM405.005 574.995c0 28 -8.83301 50.832 -26.5 68.499s-39.5 26.5 -65.5 26.5s-47.667 -8.66699 -65 -26s-26 -39.333 -26 -66
c0 -9.33301 1 -18.166 3 -26.499s5.66699 -17.5 11 -27.5s12.5 -21.167 21.5 -33.5s20.5 -26.833 34.5 -43.5l45.5 30c13.667 9.33301 25.5 19 35.5 29s17.833 20.5 23.5 31.5s8.5 23.5 8.5 37.5z" />
    <glyph glyph-name="quotesingle" unicode="'" horiz-adv-x="253" 
d="M95 556v156h63v-156h-63z" />
    <glyph glyph-name="parenleft" unicode="(" horiz-adv-x="284" 
d="M97 633c0 16 1.16699 31.6709 3.5 47.0039s7.5 30.666 15.5 45.999c4 7.33301 8 14 12 20s8.66699 12 14 18l17.5 19l22.5 23l37 -37l-31 -31.5c-9.33301 -9.66699 -17 -20.834 -23 -33.501c-5.33301 -10.667 -9 -22.334 -11 -35.001s-3 -26.667 -3 -42v-542
c0 -15.333 1 -29.333 3 -42s5.66699 -24.334 11 -35.001c6 -12.667 13.667 -23.834 23 -33.501l31 -31.5l-37 -37c-17.333 17.333 -30.833 31.333 -40.5 42s-18.167 23.334 -25.5 38.001c-8.66699 16.667 -14 32 -16 46s-3 29.667 -3 47v554z" />
    <glyph glyph-name="parenright" unicode=")" horiz-adv-x="284" 
d="M187 79c0 -17.333 -1 -33.0029 -3 -47.0029s-7.33301 -29.333 -16 -46c-7.33301 -14.667 -15.833 -27.334 -25.5 -38.001s-23.167 -24.667 -40.5 -42l-37 37l31 31.5c9.33301 9.66699 17 20.834 23 33.501c5.33301 10.667 9 22.334 11 35.001s3 26.667 3 42v542
c0 15.333 -1 29.333 -3 42s-5.66699 24.334 -11 35.001c-6 12.667 -13.667 23.834 -23 33.501l-31 31.5l37 37l40 -42c10 -10.667 18.667 -23.334 26 -38.001c8 -15.333 13.167 -30.666 15.5 -45.999s3.5 -31 3.5 -47v-554z" />
    <glyph glyph-name="asterisk" unicode="*" horiz-adv-x="467" 
d="M373 438l-120 73l3 -141h-45l3 141l-120 -73l-22 38l123 68l-123 68l22 38l120 -73l-3 141h45l-3 -141l120 73l22 -38l-123 -68l123 -68z" />
    <glyph glyph-name="plus" unicode="+" horiz-adv-x="514" 
d="M281 240v-181h-47v181h-181v47h181v180h47v-180h180v-47h-180z" />
    <glyph glyph-name="comma" unicode="," horiz-adv-x="258" 
d="M95 -136v204h68v-136z" />
    <glyph glyph-name="hyphen" unicode="-" horiz-adv-x="426" 
d="M82 240v47h262v-47h-262z" />
    <glyph glyph-name="period" unicode="." horiz-adv-x="264" 
d="M95 0v74h74v-74h-74z" />
    <glyph glyph-name="slash" unicode="/" horiz-adv-x="338" 
d="M53 -74h-53l285 860h53z" />
    <glyph glyph-name="zero" unicode="0" horiz-adv-x="514" 
d="M444 184c0 -28 -4.66699 -53.5 -14 -76.5s-22.166 -43 -38.499 -60s-36 -30.167 -59 -39.5s-48.167 -14 -75.5 -14s-52.5 4.66699 -75.5 14s-42.833 22.5 -59.5 39.5s-29.5 37 -38.5 60s-13.5 48.5 -13.5 76.5v344c0 28 4.5 53.5 13.5 76.5s21.833 43 38.5 60
s36.5 30.167 59.5 39.5s48.167 14 75.5 14s52.5 -4.66699 75.5 -14s42.667 -22.5 59 -39.5s29.166 -37 38.499 -60s14 -48.5 14 -76.5v-344zM393 523c0 20.667 -2.83301 40.167 -8.5 58.5s-14.334 34.333 -26.001 48s-26 24.334 -43 32.001s-36.5 11.5 -58.5 11.5
s-41.5 -3.83301 -58.5 -11.5s-31.333 -18.334 -43 -32.001s-20.334 -29.667 -26.001 -48s-8.5 -37.833 -8.5 -58.5v-334c0 -21.333 2.83301 -41 8.5 -59s14.334 -33.833 26.001 -47.5s26 -24.334 43 -32.001s36.5 -11.5 58.5 -11.5s41.5 3.83301 58.5 11.5
s31.333 18.334 43 32.001s20.334 29.5 26.001 47.5s8.5 37.667 8.5 59v334z" />
    <glyph glyph-name="one" unicode="1" horiz-adv-x="514" 
d="M262 0v654l-129 -114v61l129 111h51v-712h-51z" />
    <glyph glyph-name="two" unicode="2" horiz-adv-x="514" 
d="M72 0l0.000976562 44.9971l286 375c14 18 24.167 35.833 30.5 53.5s9.5 36.834 9.5 57.501c0 42.667 -11.833 77 -35.5 103s-57.5 39 -101.5 39c-18.667 0 -36.334 -2.66699 -53.001 -8s-31.167 -13.833 -43.5 -25.5s-22.166 -26.5 -29.499 -44.5s-11 -39.333 -11 -64
h-51c0 26.667 4.33301 51.334 13 74.001s21 42.334 37 59.001s35.667 29.834 59 39.501s49.666 14.5 78.999 14.5c28.667 0 54.5 -4.5 77.5 -13.5s42.667 -21.667 59 -38s29 -36 38 -59s13.5 -48.5 13.5 -76.5c0 -26.667 -3.66699 -50.334 -11 -71.001s-20 -42.667 -38 -66
l-267 -349h316v-45h-377z" />
    <glyph glyph-name="three" unicode="3" horiz-adv-x="514" 
d="M447 190c0 -32 -5.16406 -60.1699 -15.4971 -84.5029s-24.5 -44.833 -42.5 -61.5s-39.333 -29.334 -64 -38.001s-51.334 -13 -80.001 -13c-28 0 -53.833 3.66699 -77.5 11s-44.5 18.333 -62.5 33s-32.5 33.334 -43.5 56.001s-17.5 49.334 -19.5 80.001h51
c2 -24 7.5 -44.667 16.5 -62s20.5 -31.333 34.5 -42s29.667 -18.5 47 -23.5s35.333 -7.5 54 -7.5c21.333 0 41.166 3.5 59.499 10.5s34.333 17 48 30s24.334 28.833 32.001 47.5s11.5 40 11.5 64c0 48 -12.167 85.333 -36.5 112s-63.833 40 -118.5 40h-12v45h12
c48 0 83.5 12.333 106.5 37s34.5 60 34.5 106c0 23.333 -3.5 44 -10.5 62s-16.833 33 -29.5 45s-27.334 21.167 -44.001 27.5s-34.667 9.5 -54 9.5c-42 0 -75 -11.667 -99 -35s-38.333 -55 -43 -95h-51c2.66699 28 9.33398 52.833 20.001 74.5s24.5 40 41.5 55
s36.667 26.333 59 34s46.5 11.5 72.5 11.5c28 0 53.667 -4.5 77 -13.5s43.166 -21.667 59.499 -38s29.166 -36.166 38.499 -59.499s14 -49.333 14 -78c0 -38 -7.83301 -70.667 -23.5 -98s-41.5 -48.666 -77.5 -63.999c40 -13.333 69.167 -34.833 87.5 -64.5
s27.5 -67.5 27.5 -113.5z" />
    <glyph glyph-name="four" unicode="4" horiz-adv-x="514" 
d="M376 117v-117h-51v117h-282v45l262 550h54l-262 -550h228v226h51v-226h95v-45h-95z" />
    <glyph glyph-name="five" unicode="5" horiz-adv-x="514" 
d="M451 233c0 -17.333 -0.5 -34.498 -1.5 -51.498s-3.33301 -33.5 -7 -49.5s-9.16699 -31.5 -16.5 -46.5s-17.333 -28.833 -30 -41.5c-34 -34 -79.667 -51 -137 -51c-60.667 0 -106.334 16 -137.001 48c-28 28 -44 66.667 -48 116h51c5.33301 -38 18.5 -67.333 39.5 -88
s52.5 -31 94.5 -31c19.333 0 37.666 3.16699 54.999 9.5s31.666 15.166 42.999 26.499c10.667 10.667 18.834 22.334 24.501 35.001s9.83398 26 12.501 40s4.33398 28.167 5.00098 42.5s1 28.166 1 41.499c0 22 -1.5 44.333 -4.5 67s-9.16699 43.167 -18.5 61.5
s-22.833 33.166 -40.5 44.499s-40.834 17 -69.501 17c-32.667 0 -60.5 -6.5 -83.5 -19.5s-38.167 -31.5 -45.5 -55.5h-45v364h342v-45h-297v-252c31.333 35.333 76.333 53 135 53c51.333 0 91.333 -14.333 120 -43c12.667 -12.667 22.834 -26.667 30.501 -42
s13.5 -31.333 17.5 -48s6.66699 -33.667 8 -51s2 -34.333 2 -51z" />
    <glyph glyph-name="six" unicode="6" horiz-adv-x="514" 
d="M448 201c0 -28.667 -4.16992 -55.499 -12.5029 -80.499s-20.5 -46.833 -36.5 -65.5s-35.667 -33.5 -59 -44.5s-50 -16.5 -80 -16.5s-56.667 5 -80 15s-43.166 23.833 -59.499 41.5s-28.666 38.667 -36.999 63s-12.5 51.166 -12.5 80.499c0 23.333 3 46.5 9 69.5
s16.333 49.5 31 79.5l183 369h51l-164 -329c24.667 11.333 52.334 17 83.001 17c28.667 0 54.5 -5.16699 77.5 -15.5s42.333 -24.5 58 -42.5s27.667 -39 36 -63s12.5 -50 12.5 -78zM396.997 197.001c0 21.333 -3.00098 41.5 -9.00098 60.5s-14.667 35.833 -26 50.5
s-25.666 26.167 -42.999 34.5s-37.333 12.5 -60 12.5c-42 0 -75.333 -14.333 -100 -43s-37 -67 -37 -115s12.333 -86.333 37 -115s58 -43 100 -43s75.5 14.333 100.5 43s37.5 67 37.5 115z" />
    <glyph glyph-name="seven" unicode="7" horiz-adv-x="514" 
d="M207 0h-52l252 667h-270v-112h-51v157h373v-45z" />
    <glyph glyph-name="eight" unicode="8" horiz-adv-x="514" 
d="M460 192c0 -28.667 -5.16504 -55 -15.498 -79s-24.666 -44.833 -42.999 -62.5s-39.833 -31.5 -64.5 -41.5s-51.334 -15 -80.001 -15s-55.334 5 -80.001 15s-46.167 23.833 -64.5 41.5s-32.666 38.5 -42.999 62.5s-15.5 50.333 -15.5 79c0 42 10.333 77.667 31 107
s48 53 82 71c-65.333 36 -98 90 -98 162c0 26 4.66699 50.333 14 73s22.166 42.334 38.499 59.001s36 29.834 59 39.501s48.5 14.5 76.5 14.5s53.5 -4.83301 76.5 -14.5s42.667 -22.834 59 -39.501s29.166 -36.334 38.499 -59.001s14 -47 14 -73
c0 -73.333 -32.333 -127.333 -97 -162c34 -18 61.167 -41.667 81.5 -71s30.5 -65 30.5 -107zM409.002 192c0 22 -3.83301 42.333 -11.5 61s-18.334 34.834 -32.001 48.501s-29.834 24.5 -48.501 32.5s-38.667 12 -60 12s-41.333 -4 -60 -12s-34.834 -18.833 -48.501 -32.5
s-24.334 -29.834 -32.001 -48.501s-11.5 -39 -11.5 -61s3.83301 -42.333 11.5 -61s18.334 -34.834 32.001 -48.501s29.834 -24.334 48.501 -32.001s38.667 -11.5 60 -11.5s41.333 3.83301 60 11.5s34.834 18.334 48.501 32.001s24.334 29.834 32.001 48.501s11.5 39 11.5 61
zM394.002 532c0 20.667 -3.33301 39.667 -10 57s-16 32.166 -28 44.499s-26.5 22 -43.5 29s-35.5 10.5 -55.5 10.5s-38.5 -3.5 -55.5 -10.5s-31.5 -16.667 -43.5 -29s-21.333 -27.166 -28 -44.499s-10 -36.333 -10 -57s3.33301 -39.667 10 -57s16 -32.166 28 -44.499
s26.5 -22 43.5 -29s35.5 -10.5 55.5 -10.5s38.5 3.5 55.5 10.5s31.5 16.667 43.5 29s21.333 27.166 28 44.499s10 36.333 10 57z" />
    <glyph glyph-name="nine" unicode="9" horiz-adv-x="514" 
d="M443 518c0 -23.333 -2.99707 -46.498 -8.99707 -69.498s-16.333 -49.5 -31 -79.5l-183 -369h-51l164 329c-24.667 -11.333 -52.667 -17 -84 -17c-29.333 0 -55.333 5.16699 -78 15.5s-41.834 24.5 -57.501 42.5s-27.5 39 -35.5 63s-12 50 -12 78
c0 28.667 4.16699 55.5 12.5 80.5s20.5 46.833 36.5 65.5s35.667 33.5 59 44.5s50 16.5 80 16.5s56.667 -5 80 -15s43.166 -23.833 59.499 -41.5s28.666 -38.834 36.999 -63.501s12.5 -51.334 12.5 -80.001zM392.003 515.002c0 48 -12.501 86.333 -37.501 115
s-58.5 43 -100.5 43s-75.333 -14.333 -100 -43s-37 -67 -37 -115c0 -21.333 2.83301 -41.5 8.5 -60.5s14.334 -35.833 26.001 -50.5s26 -26.167 43 -34.5s36.833 -12.5 59.5 -12.5c42 0 75.5 14.333 100.5 43s37.5 67 37.5 115z" />
    <glyph glyph-name="colon" unicode=":" horiz-adv-x="292" 
d="M123 0v74h74v-74h-74zM123 312v74h74v-74h-74z" />
    <glyph glyph-name="semicolon" unicode=";" horiz-adv-x="292" 
d="M125 -136v204h68v-136zM123 312v74h74v-74h-74z" />
    <glyph glyph-name="less" unicode="&#x3c;" horiz-adv-x="514" 
d="M105 239v48l304 161v-55l-254 -130l254 -130v-55z" />
    <glyph glyph-name="equal" unicode="=" horiz-adv-x="514" 
d="M53 163v47h408v-47h-408zM53 316v47h408v-47h-408z" />
    <glyph glyph-name="greater" unicode="&#x3e;" horiz-adv-x="514" 
d="M105 78v55l254 130l-254 130v55l304 -161v-48z" />
    <glyph glyph-name="question" unicode="?" horiz-adv-x="488" 
d="M438 542c0 -23.333 -3.99902 -44.166 -11.999 -62.499s-18.667 -37.166 -32 -56.499l-85 -125c-6.66699 -9.33301 -11.334 -19.666 -14.001 -30.999s-4 -21 -4 -29v-47h-51v45c0 19.333 2.33301 35.5 7 48.5s12 26.833 22 41.5l84 124
c10 15.333 18.167 29.666 24.5 42.999s9.5 29.666 9.5 48.999c0 18.667 -3.16699 36 -9.5 52s-15.333 29.833 -27 41.5s-25.334 20.834 -41.001 27.501s-32.5 10 -50.5 10c-19.333 0 -37 -3.5 -53 -10.5s-29.5 -16.5 -40.5 -28.5s-19.5 -26 -25.5 -42s-9 -32.667 -9 -50h-51
c0 24 4.33301 46.667 13 68s20.834 40 36.501 56s34.5 28.667 56.5 38s46.333 14 73 14c25.333 0 49 -4.5 71 -13.5s41 -21.333 57 -37s28.5 -34.334 37.5 -56.001s13.5 -44.834 13.5 -69.501zM232.001 0v67h67v-67h-67z" />
    <glyph glyph-name="at" unicode="@" horiz-adv-x="697" 
d="M569 0l-0.00195312 58.9961c-16.667 -22.667 -36 -39.334 -58 -50.001s-49 -16 -81 -16c-59.333 0 -105.666 21.667 -138.999 65c-15.333 20.667 -26.333 45 -33 73s-10 64.667 -10 110c0 44 3 80.167 9 108.5s16 52.5 30 72.5c14.667 21.333 34.5 37.833 59.5 49.5
s52.5 17.5 82.5 17.5c30.667 0 57.334 -5.5 80.001 -16.5s42.667 -28.167 60 -51.5v89c0 28.667 -3 51.834 -9 69.501s-16.667 34.167 -32 49.5c-14.667 14.667 -31 25.334 -49 32.001s-39.667 10 -65 10h-132c-25.333 0 -46.833 -3.33301 -64.5 -10
s-33.834 -17.334 -48.501 -32.001c-15.333 -15.333 -26 -31.666 -32 -48.999s-9 -40.666 -9 -69.999v-353c0 -17.333 0.833008 -32 2.5 -44s4.83398 -22.667 9.50098 -32s11 -18.166 19 -26.499s18.333 -17.166 31 -26.499l-35 -35c-15.333 10.667 -28 21.167 -38 31.5
s-18 21.666 -24 33.999s-10.167 26.333 -12.5 42s-3.5 34.5 -3.5 56.5v350c0 32 4.83301 60.667 14.5 86s23.167 47 40.5 65c34.667 36 81.667 54 141 54h150c58 0 105 -18 141 -54c37.333 -37.333 56 -87.666 56 -150.999v-507h-51zM568.998 240.996
c0 24.667 -1.33301 49 -4 73s-8.83398 45.667 -18.501 65s-23.334 35 -41.001 47s-41.5 18 -71.5 18s-53.833 -6 -71.5 -18s-31.334 -27.667 -41.001 -47s-15.834 -41 -18.501 -65s-4 -48.333 -4 -73s1.33301 -49 4 -73s8.83398 -45.667 18.501 -65s23.334 -35 41.001 -47
s41.5 -18 71.5 -18s53.833 6 71.5 18s31.334 27.667 41.001 47s15.834 41 18.501 65s4 48.333 4 73z" />
    <glyph glyph-name="A" unicode="A" horiz-adv-x="602" 
d="M529 0l-62 173h-332l-62 -173h-58l262 712h48l262 -712h-58zM152 221h298l-149 419z" />
    <glyph glyph-name="B" unicode="B" horiz-adv-x="671" 
d="M589 194c0 -32 -4.99609 -60.001 -14.9961 -84.001s-24.167 -44.167 -42.5 -60.5s-40.333 -28.666 -66 -36.999s-54.167 -12.5 -85.5 -12.5h-270v712h262c29.333 0 56.666 -4.16699 81.999 -12.5s47.166 -20.5 65.499 -36.5s32.666 -35.5 42.999 -58.5
s15.5 -49.167 15.5 -78.5c0 -38 -9.83301 -71.333 -29.5 -100s-46.834 -48.667 -81.501 -60c38.667 -13.333 68.667 -34.833 90 -64.5s32 -65.5 32 -107.5zM535.004 193.999c0 46 -14.667 81.833 -44 107.5s-68.333 38.5 -117 38.5h-210v-292h210
c48.667 0 87.667 12.833 117 38.5s44 61.5 44 107.5zM524.004 525.999c0 24.667 -4.16699 45.667 -12.5 63s-19.666 31.5 -33.999 42.5s-31.166 19.167 -50.499 24.5s-39.666 8 -60.999 8h-202v-276h202c21.333 0 41.666 2.66699 60.999 8s36.166 13.5 50.499 24.5
s25.666 25.167 33.999 42.5s12.5 38.333 12.5 63z" />
    <glyph glyph-name="C" unicode="C" horiz-adv-x="644" 
d="M568 202c-6 -32 -16.001 -60.8291 -30.001 -86.4961s-31.5 -47.5 -52.5 -65.5s-45 -31.833 -72 -41.5s-56.167 -14.5 -87.5 -14.5c-36 0 -68.5 6 -97.5 18s-54.167 28.667 -75.5 50c-16.667 16.667 -29.667 33.167 -39 49.5s-16.333 35.5 -21 57.5
s-7.66699 47.833 -9 77.5s-2 66.167 -2 109.5s0.666992 79.833 2 109.5s4.33301 55.5 9 77.5s11.667 41.167 21 57.5s22.333 32.833 39 49.5c21.333 21.333 46.5 38 75.5 50s61.5 18 97.5 18c64.667 0 118.167 -18.5 160.5 -55.5s69.5 -87.833 81.5 -152.5h-55
c-10.667 50 -32.5 89.167 -65.5 117.5s-73.5 42.5 -121.5 42.5c-53.333 0 -98.333 -18.333 -135 -55c-12.667 -12.667 -22.667 -26.334 -30 -41.001s-12.833 -31.834 -16.5 -51.501s-6 -43 -7 -70s-1.5 -59.167 -1.5 -96.5s0.5 -69.5 1.5 -96.5s3.33301 -50.333 7 -70
s9.16699 -36.834 16.5 -51.501s17.333 -28.334 30 -41.001c36.667 -36.667 81.667 -55 135 -55c48 0 88.833 14.167 122.5 42.5s55.834 67.5 66.501 117.5h53z" />
    <glyph glyph-name="D" unicode="D" horiz-adv-x="678" 
d="M596 356c0 -26.667 -0.333008 -53.668 -1 -81.001s-3.33398 -53.666 -8.00098 -78.999s-11.667 -49.333 -21 -72s-22.333 -42.334 -39 -59.001c-43.333 -43.333 -102.666 -65 -177.999 -65h-239v712h239c75.333 0 134.666 -21.667 177.999 -65
c16.667 -17.333 29.667 -37.166 39 -59.499s16.333 -46.333 21 -72s7.33398 -52 8.00098 -79s1 -53.833 1 -80.5zM542 355.999c0 23.333 -0.333008 47.002 -1 71.002s-2.66699 47.167 -6 69.5s-8.5 43.166 -15.5 62.499s-17.167 36 -30.5 50
c-20.667 21.333 -44.167 35.833 -70.5 43.5s-53.833 11.5 -82.5 11.5h-172v-616h172c28.667 0 56.167 3.83301 82.5 11.5s49.833 22.167 70.5 43.5c13.333 14 23.5 30.667 30.5 50s12.167 40.166 15.5 62.499s5.33301 45.5 6 69.5s1 47.667 1 71z" />
    <glyph glyph-name="E" unicode="E" horiz-adv-x="598" 
d="M110 0v712h432v-48h-378v-281h322v-48h-322v-287h378v-48h-432z" />
    <glyph glyph-name="F" unicode="F" horiz-adv-x="576" 
d="M164 664v-293h322v-48h-322v-323h-54v712h432v-48h-378z" />
    <glyph glyph-name="G" unicode="G" horiz-adv-x="651" 
d="M571 248c0 -38 -4.3291 -70.3301 -12.9961 -96.9971s-23.667 -51.667 -45 -75c-23.333 -25.333 -51.333 -45.333 -84 -60s-67 -22 -103 -22s-68.5 6 -97.5 18s-54.167 28.667 -75.5 50c-16.667 16.667 -29.667 33.167 -39 49.5s-16.333 35.5 -21 57.5
s-7.66699 47.833 -9 77.5s-2 66.167 -2 109.5s0.666992 79.833 2 109.5s4.33301 55.5 9 77.5s11.667 41.167 21 57.5s22.333 32.833 39 49.5c21.333 21.333 46.5 38 75.5 50s61.5 18 97.5 18c30.667 0 59.667 -5 87 -15s51.666 -24 72.999 -42s39.166 -39.833 53.499 -65.5
s24.166 -54.167 29.499 -85.5h-54c-10.667 50 -32.834 89.167 -66.501 117.5s-74.5 42.5 -122.5 42.5c-53.333 0 -98.333 -18.333 -135 -55c-12.667 -12.667 -22.667 -26.334 -30 -41.001s-12.833 -31.834 -16.5 -51.501s-6 -43 -7 -70s-1.5 -59.167 -1.5 -96.5
s0.5 -69.5 1.5 -96.5s3.33301 -50.333 7 -70s9.16699 -36.834 16.5 -51.501s17.333 -28.334 30 -41.001c36.667 -36.667 81.667 -55 135 -55c28 0 55 5.83301 81 17.5s48.333 28.834 67 51.501c15.333 19.333 26.333 40 33 62s10 48.333 10 79v64h-191v48h245v-116z" />
    <glyph glyph-name="H" unicode="H" horiz-adv-x="699" 
d="M535 0v335h-371v-335h-54v712h54v-329h371v329h54v-712h-54z" />
    <glyph glyph-name="I" unicode="I" horiz-adv-x="274" 
d="M110 0v712h54v-712h-54z" />
    <glyph glyph-name="J" unicode="J" horiz-adv-x="498" 
d="M398 210c0 -32.667 -4.99902 -62.167 -14.999 -88.5s-24.167 -49 -42.5 -68s-40.666 -33.667 -66.999 -44s-55.5 -15.5 -87.5 -15.5c-63.333 0 -115.333 20.333 -156 61l37 37c13.333 -13.333 28.666 -25 45.999 -35s41.666 -15 72.999 -15c52 0 91.333 15.333 118 46
s40 75 40 133v491h54v-502z" />
    <glyph glyph-name="K" unicode="K" horiz-adv-x="645" 
d="M563 0l-229 399l-170 -206v-193h-54v712h54v-445l361 445h65l-220 -272l257 -440h-64z" />
    <glyph glyph-name="L" unicode="L" horiz-adv-x="572" 
d="M110 0v712h54v-664h378v-48h-432z" />
    <glyph glyph-name="M" unicode="M" horiz-adv-x="818" 
d="M654 0v587l-216 -487h-54l-220 487v-587h-54v712h54l248 -549l242 549h54v-712h-54z" />
    <glyph glyph-name="N" unicode="N" horiz-adv-x="739" 
d="M575 0l-411 619v-619h-54v712h54l411 -617v617h54v-712h-54z" />
    <glyph glyph-name="O" unicode="O" horiz-adv-x="652" 
d="M570 356c0 -43.333 -0.666992 -79.833 -2 -109.5s-4.33301 -55.5 -9 -77.5s-11.667 -41.167 -21 -57.5s-22.333 -32.833 -39 -49.5c-21.333 -21.333 -46.5 -38 -75.5 -50s-61.5 -18 -97.5 -18s-68.5 6 -97.5 18s-54.167 28.667 -75.5 50
c-16.667 16.667 -29.667 33.167 -39 49.5s-16.333 35.5 -21 57.5s-7.66699 47.833 -9 77.5s-2 66.167 -2 109.5s0.666992 79.833 2 109.5s4.33301 55.5 9 77.5s11.667 41.167 21 57.5s22.333 32.833 39 49.5c21.333 21.333 46.5 38 75.5 50s61.5 18 97.5 18
s68.5 -6 97.5 -18s54.167 -28.667 75.5 -50c16.667 -16.667 29.667 -33.167 39 -49.5s16.333 -35.5 21 -57.5s7.66699 -47.833 9 -77.5s2 -66.167 2 -109.5zM516 356c0 37.333 -0.5 69.5 -1.5 96.5s-3.33301 50.333 -7 70s-9.16699 36.834 -16.5 51.501
s-17.333 28.334 -30 41.001c-36.667 36.667 -81.667 55 -135 55s-98.333 -18.333 -135 -55c-12.667 -12.667 -22.667 -26.334 -30 -41.001s-12.833 -31.834 -16.5 -51.501s-6 -43 -7 -70s-1.5 -59.167 -1.5 -96.5s0.5 -69.5 1.5 -96.5s3.33301 -50.333 7 -70
s9.16699 -36.834 16.5 -51.501s17.333 -28.334 30 -41.001c36.667 -36.667 81.667 -55 135 -55s98.333 18.333 135 55c12.667 12.667 22.667 26.334 30 41.001s12.833 31.834 16.5 51.501s6 43 7 70s1.5 59.167 1.5 96.5z" />
    <glyph glyph-name="P" unicode="P" horiz-adv-x="631" 
d="M586 507c0 -32.667 -5.5 -61.6689 -16.5 -87.002s-26 -46.833 -45 -64.5s-41.667 -31 -68 -40s-54.833 -13.5 -85.5 -13.5h-207v-302h-54v712h261c30.667 0 59.167 -4.66699 85.5 -14s49 -22.666 68 -39.999s34 -38.666 45 -63.999s16.5 -54.333 16.5 -87zM532 506.998
c0 53.333 -15.5 92.833 -46.5 118.5s-71.167 38.5 -120.5 38.5h-201v-314h201c49.333 0 89.5 12.833 120.5 38.5s46.5 65.167 46.5 118.5z" />
    <glyph glyph-name="Q" unicode="Q" horiz-adv-x="651" 
d="M570 356c0 -38.667 -0.5 -71.8301 -1.5 -99.4971s-3.16699 -51.834 -6.5 -72.501s-8.33301 -38.834 -15 -54.501s-16 -30.834 -28 -45.501l84 -84l-36 -36l-84 83c-20 -16.667 -43.333 -29.667 -70 -39s-55.667 -14 -87 -14c-36 0 -68.5 6 -97.5 18
s-54.167 28.667 -75.5 50c-16.667 16.667 -29.667 33.167 -39 49.5s-16.333 35.5 -21 57.5s-7.66699 47.833 -9 77.5s-2 66.167 -2 109.5s0.666992 79.833 2 109.5s4.33301 55.5 9 77.5s11.667 41.167 21 57.5s22.333 32.833 39 49.5c21.333 21.333 46.5 38 75.5 50
s61.5 18 97.5 18s68.5 -6 97.5 -18s54.167 -28.667 75.5 -50c16.667 -16.667 29.667 -33.167 39 -49.5s16.333 -35.5 21 -57.5s7.66699 -47.833 9 -77.5s2 -66.167 2 -109.5zM516 356.004c0 37.333 -0.5 69.502 -1.5 96.502s-3.33301 50.333 -7 70
s-9.16699 36.834 -16.5 51.501s-17.333 28.334 -30 41.001c-36.667 36.667 -81.667 55 -135 55s-98.333 -18.333 -135 -55c-12.667 -12.667 -22.667 -26.334 -30 -41.001s-12.833 -31.834 -16.5 -51.501s-6 -43 -7 -70s-1.5 -59.167 -1.5 -96.5s0.5 -69.5 1.5 -96.5
s3.33301 -50.333 7 -70s9.16699 -36.834 16.5 -51.501s17.333 -28.334 30 -41.001c36.667 -36.667 81.667 -55 135 -55c46.667 0 87 14 121 42l-100 100l36 36l98 -99c8 12 14.333 25 19 39s8.16699 30.167 10.5 48.5s3.83301 39.5 4.5 63.5s1 52 1 84z" />
    <glyph glyph-name="R" unicode="R" horiz-adv-x="657" 
d="M530 0l-169.999 328.001h-196v-328h-54v712h271c28.667 0 55.5 -4.16699 80.5 -12.5s46.667 -20.5 65 -36.5s32.666 -36 42.999 -60s15.5 -51.333 15.5 -82c0 -54 -14.833 -97.333 -44.5 -130s-69.5 -53.334 -119.5 -62.001l172 -329h-63zM531.001 520.001
c0 49.333 -14.667 85.668 -44 109.001s-67 35 -113 35h-210v-288h210c46 0 83.667 11.667 113 35s44 59.666 44 108.999z" />
    <glyph glyph-name="S" unicode="S" horiz-adv-x="587" 
d="M528 191c0 -30 -5.50098 -57.1621 -16.501 -81.4951s-26.833 -45 -47.5 -62s-45.834 -30.167 -75.501 -39.5s-63.167 -14 -100.5 -14c-52.667 0 -97.167 7.5 -133.5 22.5s-70.833 38.833 -103.5 71.5l38 38c16 -16 31.5 -29.333 46.5 -40s30.5 -19.334 46.5 -26.001
s32.833 -11.334 50.5 -14.001s37.167 -4 58.5 -4c56.667 0 101.334 12.833 134.001 38.5s49 61.834 49 108.501c0 44.667 -13 78 -39 100c-6 5.33301 -12.167 10 -18.5 14s-13.333 7.33301 -21 10s-16.667 5.16699 -27 7.5s-22.5 4.5 -36.5 6.5l-83 13
c-54.667 8 -97 25 -127 51c-37.333 31.333 -56 75.333 -56 132c0 30 5.16699 57 15.5 81s25 44.5 44 61.5s42.167 30 69.5 39s58 13.5 92 13.5c44 0 81.5 -6.16699 112.5 -18.5s61.833 -31.833 92.5 -58.5l-35 -35c-10.667 10 -21.667 19 -33 27s-23.833 15 -37.5 21
s-29 10.5 -46 13.5s-35.833 4.5 -56.5 4.5c-52 0 -92.5 -13 -121.5 -39s-43.5 -62 -43.5 -108c0 -42.667 12 -74 36 -94c12.667 -10.667 27.834 -19.334 45.501 -26.001s36.5 -11.667 56.5 -15l83 -13c16.667 -2.66699 31 -5.33398 43 -8.00098
s22.833 -5.83398 32.5 -9.50098s18.667 -8.16699 27 -13.5s16.5 -11.333 24.5 -18c19.333 -16.667 34.333 -36.334 45 -59.001s16 -48.667 16 -78z" />
    <glyph glyph-name="T" unicode="T" horiz-adv-x="539" 
d="M296 664v-664h-54v664h-212v48h479v-48h-213z" />
    <glyph glyph-name="U" unicode="U" horiz-adv-x="688" 
d="M588 231c0 -34.667 -5.99805 -66.5 -17.998 -95.5s-28.833 -54 -50.5 -75s-47.334 -37.333 -77.001 -49s-62.5 -17.5 -98.5 -17.5s-68.833 5.83301 -98.5 17.5s-55.334 28 -77.001 49s-38.5 46 -50.5 75s-18 60.833 -18 95.5v481h54v-474
c0 -29.333 4.5 -56.166 13.5 -80.499s21.833 -45 38.5 -62s36.667 -30.167 60 -39.5s49.333 -14 78 -14s54.667 4.66699 78 14s43.333 22.5 60 39.5s29.5 37.667 38.5 62s13.5 51.166 13.5 80.499v474h54v-481z" />
    <glyph glyph-name="V" unicode="V" horiz-adv-x="534" 
d="M290 0h-46l-234 712h57l200 -617l200 617h57z" />
    <glyph glyph-name="W" unicode="W" horiz-adv-x="842" 
d="M644 0h-55l-168 620l-168 -620h-55l-178 712h57l150 -619l166 619h56l166 -619l150 619h57z" />
    <glyph glyph-name="X" unicode="X" horiz-adv-x="532" 
d="M451 0l-186 317l-186 -317h-61l218 365l-204 347h63l170 -299l171 299h62l-204 -347l220 -365h-63z" />
    <glyph glyph-name="Y" unicode="Y" horiz-adv-x="494" 
d="M274 295v-295h-54v295l-210 417h58l181 -360l177 360h58z" />
    <glyph glyph-name="Z" unicode="Z" 
d="M63 0v57l375 607h-360v48h418v-48l-378 -616h378v-48h-433z" />
    <glyph glyph-name="bracketleft" unicode="[" horiz-adv-x="290" 
d="M97 -74v860h148v-45h-97v-770h97v-45h-148z" />
    <glyph glyph-name="backslash" unicode="\" horiz-adv-x="338" 
d="M285 -74l-285 860h53l285 -860h-53z" />
    <glyph glyph-name="bracketright" unicode="]" horiz-adv-x="293" 
d="M45 -74v42h100v776h-100v42h151v-860h-151z" />
    <glyph glyph-name="asciicircum" unicode="^" horiz-adv-x="514" 
d="M387 422l-130 242l-130 -242h-51l158 296h46l158 -296h-51z" />
    <glyph glyph-name="underscore" unicode="_" horiz-adv-x="514" 
d="M0 -160v38h514v-38h-514z" />
    <glyph glyph-name="grave" unicode="`" horiz-adv-x="500" 
d="M239 590l-106 147h67l97 -147h-58z" />
    <glyph glyph-name="a" unicode="a" horiz-adv-x="524" 
d="M380 0v48.001c-20.667 -20.667 -41.834 -34.834 -63.501 -42.501s-49.5 -11.5 -83.5 -11.5c-36 0 -64.833 3.33301 -86.5 10s-40.167 18 -55.5 34c-11.333 11.333 -20 25.333 -26 42s-9 34 -9 52c0 44 14.833 78.167 44.5 102.5s70.834 36.5 123.501 36.5h156v54
c0 38.667 -10.167 68 -30.5 88s-55.5 30 -105.5 30c-34 0 -60.833 -4.66699 -80.5 -14s-37.167 -25 -52.5 -47l-37 32c20.667 28.667 44.167 48.167 70.5 58.5s59.5 15.5 99.5 15.5c64.667 0 112 -13.667 142 -41s45 -66.333 45 -117v-330h-51zM380 230.001
l-149.999 -0.000976562c-82 0 -123 -32.333 -123 -97c0 -32 10 -55.667 30 -71s52 -23 96 -23c22 0 43.167 2 63.5 6s39.166 14.333 56.499 31c18 16.667 27 47.334 27 92.001v62z" />
    <glyph glyph-name="b" unicode="b" horiz-adv-x="540" 
d="M471 241c0 -38 -4.16699 -75.498 -12.5 -112.498s-24.833 -67.833 -49.5 -92.5c-12.667 -12.667 -29.167 -22.834 -49.5 -30.501s-43.166 -11.5 -68.499 -11.5c-28 0 -53.5 4.33301 -76.5 13s-45.167 27 -66.5 55v-62h-51v712h51v-292c21.333 28 43.5 46.333 66.5 55
s48.5 13 76.5 13c25.333 0 48.166 -3.83301 68.499 -11.5s36.833 -17.834 49.5 -30.501c24.667 -24.667 41.167 -55.5 49.5 -92.5s12.5 -74.5 12.5 -112.5zM420 241.002c0 24.667 -1.5 49.167 -4.5 73.5s-9.33301 46 -19 65s-23.5 34.333 -41.5 46s-41.667 17.5 -71 17.5
s-53 -5.83301 -71 -17.5s-31.833 -27 -41.5 -46s-16 -40.667 -19 -65s-4.5 -48.833 -4.5 -73.5c0 -25.333 1.5 -50 4.5 -74s9.33301 -45.5 19 -64.5s23.5 -34.333 41.5 -46s41.667 -17.5 71 -17.5s53 5.83301 71 17.5s31.833 27 41.5 46s16 40.5 19 64.5s4.5 48.667 4.5 74z
" />
    <glyph glyph-name="c" unicode="c" horiz-adv-x="493" 
d="M440 68c-25.333 -28.667 -50 -48.165 -74 -58.498s-52.333 -15.5 -85 -15.5c-33.333 0 -63 5.66699 -89 17s-48.167 27.666 -66.5 48.999s-32.333 47.333 -42 78s-14.5 65 -14.5 103s4.83301 72.333 14.5 103s23.667 56.667 42 78s40.5 37.666 66.5 48.999
s55.667 17 89 17c32.667 0 61 -5.16699 85 -15.5s48.667 -29.833 74 -58.5l-35 -32c-20.667 22.667 -40.167 38.5 -58.5 47.5s-40.166 13.5 -65.499 13.5c-56.667 0 -99.334 -21.333 -128.001 -64c-12 -17.333 -20.5 -36.5 -25.5 -57.5s-7.5 -47.833 -7.5 -80.5
s2.5 -59.5 7.5 -80.5s13.5 -40.167 25.5 -57.5c28.667 -42.667 71.334 -64 128.001 -64c25.333 0 47.166 4.5 65.499 13.5s37.833 24.833 58.5 47.5z" />
    <glyph glyph-name="d" unicode="d" horiz-adv-x="540" 
d="M392 0v61.998c-21.333 -28 -43.5 -46.333 -66.5 -55s-48.5 -13 -76.5 -13c-25.333 0 -48.166 3.83301 -68.499 11.5s-36.833 17.834 -49.5 30.501c-24.667 24.667 -41.167 55.5 -49.5 92.5s-12.5 74.5 -12.5 112.5s4.16699 75.5 12.5 112.5s24.833 67.833 49.5 92.5
c12.667 12.667 29.167 22.834 49.5 30.501s43.166 11.5 68.499 11.5c28 0 53.5 -4.33301 76.5 -13s45.167 -27 66.5 -55v292h51v-712h-51zM392 240.998c0 24.667 -1.5 49.167 -4.5 73.5s-9.33301 46 -19 65s-23.5 34.333 -41.5 46s-41.667 17.5 -71 17.5
s-53 -5.83301 -71 -17.5s-31.833 -27 -41.5 -46s-16 -40.667 -19 -65s-4.5 -48.833 -4.5 -73.5c0 -25.333 1.5 -50 4.5 -74s9.33301 -45.5 19 -64.5s23.5 -34.333 41.5 -46s41.667 -17.5 71 -17.5s53 5.83301 71 17.5s31.833 27 41.5 46s16 40.5 19 64.5s4.5 48.667 4.5 74z
" />
    <glyph glyph-name="e" unicode="e" horiz-adv-x="523" 
d="M120 230c0 -62 13.165 -109.168 39.498 -141.501s65.5 -48.5 117.5 -48.5c28.667 0 52.834 4.5 72.501 13.5s39.834 23.833 60.501 44.5l38 -30c-12 -12 -24.167 -22.667 -36.5 -32s-25.333 -17.166 -39 -23.499s-28.5 -11 -44.5 -14s-34 -4.5 -54 -4.5
c-66.667 0 -117.5 21 -152.5 63s-52.5 103.333 -52.5 184c0 78.667 17 139.5 51 182.5s81.333 64.5 142 64.5s108 -20.5 142 -61.5s51 -98.833 51 -173.5v-23h-335zM403.998 270.999c-0.666992 11.333 -1.33203 21.166 -1.99902 29.499s-1.5 15.833 -2.5 22.5
s-2.5 13 -4.5 19s-4.66699 12.667 -8 20c-10.667 25.333 -27.167 45.166 -49.5 59.499s-47.5 21.5 -75.5 21.5s-53 -7.16699 -75 -21.5s-38.667 -34.166 -50 -59.499c-3.33301 -7.33301 -6 -14 -8 -20s-3.5 -12.333 -4.5 -19s-1.83301 -14.167 -2.5 -22.5
s-1.33398 -18.166 -2.00098 -29.499h284z" />
    <glyph glyph-name="f" unicode="f" horiz-adv-x="304" 
d="M163 444v-444.001h-51v444h-66v38h66v104c0 36.667 9.83301 66.834 29.5 90.501s48.5 35.5 86.5 35.5h44v-45h-35c-25.333 0 -44 -7 -56 -21s-18 -33.667 -18 -59v-105h109v-38h-109z" />
    <glyph glyph-name="g" unicode="g" horiz-adv-x="540" 
d="M443 -27c0 -30 -4.33203 -57.833 -12.999 -83.5s-21.5 -47.834 -38.5 -66.501s-37.667 -33.167 -62 -43.5s-52.166 -15.5 -83.499 -15.5c-18 0 -34 1.16699 -48 3.5s-27.167 6.16602 -39.5 11.499s-24.166 12 -35.499 20s-23.333 17.667 -36 29l34 34
c9.33301 -8.66699 18.333 -16.334 27 -23.001s17.667 -12.167 27 -16.5s19.666 -7.66602 30.999 -9.99902s24.666 -3.5 39.999 -3.5c25.333 0 47.166 4.16699 65.499 12.5s33.5 20 45.5 35s20.833 32.667 26.5 53s8.5 42.5 8.5 66.5v86c-21.333 -28 -43.5 -46.333 -66.5 -55
s-48.5 -13 -76.5 -13c-25.333 0 -48.166 3.83301 -68.499 11.5s-36.833 17.834 -49.5 30.501c-24.667 24.667 -41.167 55.5 -49.5 92.5s-12.5 74.5 -12.5 112.5s4.16699 75.5 12.5 112.5s24.833 67.833 49.5 92.5c12.667 12.667 29.167 22.834 49.5 30.501
s43.166 11.5 68.499 11.5c28 0 53.5 -4.33301 76.5 -13s45.167 -27 66.5 -55v62h51v-509zM392.001 241c0 24.667 -1.5 49.167 -4.5 73.5s-9.33301 46 -19 65s-23.5 34.333 -41.5 46s-41.667 17.5 -71 17.5s-53 -5.83301 -71 -17.5s-31.833 -27 -41.5 -46
s-16 -40.667 -19 -65s-4.5 -48.833 -4.5 -73.5c0 -25.333 1.5 -50 4.5 -74s9.33301 -45.5 19 -64.5s23.5 -34.333 41.5 -46s41.667 -17.5 71 -17.5s53 5.83301 71 17.5s31.833 27 41.5 46s16 40.5 19 64.5s4.5 48.667 4.5 74z" />
    <glyph glyph-name="h" unicode="h" 
d="M417 0v299.001c0 46.667 -11.167 82.334 -33.5 107.001s-55.5 37 -99.5 37s-77.667 -12.333 -101 -37s-35 -60.334 -35 -107.001v-299h-51v712h51v-287c36 42 83.333 63 142 63c56 0 99.667 -15.833 131 -47.5s47 -75.834 47 -132.501v-308h-51z" />
    <glyph glyph-name="i" unicode="i" horiz-adv-x="245" 
d="M97 0v482h51v-482h-51zM91 649v63h63v-63h-63z" />
    <glyph glyph-name="j" unicode="j" horiz-adv-x="245" 
d="M148 -105c0 -38 -9.33301 -68.333 -28 -91s-48 -34 -88 -34h-44v45h35c28.667 0 48.167 6.5 58.5 19.5s15.5 33.5 15.5 61.5v586h51v-587zM91 649v63h63v-63h-63z" />
    <glyph glyph-name="k" unicode="k" horiz-adv-x="527" 
d="M424 0l-166 265l-110 -127v-138h-51v712h51v-502l239 272h65l-159 -180l194 -302h-63z" />
    <glyph glyph-name="l" unicode="l" horiz-adv-x="287" 
d="M211 0c-40 0 -69.333 11.333 -88 34s-28 53 -28 91v587h51v-586c0 -28 5.16699 -48.5 15.5 -61.5s29.833 -19.5 58.5 -19.5h35v-45h-44z" />
    <glyph glyph-name="m" unicode="m" horiz-adv-x="878" 
d="M737 0l0.000976562 298.999c0 46.667 -11.167 82.334 -33.5 107.001s-55.5 37 -99.5 37c-42 0 -75.167 -12 -99.5 -36s-36.5 -57 -36.5 -99v-308h-51v299c0 46.667 -11.167 82.334 -33.5 107.001s-55.5 37 -99.5 37s-77.667 -12.5 -101 -37.5s-35 -60.5 -35 -106.5v-299
h-51v482h51v-57c36 42 83.667 63 143 63c36 0 67.167 -7.5 93.5 -22.5s46.833 -36.833 61.5 -65.5c18 28.667 40.833 50.5 68.5 65.5s59.5 22.5 95.5 22.5c26.667 0 50.667 -4 72 -12s39.666 -19.333 54.999 -34c34 -32.667 51 -77.334 51 -134.001v-308h-51z" />
    <glyph glyph-name="n" unicode="n" 
d="M417 0v298.999c0 46.667 -11.167 82.334 -33.5 107.001s-55.5 37 -99.5 37s-77.667 -12.5 -101 -37.5s-35 -60.5 -35 -106.5v-299h-51v482h51v-57c36 42 83.333 63 142 63c54 0 96.667 -15.333 128 -46c33.333 -32 50 -76.667 50 -134v-308h-51z" />
    <glyph glyph-name="o" unicode="o" horiz-adv-x="526" 
d="M457 241c0 -34.667 -3.66699 -69.334 -11 -104.001s-23.666 -64.667 -48.999 -90c-35.333 -35.333 -80 -53 -134 -53s-98.667 17.667 -134 53c-25.333 25.333 -41.666 55.333 -48.999 90s-11 69.334 -11 104.001s3.66699 69.334 11 104.001s23.666 64.667 48.999 90
c35.333 35.333 80 53 134 53s98.667 -17.667 134 -53c25.333 -25.333 41.666 -55.333 48.999 -90s11 -69.334 11 -104.001zM406 241c0 14 -0.333008 28.333 -1 43s-2.5 29.167 -5.5 43.5s-7.33301 27.833 -13 40.5s-13.5 24 -23.5 34c-27.333 27.333 -60.666 41 -99.999 41
s-72.666 -13.667 -99.999 -41c-10 -10 -17.833 -21.333 -23.5 -34s-10 -26.167 -13 -40.5s-4.83301 -28.833 -5.5 -43.5s-1 -29 -1 -43s0.333008 -28.333 1 -43s2.5 -29.167 5.5 -43.5s7.33301 -27.833 13 -40.5s13.5 -24 23.5 -34c27.333 -27.333 60.666 -41 99.999 -41
s72.666 13.667 99.999 41c10 10 17.833 21.333 23.5 34s10 26.167 13 40.5s4.83301 28.833 5.5 43.5s1 29 1 43z" />
    <glyph glyph-name="p" unicode="p" horiz-adv-x="540" 
d="M471 241c0 -38 -4.16699 -75.498 -12.5 -112.498s-24.833 -67.833 -49.5 -92.5c-12.667 -12.667 -29.167 -22.834 -49.5 -30.501s-43.166 -11.5 -68.499 -11.5c-28 0 -53.5 4.33301 -76.5 13s-45.167 27 -66.5 55v-292h-51v712h51v-62c21.333 28 43.5 46.333 66.5 55
s48.5 13 76.5 13c25.333 0 48.166 -3.83301 68.499 -11.5s36.833 -17.834 49.5 -30.501c24.667 -24.667 41.167 -55.5 49.5 -92.5s12.5 -74.5 12.5 -112.5zM420 241.002c0 24.667 -1.5 49.167 -4.5 73.5s-9.33301 46 -19 65s-23.5 34.333 -41.5 46s-41.667 17.5 -71 17.5
s-53 -5.83301 -71 -17.5s-31.833 -27 -41.5 -46s-16 -40.667 -19 -65s-4.5 -48.833 -4.5 -73.5c0 -25.333 1.5 -50 4.5 -74s9.33301 -45.5 19 -64.5s23.5 -34.333 41.5 -46s41.667 -17.5 71 -17.5s53 5.83301 71 17.5s31.833 27 41.5 46s16 40.5 19 64.5s4.5 48.667 4.5 74z
" />
    <glyph glyph-name="q" unicode="q" horiz-adv-x="540" 
d="M392 -230v291.998c-21.333 -28 -43.5 -46.333 -66.5 -55s-48.5 -13 -76.5 -13c-25.333 0 -48.166 3.83301 -68.499 11.5s-36.833 17.834 -49.5 30.501c-24.667 24.667 -41.167 55.5 -49.5 92.5s-12.5 74.5 -12.5 112.5s4.16699 75.5 12.5 112.5s24.833 67.833 49.5 92.5
c12.667 12.667 29.167 22.834 49.5 30.501s43.166 11.5 68.499 11.5c28 0 53.5 -4.33301 76.5 -13s45.167 -27 66.5 -55v62h51v-712h-51zM392 240.998c0 24.667 -1.5 49.167 -4.5 73.5s-9.33301 46 -19 65s-23.5 34.333 -41.5 46s-41.667 17.5 -71 17.5
s-53 -5.83301 -71 -17.5s-31.833 -27 -41.5 -46s-16 -40.667 -19 -65s-4.5 -48.833 -4.5 -73.5c0 -25.333 1.5 -50 4.5 -74s9.33301 -45.5 19 -64.5s23.5 -34.333 41.5 -46s41.667 -17.5 71 -17.5s53 5.83301 71 17.5s31.833 27 41.5 46s16 40.5 19 64.5s4.5 48.667 4.5 74z
" />
    <glyph glyph-name="r" unicode="r" horiz-adv-x="409" 
d="M368 405c-14.667 14.667 -28.499 24.667 -41.499 30s-29.5 8 -49.5 8c-20.667 0 -39 -4 -55 -12s-29.5 -18.667 -40.5 -32s-19.333 -28.833 -25 -46.5s-8.5 -36.167 -8.5 -55.5v-297h-51v482h51v-64c14 22.667 33.833 40 59.5 52s52.834 18 81.501 18
c23.333 0 44.166 -3.33301 62.499 -10s36.166 -18.667 53.499 -36z" />
    <glyph glyph-name="s" unicode="s" horiz-adv-x="494" 
d="M438 137c0 -44 -17.1641 -78.834 -51.4971 -104.501s-81.5 -38.5 -141.5 -38.5c-42 0 -78.833 5.66699 -110.5 17s-59.834 28.666 -84.501 51.999l35 35c37.333 -39.333 90 -59 158 -59c96.667 0 145 32.667 145 98c0 25.333 -7.33301 44.333 -22 57s-38 20.667 -70 24
l-80 7c-96.667 8 -145 50 -145 126c0 42 15.667 75.333 47 100s73.333 37 126 37c34 0 65.333 -4.5 94 -13.5s53.667 -21.5 75 -37.5l-34 -34c-37.333 27.333 -82.333 41 -135 41c-40 0 -70.5 -8 -91.5 -24s-31.5 -39 -31.5 -69c0 -25.333 7.83301 -44.333 23.5 -57
s40.5 -20.667 74.5 -24l78 -7c20 -2 38.667 -5.33301 56 -10s32.166 -11.667 44.499 -21s22.166 -21.666 29.499 -36.999s11 -34.666 11 -57.999z" />
    <glyph glyph-name="t" unicode="t" horiz-adv-x="325" 
d="M225 0c-38 0 -66.833 11.832 -86.5 35.499s-29.5 53.834 -29.5 90.501v318h-66v38h66v154h51v-154h109v-38h-109v-319c0 -25.333 6 -45 18 -59s30.667 -21 56 -21h35v-45h-44z" />
    <glyph glyph-name="u" unicode="u" 
d="M411 0v57.001c-36 -42 -83.333 -63 -142 -63c-54 0 -96.667 15.333 -128 46c-33.333 32 -50 76.667 -50 134v308h51v-299c0 -46.667 11.167 -82.334 33.5 -107.001s55.5 -37 99.5 -37s77.667 12.5 101 37.5s35 60.5 35 106.5v299h51v-482h-51z" />
    <glyph glyph-name="v" unicode="v" horiz-adv-x="430" 
d="M240 0h-50l-176 482h56l145 -422l145 422h56z" />
    <glyph glyph-name="w" unicode="w" horiz-adv-x="712" 
d="M544 0h-52l-136 402l-136 -402h-52l-154 482h56l123 -422l138 422h50l138 -422l123 422h56z" />
    <glyph glyph-name="x" unicode="x" horiz-adv-x="460" 
d="M358 0l-127 203l-129 -203h-62l163 246l-156 236h62l122 -194l120 194h62l-156 -236l163 -246h-62z" />
    <glyph glyph-name="y" unicode="y" horiz-adv-x="430" 
d="M192 -131c-9.33301 -26.667 -20.334 -45.3311 -33.001 -55.998c-12 -11.333 -26.167 -19.333 -42.5 -24s-32.5 -7 -48.5 -7h-24v45h19c14 0 25.5 1.16699 34.5 3.5s16.833 6.16602 23.5 11.499s12.334 12.166 17.001 20.499s9 18.5 13 30.5l39 107l-176 482h56l145 -422
l145 422h56z" />
    <glyph glyph-name="z" unicode="z" horiz-adv-x="452" 
d="M54 0v48l290 389h-274v45h328v-48l-291 -389h291v-45h-344z" />
    <glyph glyph-name="braceleft" unicode="{" horiz-adv-x="316" 
d="M252 -74c-24.667 0 -44.5 2.00586 -59.5 6.00586s-27.5 11 -37.5 21c-9.33301 9.33301 -16 20.666 -20 33.999s-6 33.666 -6 60.999v207c0 28 -6 48 -18 60c-5.33301 5.33301 -11.5 9.83301 -18.5 13.5s-15.167 5.5 -24.5 5.5h-18v44h18c9.33301 0 17.5 1.83301 24.5 5.5
s13.167 8.16699 18.5 13.5c12 12 18 32 18 60v207c0 27.333 2 47.666 6 60.999s10.667 24.666 20 33.999c10 10 22.5 17 37.5 21s34.833 6 59.5 6h14v-45h-13c-18 0 -31 -0.833008 -39 -2.5s-14.667 -5.16699 -20 -10.5s-9 -12.833 -11 -22.5s-3 -23.834 -3 -42.501v-207
c0 -26 -4.83301 -46.5 -14.5 -61.5s-25.167 -27.833 -46.5 -38.5c21.333 -10.667 36.833 -23.5 46.5 -38.5s14.5 -35.5 14.5 -61.5v-207c0 -18.667 1 -32.834 3 -42.501s5.66699 -17.167 11 -22.5s12 -8.83301 20 -10.5s21 -2.5 39 -2.5h13v-45h-14z" />
    <glyph glyph-name="bar" unicode="|" horiz-adv-x="317" 
d="M133 -74v860h51v-860h-51z" />
    <glyph glyph-name="braceright" unicode="}" horiz-adv-x="316" 
d="M248 334c-9.33301 0 -17.5 -1.83887 -24.5 -5.50586s-13.167 -8.16699 -18.5 -13.5c-12 -12 -18 -32 -18 -60v-207c0 -27.333 -2 -47.666 -6 -60.999s-10.667 -24.666 -20 -33.999c-10 -10 -22.5 -17 -37.5 -21s-34.833 -6 -59.5 -6h-14v45h13c18 0 31 0.833008 39 2.5
s14.667 5.16699 20 10.5s9 12.833 11 22.5s3 23.834 3 42.501v207c0 26 4.83301 46.5 14.5 61.5s25.167 27.833 46.5 38.5c-21.333 10.667 -36.833 23.5 -46.5 38.5s-14.5 35.5 -14.5 61.5v207c0 18.667 -1 32.834 -3 42.501s-5.66699 17.167 -11 22.5s-12 8.83301 -20 10.5
s-21 2.5 -39 2.5h-13v45h14c24.667 0 44.5 -2 59.5 -6s27.5 -11 37.5 -21c9.33301 -9.33301 16 -20.666 20 -33.999s6 -33.666 6 -60.999v-207c0 -28 6 -48 18 -60c5.33301 -5.33301 11.5 -9.83301 18.5 -13.5s15.167 -5.5 24.5 -5.5h18v-44h-18z" />
    <glyph glyph-name="asciitilde" unicode="~" horiz-adv-x="514" 
d="M461 277c-13.333 -13.333 -25.166 -24.166 -35.499 -32.499s-19.833 -14.666 -28.5 -18.999s-17 -7.16602 -25 -8.49902s-17 -2 -27 -2c-16.667 0 -33.334 3.33301 -50.001 10l-52 21l-38.5 16c-11.667 4.66699 -24.167 7 -37.5 7c-7.33301 0 -13.833 -0.5 -19.5 -1.5
s-11.5 -3 -17.5 -6s-12.667 -7.5 -20 -13.5s-16 -14 -26 -24l-31 31c13.333 13.333 25.166 24.166 35.499 32.499s19.833 14.666 28.5 18.999s17 7.16602 25 8.49902s17 2 27 2c16.667 0 33.334 -3.33301 50.001 -10l52 -21l38.5 -16c11.667 -4.66699 24.167 -7 37.5 -7
c7.33301 0 13.833 0.5 19.5 1.5s11.5 3 17.5 6s12.667 7.5 20 13.5s16 14 26 24z" />
    <glyph glyph-name="uni00A0" unicode="&#xa0;" horiz-adv-x="255" 
 />
    <glyph glyph-name="exclamdown" unicode="&#xa1;" horiz-adv-x="304" 
d="M110 -230l3 520h49l3 -520h-55zM104 415v67h67v-67h-67z" />
    <glyph glyph-name="cent" unicode="&#xa2;" horiz-adv-x="498" 
d="M440 193c-12 -13.333 -23.668 -24.666 -35.001 -33.999s-22.833 -16.833 -34.5 -22.5s-23.834 -9.83398 -36.501 -12.501s-26.667 -4.33398 -42 -5.00098v-119h-43v121c-56.667 7.33301 -100.834 32.333 -132.501 75s-47.5 99.334 -47.5 170.001
s15.833 127.334 47.5 170.001s75.834 67.667 132.501 75v101h43v-99c30.667 -1.33301 56.834 -7.33301 78.501 -18s44.834 -29.334 69.501 -56.001l-35 -32c-19.333 21.333 -37.333 36.5 -54 45.5s-36.334 14.167 -59.001 15.5v-404c22.667 1.33301 42.334 6.5 59.001 15.5
s34.667 24.167 54 45.5zM248.999 565c-40.667 -6.66699 -72.667 -27 -96 -61c-12 -17.333 -20.5 -36.5 -25.5 -57.5s-7.5 -47.833 -7.5 -80.5s2.5 -59.5 7.5 -80.5s13.5 -40.167 25.5 -57.5c23.333 -34 55.333 -54.333 96 -61v398z" />
    <glyph glyph-name="sterling" unicode="&#xa3;" horiz-adv-x="537" 
d="M114 0l-0.000976562 342h-64v38h64v122c0 32.667 5 62.167 15 88.5s24.167 49 42.5 68s40.666 33.667 66.999 44s55.5 15.5 87.5 15.5c63.333 0 115.333 -20.333 156 -61l-37 -37c-13.333 13.333 -28.666 25 -45.999 35s-41.666 15 -72.999 15
c-52 0 -91.333 -15.333 -118 -46s-40 -75 -40 -133v-111h158v-38h-158v-294h314v-48h-368z" />
    <glyph glyph-name="currency" unicode="&#xa4;" horiz-adv-x="657" 
d="M545 265c0 -26 -3.99902 -50.667 -11.999 -74s-19.667 -44.333 -35 -63l74 -74l-32 -32l-75 74c-38 -32 -83.667 -48 -137 -48s-99 16 -137 48l-74 -74l-32 32l74 74c-32 38 -48 83.667 -48 137c0 26 4.16699 50.833 12.5 74.5s20.166 44.834 35.499 63.501l-74 73l32 32
l74 -73c18.667 15.333 39.667 27 63 35s48 12 74 12s50.667 -4 74 -12s44.333 -19.667 63 -35l75 73l32 -32l-74 -73c15.333 -18.667 27 -39.834 35 -63.501s12 -48.5 12 -74.5zM497.001 265c0 23.333 -4.33301 45.333 -13 66s-20.667 38.667 -36 54s-33.333 27.333 -54 36
s-42.667 13 -66 13s-45.333 -4.33301 -66 -13s-38.667 -20.667 -54 -36s-27.333 -33.333 -36 -54s-13 -42.667 -13 -66s4.33301 -45.333 13 -66s20.667 -38.667 36 -54s33.333 -27.333 54 -36s42.667 -13 66 -13s45.333 4.33301 66 13s38.667 20.667 54 36
s27.333 33.333 36 54s13 42.667 13 66z" />
    <glyph glyph-name="yen" unicode="&#xa5;" horiz-adv-x="493" 
d="M320 386h108v-38h-127l-27 -53v-53h154v-38h-154v-204h-54v204h-155v38h155v53l-27 53h-128v38h109l-164 326h57l181 -361l179 361h56z" />
    <glyph glyph-name="brokenbar" unicode="&#xa6;" horiz-adv-x="328" 
d="M133 -74v350h51v-350h-51zM133 436v350h51v-350h-51z" />
    <glyph glyph-name="section" unicode="&#xa7;" horiz-adv-x="566" 
d="M469 247c0 -21.333 -3.00098 -40.8301 -9.00098 -58.4971s-14 -33.667 -24 -48s-21.667 -26.833 -35 -37.5s-27.333 -19.334 -42 -26.001c32 -10.667 57.167 -28.667 75.5 -54s27.5 -56 27.5 -92c0 -24 -4.33301 -46.333 -13 -67s-21 -38.334 -37 -53.001
s-35 -26.167 -57 -34.5s-46 -12.5 -72 -12.5c-25.333 0 -48.666 3.5 -69.999 10.5s-40.166 17 -56.499 30s-29.5 29.167 -39.5 48.5s-16 41.333 -18 66h54c3.33301 -36 16.333 -62.833 39 -80.5s53 -26.5 91 -26.5s68.333 10.167 91 30.5s34 49.833 34 88.5
c0 26.667 -8.5 50 -25.5 70s-39.833 34 -68.5 42l-83 23c-42.667 12 -75.667 34.167 -99 66.5s-35 70.5 -35 114.5c0 20.667 3 40 9 58s14 34.167 24 48.5s21.667 26.833 35 37.5s27.333 19.334 42 26.001c-32 13.333 -56.5 31 -73.5 53s-25.5 51.333 -25.5 88
c0 24.667 4.66699 47 14 67s21.833 36.833 37.5 50.5s34.167 24.167 55.5 31.5s44 11 68 11c23.333 0 45.5 -3.33301 66.5 -10s39.5 -16.334 55.5 -29.001s29 -28.5 39 -47.5s15.667 -40.5 17 -64.5h-53c-3.33301 38 -15.833 64.833 -37.5 80.5s-50.834 23.5 -87.501 23.5
c-38 0 -67.833 -9.33301 -89.5 -28s-32.5 -47 -32.5 -85c0 -30.667 8.66699 -54.334 26 -71.001s39 -28.667 65 -36l83 -23c42 -12 74.833 -34.333 98.5 -67s35.5 -70.667 35.5 -114zM414.999 247.003c0 19.333 -2.16699 37.332 -6.5 53.999s-13.833 32.334 -28.5 47.001
c-27.333 27.333 -59.666 41 -96.999 41c-39.333 0 -71.666 -13.667 -96.999 -41c-13.333 -14.667 -22.5 -29.834 -27.5 -45.501s-7.5 -34.167 -7.5 -55.5c0 -22.667 3 -42.167 9 -58.5s14.667 -30.5 26 -42.5c25.333 -27.333 57.666 -41 96.999 -41s71.666 13.667 96.999 41
c11.333 12.667 20 26.834 26 42.501s9 35.167 9 58.5z" />
    <glyph glyph-name="dieresis" unicode="&#xa8;" horiz-adv-x="500" 
d="M117 600v77h58v-77h-58zM325 600v77h58v-77h-58z" />
    <glyph glyph-name="copyright" unicode="&#xa9;" horiz-adv-x="894" 
d="M809 356c0 -50 -9.5 -97 -28.5 -141s-44.833 -82.333 -77.5 -115s-71 -58.5 -115 -77.5s-91 -28.5 -141 -28.5s-97 9.5 -141 28.5s-82.333 44.833 -115 77.5s-58.5 71 -77.5 115s-28.5 91 -28.5 141s9.5 97 28.5 141s44.833 82.333 77.5 115s71 58.5 115 77.5
s91 28.5 141 28.5s97 -9.5 141 -28.5s82.333 -44.833 115 -77.5s58.5 -71 77.5 -115s28.5 -91 28.5 -141zM761 356c0 42.667 -8.33301 83.334 -25 122.001s-39.167 72.5 -67.5 101.5s-61.666 52 -99.999 69s-78.833 25.5 -121.5 25.5c-43.333 0 -84 -8.5 -122 -25.5
s-71.167 -40 -99.5 -69s-50.833 -62.833 -67.5 -101.5s-25 -79.334 -25 -122.001c0 -43.333 8.33301 -84.166 25 -122.499s39.167 -72 67.5 -101s61.5 -52 99.5 -69s78.667 -25.5 122 -25.5c42.667 0 83.167 8.5 121.5 25.5s71.666 40 99.999 69s50.833 62.667 67.5 101
s25 79.166 25 122.499zM582 202c-19.333 -17.333 -39 -30.333 -59 -39s-44 -13 -72 -13c-30.667 0 -57.167 5.5 -79.5 16.5s-40.666 25.833 -54.999 44.5s-25 40.5 -32 65.5s-10.5 51.5 -10.5 79.5s3.5 54.5 10.5 79.5s17.667 47 32 66s32.666 34 54.999 45
s48.833 16.5 79.5 16.5c28 0 51.667 -4.16699 71 -12.5s39.333 -21.833 60 -40.5l-30 -30c-18 16 -34.333 27 -49 33s-32 9 -52 9c-25.333 0 -46.5 -4.5 -63.5 -13.5s-30.5 -21.167 -40.5 -36.5s-17.167 -33 -21.5 -53s-6.5 -41 -6.5 -63s2.16699 -43 6.5 -63
s11.5 -37.5 21.5 -52.5s23.5 -27 40.5 -36s38.167 -13.5 63.5 -13.5c20 0 37.333 2.83301 52 8.5s31 16.5 49 32.5z" />
    <glyph glyph-name="ordfeminine" unicode="&#xaa;" horiz-adv-x="447" 
d="M313 327l0.000976562 36.001c-16 -15.333 -32.5 -26 -49.5 -32s-38.5 -9 -64.5 -9c-28 0 -50.5 2.5 -67.5 7.5s-31.833 14.167 -44.5 27.5c-9.33301 9.33301 -16.333 20.5 -21 33.5s-7 26.833 -7 41.5c0 36 11.667 63.5 35 82.5s56 28.5 98 28.5h121v42
c0 30 -8 52.667 -24 68s-43 23 -81 23c-26.667 0 -47.667 -3.5 -63 -10.5s-29 -19.5 -41 -37.5l-32 27c17.333 23.333 36.666 39.166 57.999 47.499s47.333 12.5 78 12.5c50 0 87.167 -11 111.5 -33s36.5 -53 36.5 -93v-262h-43zM313.001 508.001l-116 0.000976562
c-63.333 0 -95 -25 -95 -75c0 -24.667 7.66699 -42.834 23 -54.501s40 -17.5 74 -17.5c17.333 0 34 1.5 50 4.5s30.667 10.833 44 23.5c13.333 13.333 20 37.333 20 72v47z" />
    <glyph glyph-name="guillemotleft" unicode="&#xab;" horiz-adv-x="527" 
d="M42 265l196 196v-66l-130 -130l130 -130v-66zM249 265l196 196v-66l-130 -130l130 -130v-66z" />
    <glyph glyph-name="logicalnot" unicode="&#xac;" horiz-adv-x="514" 
d="M414 107v133h-361v47h408v-180h-47z" />
    <glyph glyph-name="uni00AD" unicode="&#xad;" horiz-adv-x="426" 
d="M82 240v47h262v-47h-262z" />
    <glyph glyph-name="registered" unicode="&#xae;" horiz-adv-x="894" 
d="M809 356c0 -50 -9.5 -97 -28.5 -141s-44.833 -82.333 -77.5 -115s-71 -58.5 -115 -77.5s-91 -28.5 -141 -28.5s-97 9.5 -141 28.5s-82.333 44.833 -115 77.5s-58.5 71 -77.5 115s-28.5 91 -28.5 141s9.5 97 28.5 141s44.833 82.333 77.5 115s71 58.5 115 77.5
s91 28.5 141 28.5s97 -9.5 141 -28.5s82.333 -44.833 115 -77.5s58.5 -71 77.5 -115s28.5 -91 28.5 -141zM762 356c0 43.333 -8.33301 84.333 -25 123s-39.167 72.5 -67.5 101.5s-61.666 52 -99.999 69s-79.166 25.5 -122.499 25.5s-84.166 -8.5 -122.499 -25.5
s-71.666 -40 -99.999 -69s-50.833 -62.833 -67.5 -101.5s-25 -79.667 -25 -123s8.33301 -84.333 25 -123s39.167 -72.5 67.5 -101.5s61.666 -52 99.999 -69s79.166 -25.5 122.499 -25.5s84.166 8.5 122.499 25.5s71.666 40 99.999 69s50.833 62.833 67.5 101.5
s25 79.667 25 123zM444 323l-66 0.000976562v-167h-45v401h128c16.667 0 32.5 -3 47.5 -9s28.167 -14.167 39.5 -24.5s20.333 -22.833 27 -37.5s10 -30.334 10 -47.001c0 -30 -8.5 -54.333 -25.5 -73s-38.833 -31.667 -65.5 -39l101 -171h-52zM540 439.001
c0 22 -8 40.333 -24 55s-36 22 -60 22h-78v-153h78c24 0 44 7.16699 60 21.5s24 32.5 24 54.5z" />
    <glyph glyph-name="macron" unicode="&#xaf;" horiz-adv-x="500" 
d="M102 610v46h296v-46h-296z" />
    <glyph glyph-name="degree" unicode="&#xb0;" horiz-adv-x="458" 
d="M386 562c0 -22 -4.16699 -42.5 -12.5 -61.5s-19.5 -35.5 -33.5 -49.5s-30.5 -25.167 -49.5 -33.5s-39.5 -12.5 -61.5 -12.5s-42.5 4.16699 -61.5 12.5s-35.5 19.5 -49.5 33.5s-25.167 30.5 -33.5 49.5s-12.5 39.5 -12.5 61.5s4.16699 42.5 12.5 61.5s19.5 35.5 33.5 49.5
s30.5 25.167 49.5 33.5s39.5 12.5 61.5 12.5s42.5 -4.16699 61.5 -12.5s35.5 -19.5 49.5 -33.5s25.167 -30.5 33.5 -49.5s12.5 -39.5 12.5 -61.5zM341 562c0 16 -2.83105 31 -8.49805 45s-13.667 26.167 -24 36.5s-22.333 18.5 -36 24.5s-28.5 9 -44.5 9
s-30.833 -2.83301 -44.5 -8.5s-25.334 -13.667 -35.001 -24s-17.334 -22.5 -23.001 -36.5s-8.5 -29.333 -8.5 -46s2.83301 -32 8.5 -46s13.5 -26.167 23.5 -36.5s21.833 -18.333 35.5 -24s28.5 -8.5 44.5 -8.5s30.833 2.83301 44.5 8.5s25.5 13.667 35.5 24
s17.833 22.5 23.5 36.5s8.5 29.333 8.5 46z" />
    <glyph glyph-name="plusminus" unicode="&#xb1;" horiz-adv-x="514" 
d="M281 270v-182h-47v182h-181v47h181v181h47v-181h180v-47h-180zM53 0v47h408v-47h-408z" />
    <glyph glyph-name="twosuperior" unicode="&#xb2;" horiz-adv-x="313" 
d="M44 285v39.999l168 213c15.333 20.667 23 41.334 23 62.001c0 23.333 -6.33301 41.833 -19 55.5s-30.667 20.5 -54 20.5c-19.333 0 -36.5 -5.66699 -51.5 -17s-22.5 -31 -22.5 -59h-44c0 34 10.667 61.833 32 83.5s50 32.5 86 32.5s64.667 -10.333 86 -31s32 -49 32 -85
c0 -17.333 -2.66699 -32.333 -8 -45s-14 -26.667 -26 -42l-149 -188h183v-40h-236z" />
    <glyph glyph-name="threesuperior" unicode="&#xb3;" horiz-adv-x="313" 
d="M282 403c0 -20 -3.16895 -37.498 -9.50195 -52.498s-15.166 -27.667 -26.499 -38s-24.666 -18.166 -39.999 -23.499s-31.666 -8 -48.999 -8s-33.5 2.33301 -48.5 7s-28.167 11.667 -39.5 21s-20.5 21.166 -27.5 35.499s-10.833 31.166 -11.5 50.499h45
c1.33301 -26.667 10.166 -45.667 26.499 -57s34.833 -17 55.5 -17c22.667 0 41.834 7.33301 57.501 22s23.5 34.667 23.5 60s-6.83301 45.166 -20.5 59.499s-34.834 21.5 -63.501 21.5h-8v39h8c25.333 0 44.333 6.83301 57 20.5s19 32.167 19 55.5
c0 25.333 -7.5 44.5 -22.5 57.5s-32.167 19.5 -51.5 19.5c-22.667 0 -40.5 -6.33301 -53.5 -19s-20.5 -29.667 -22.5 -51h-44c2.66699 34.667 15.167 61.667 37.5 81s49.833 29 82.5 29c36 0 64.667 -10.333 86 -31s32 -49 32 -85c0 -46 -19 -77.333 -57 -94
c43.333 -16 65 -50.333 65 -103z" />
    <glyph glyph-name="acute" unicode="&#xb4;" horiz-adv-x="500" 
d="M261 590h-58l97 147h67z" />
    <glyph glyph-name="mu" unicode="&#xb5;" horiz-adv-x="556" 
d="M408 0v57.001c-36 -42 -83.333 -63 -142 -63c-52.667 0 -95 15 -127 45v-269h-51v712h51v-299c0 -46.667 11.167 -82.334 33.5 -107.001s55.5 -37 99.5 -37s77.667 12.5 101 37.5s35 60.5 35 106.5v299h51v-482h-51z" />
    <glyph glyph-name="paragraph" unicode="&#xb6;" horiz-adv-x="579" 
d="M418 -230v893.997h-123v-894h-51v562c-32 0 -60.333 5.5 -85 16.5s-45.5 25.5 -62.5 43.5s-29.833 38.333 -38.5 61s-13 45.667 -13 69c0 24.667 4.5 48.334 13.5 71.001s22.5 42.834 40.5 60.501s40.167 31.834 66.5 42.501s56.5 16 90.5 16h213v-942h-51z" />
    <glyph glyph-name="periodcentered" unicode="&#xb7;" horiz-adv-x="264" 
d="M95 227v74h74v-74h-74z" />
    <glyph glyph-name="cedilla" unicode="&#xb8;" horiz-adv-x="500" 
d="M244 -220h-63l72 150h55z" />
    <glyph glyph-name="onesuperior" unicode="&#xb9;" horiz-adv-x="313" 
d="M152 285v378l-80 -71v51l80 69h44v-427h-44z" />
    <glyph glyph-name="ordmasculine" unicode="&#xba;" horiz-adv-x="452" 
d="M380 519c0 -28 -2.83301 -55.5 -8.5 -82.5s-18.834 -50.833 -39.501 -71.5c-28 -28 -63.333 -42 -106 -42s-78 14 -106 42c-20.667 20.667 -33.834 44.5 -39.501 71.5s-8.5 54.5 -8.5 82.5s2.83301 55.5 8.5 82.5s18.834 50.833 39.501 71.5c28 28 63.333 42 106 42
s78 -14 106 -42c20.667 -20.667 33.834 -44.5 39.501 -71.5s8.5 -54.5 8.5 -82.5zM337 519c0 21.333 -1.66504 43.666 -4.99805 66.999s-12.666 42.666 -27.999 57.999c-21.333 21.333 -47.333 32 -78 32s-56.667 -10.667 -78 -32
c-15.333 -15.333 -24.666 -34.666 -27.999 -57.999s-5 -45.666 -5 -66.999s1.66699 -43.666 5 -66.999s12.666 -42.666 27.999 -57.999c10 -10 21.667 -17.833 35 -23.5s27.666 -8.5 42.999 -8.5s29.666 2.83301 42.999 8.5s25 13.5 35 23.5
c15.333 15.333 24.666 34.666 27.999 57.999s5 45.666 5 66.999z" />
    <glyph glyph-name="guillemotright" unicode="&#xbb;" horiz-adv-x="527" 
d="M82 69v66l130 130l-130 130v66l196 -196zM289 69v66l130 130l-130 130v66l196 -196z" />
    <glyph glyph-name="onequarter" unicode="&#xbc;" horiz-adv-x="803" 
d="M152 285v378l-80 -71v51l80 69h44v-427h-44zM258 0h-45l332 712h45zM728 67v-67h-44v67h-170v40l154 320h47l-153 -320h122v120h44v-120h52v-40h-52z" />
    <glyph glyph-name="onehalf" unicode="&#xbd;" horiz-adv-x="803" 
d="M152 285v378l-80 -71v51l80 69h44v-427h-44zM258 0h-45l332 712h45zM534 0v39.999l168 213c15.333 20.667 23 41.334 23 62.001c0 23.333 -6.33301 41.833 -19 55.5s-30.667 20.5 -54 20.5c-19.333 0 -36.5 -5.66699 -51.5 -17s-22.5 -31 -22.5 -59h-44
c0 34 10.667 61.833 32 83.5s50 32.5 86 32.5s64.667 -10.333 86 -31s32 -49 32 -85c0 -17.333 -2.66699 -32.333 -8 -45s-14 -26.667 -26 -42l-149 -188h183v-40h-236z" />
    <glyph glyph-name="threequarters" unicode="&#xbe;" horiz-adv-x="803" 
d="M282 403c0 -20 -3.16895 -37.498 -9.50195 -52.498s-15.166 -27.667 -26.499 -38s-24.666 -18.166 -39.999 -23.499s-31.666 -8 -48.999 -8s-33.5 2.33301 -48.5 7s-28.167 11.667 -39.5 21s-20.5 21.166 -27.5 35.499s-10.833 31.166 -11.5 50.499h45
c1.33301 -26.667 10.166 -45.667 26.499 -57s34.833 -17 55.5 -17c22.667 0 41.834 7.33301 57.501 22s23.5 34.667 23.5 60s-6.83301 45.166 -20.5 59.499s-34.834 21.5 -63.501 21.5h-8v39h8c25.333 0 44.333 6.83301 57 20.5s19 32.167 19 55.5
c0 25.333 -7.5 44.5 -22.5 57.5s-32.167 19.5 -51.5 19.5c-22.667 0 -40.5 -6.33301 -53.5 -19s-20.5 -29.667 -22.5 -51h-44c2.66699 34.667 15.167 61.667 37.5 81s49.833 29 82.5 29c36 0 64.667 -10.333 86 -31s32 -49 32 -85c0 -46 -19 -77.333 -57 -94
c43.333 -16 65 -50.333 65 -103zM257.998 0.00195312h-45l332 712h45zM727.998 67.002v-67h-44v67h-170v40l154 320h47l-153 -320h122v120h44v-120h52v-40h-52z" />
    <glyph glyph-name="questiondown" unicode="&#xbf;" horiz-adv-x="488" 
d="M408 -60c0 -24 -4.33398 -46.6641 -13.001 -67.9971s-20.834 -40 -36.501 -56s-34.5 -28.667 -56.5 -38s-46.333 -14 -73 -14c-25.333 0 -49 4.5 -71 13.5s-41 21.333 -57 37s-28.5 34.167 -37.5 55.5s-13.5 44.666 -13.5 69.999c0 23.333 4 44.166 12 62.499
s18.667 37.166 32 56.499l85 125c6.66699 9.33301 11.334 19.666 14.001 30.999s4 21 4 29v47h51v-45c0 -19.333 -2.33301 -35.5 -7 -48.5s-12 -26.833 -22 -41.5l-84 -124c-10 -15.333 -18.167 -29.666 -24.5 -42.999s-9.5 -29.666 -9.5 -48.999
c0 -18.667 3.16699 -36 9.5 -52s15.333 -29.833 27 -41.5s25.334 -20.834 41.001 -27.501s32.5 -10 50.5 -10c19.333 0 37 3.5 53 10.5s29.5 16.5 40.5 28.5s19.5 26 25.5 42s9 32.667 9 50h51zM188.999 415.003v67h67v-67h-67z" />
    <glyph glyph-name="Agrave" unicode="&#xc0;" horiz-adv-x="602" 
d="M529 0l-62 173h-332l-62 -173h-58l262 712h48l262 -712h-58zM152 221h298l-149 419zM291 780l-106 147h67l97 -147h-58z" />
    <glyph glyph-name="Aacute" unicode="&#xc1;" horiz-adv-x="602" 
d="M529 0l-62 173h-332l-62 -173h-58l262 712h48l262 -712h-58zM152 221h298l-149 419zM313 780h-58l97 147h67z" />
    <glyph glyph-name="Acircumflex" unicode="&#xc2;" horiz-adv-x="602" 
d="M529 0l-62 173h-332l-62 -173h-58l262 712h48l262 -712h-58zM152 221h298l-149 419zM395 780l-93 109l-93 -109h-57l123 147h54l123 -147h-57z" />
    <glyph glyph-name="Atilde" unicode="&#xc3;" horiz-adv-x="602" 
d="M529 0l-62 173h-332l-62 -173h-58l262 712h48l262 -712h-58zM152 221h298l-149 419zM451 843c-11.333 -11.333 -21.501 -20.3311 -30.501 -26.998s-17.167 -11.5 -24.5 -14.5s-13.666 -4.83301 -18.999 -5.5s-10.333 -1 -15 -1c-11.333 0 -21.833 1.66699 -31.5 5
s-22.167 9.66602 -37.5 18.999c-9.33301 5.33301 -18.5 10.166 -27.5 14.499s-18.5 6.5 -28.5 6.5c-8 0 -16 -1.66699 -24 -5s-19.667 -12.666 -35 -27.999l-30 29c11.333 11.333 21.5 20.333 30.5 27s17 11.5 24 14.5s13.333 4.83301 19 5.5s10.834 1 15.501 1
c14.667 0 26.834 -2.16699 36.501 -6.5s20.5 -10.166 32.5 -17.499c10.667 -6.66699 20.167 -11.834 28.5 -15.501s17.5 -5.5 27.5 -5.5c7.33301 0 15.166 1.66699 23.499 5s20.166 12.666 35.499 27.999l30 -29v0z" />
    <glyph glyph-name="Adieresis" unicode="&#xc4;" horiz-adv-x="602" 
d="M529 0l-62 173h-332l-62 -173h-58l262 712h48l262 -712h-58zM152 221h298l-149 419zM169 790v77h58v-77h-58zM377 790v77h58v-77h-58z" />
    <glyph glyph-name="Aring" unicode="&#xc5;" horiz-adv-x="602" 
d="M529 0l-62 173h-332l-62 -173h-58l262 712h48l262 -712h-58zM152 221h298l-149 419zM415 861c0 -16 -3 -30.833 -9 -44.5s-14.167 -25.834 -24.5 -36.501s-22.333 -19 -36 -25s-28.5 -9 -44.5 -9s-30.833 3 -44.5 9s-25.667 14.333 -36 25s-18.5 22.834 -24.5 36.501
s-9 28.5 -9 44.5s3 30.833 9 44.5s14.167 25.667 24.5 36s22.333 18.5 36 24.5s28.5 9 44.5 9s30.833 -3 44.5 -9s25.667 -14.167 36 -24.5s18.5 -22.333 24.5 -36s9 -28.5 9 -44.5zM374 861c0 20 -7.16699 37 -21.5 51s-31.5 21 -51.5 21s-37.167 -7 -51.5 -21
s-21.5 -31 -21.5 -51s7.16699 -37.167 21.5 -51.5s31.5 -21.5 51.5 -21.5s37.167 7.16699 51.5 21.5s21.5 31.5 21.5 51.5z" />
    <glyph glyph-name="AE" unicode="&#xc6;" horiz-adv-x="901" 
d="M414 0v173h-255l-90 -173h-59l377 712h458v-48h-378v-284h322v-48h-322v-284h378v-48h-431zM414 664l-232 -443h232v443z" />
    <glyph glyph-name="Ccedilla" unicode="&#xc7;" horiz-adv-x="644" 
d="M568 202c-6 -32 -16.001 -60.8291 -30.001 -86.4961s-31.5 -47.5 -52.5 -65.5s-45 -31.833 -72 -41.5s-56.167 -14.5 -87.5 -14.5c-36 0 -68.5 6 -97.5 18s-54.167 28.667 -75.5 50c-16.667 16.667 -29.667 33.167 -39 49.5s-16.333 35.5 -21 57.5
s-7.66699 47.833 -9 77.5s-2 66.167 -2 109.5s0.666992 79.833 2 109.5s4.33301 55.5 9 77.5s11.667 41.167 21 57.5s22.333 32.833 39 49.5c21.333 21.333 46.5 38 75.5 50s61.5 18 97.5 18c64.667 0 118.167 -18.5 160.5 -55.5s69.5 -87.833 81.5 -152.5h-55
c-10.667 50 -32.5 89.167 -65.5 117.5s-73.5 42.5 -121.5 42.5c-53.333 0 -98.333 -18.333 -135 -55c-12.667 -12.667 -22.667 -26.334 -30 -41.001s-12.833 -31.834 -16.5 -51.501s-6 -43 -7 -70s-1.5 -59.167 -1.5 -96.5s0.5 -69.5 1.5 -96.5s3.33301 -50.333 7 -70
s9.16699 -36.834 16.5 -51.501s17.333 -28.334 30 -41.001c36.667 -36.667 81.667 -55 135 -55c48 0 88.833 14.167 122.5 42.5s55.834 67.5 66.501 117.5h53zM301.999 -219.996h-63l72 150h55z" />
    <glyph glyph-name="Egrave" unicode="&#xc8;" horiz-adv-x="598" 
d="M110 0v712h432v-48h-378v-281h322v-48h-322v-287h378v-48h-432zM304 780l-106 147h67l97 -147h-58z" />
    <glyph glyph-name="Eacute" unicode="&#xc9;" horiz-adv-x="598" 
d="M110 0v712h432v-48h-378v-281h322v-48h-322v-287h378v-48h-432zM326 780h-58l97 147h67z" />
    <glyph glyph-name="Ecircumflex" unicode="&#xca;" horiz-adv-x="598" 
d="M110 0v712h432v-48h-378v-281h322v-48h-322v-287h378v-48h-432zM408 780l-93 109l-93 -109h-57l123 147h54l123 -147h-57z" />
    <glyph glyph-name="Edieresis" unicode="&#xcb;" horiz-adv-x="598" 
d="M110 0v712h432v-48h-378v-281h322v-48h-322v-287h378v-48h-432zM182 790v77h58v-77h-58zM390 790v77h58v-77h-58z" />
    <glyph glyph-name="Igrave" unicode="&#xcc;" horiz-adv-x="274" 
d="M110 0v712h54v-712h-54zM114 780l-106 147h67l97 -147h-58z" />
    <glyph glyph-name="Iacute" unicode="&#xcd;" horiz-adv-x="274" 
d="M162 780h-58l97 147h67zM110 0v712h54v-712h-54z" />
    <glyph glyph-name="Icircumflex" unicode="&#xce;" horiz-adv-x="274" 
d="M110 0v712h54v-712h-54zM233 780l-93 109l-93 -109h-57l123 147h54l123 -147h-57z" />
    <glyph glyph-name="Idieresis" unicode="&#xcf;" horiz-adv-x="274" 
d="M110 0v712h54v-712h-54zM5 790v77h58v-77h-58zM213 790v77h58v-77h-58z" />
    <glyph glyph-name="Eth" unicode="&#xd0;" horiz-adv-x="689" 
d="M607 356c0 -26.667 -0.333008 -53.668 -1 -81.001s-3.33398 -53.666 -8.00098 -78.999s-11.667 -49.333 -21 -72s-22.333 -42.334 -39 -59.001c-43.333 -43.333 -102.666 -65 -177.999 -65h-239v338h-81v42h81v332h239c75.333 0 134.666 -21.667 177.999 -65
c16.667 -17.333 29.667 -37.166 39 -59.499s16.333 -46.333 21 -72s7.33398 -52 8.00098 -79s1 -53.833 1 -80.5zM553 355.999c0 23.333 -0.333008 47.002 -1 71.002s-2.66699 47.167 -6 69.5s-8.5 43.166 -15.5 62.499s-17.167 36 -30.5 50
c-20.667 21.333 -44.167 35.833 -70.5 43.5s-53.833 11.5 -82.5 11.5h-172v-284h178v-42h-178v-290h172c28.667 0 56.167 3.83301 82.5 11.5s49.833 22.167 70.5 43.5c13.333 14 23.5 30.667 30.5 50s12.167 40.166 15.5 62.499s5.33301 45.5 6 69.5s1 47.667 1 71z" />
    <glyph glyph-name="Ntilde" unicode="&#xd1;" horiz-adv-x="739" 
d="M575 0l-411 619v-619h-54v712h54l411 -617v617h54v-712h-54zM519 843c-11.333 -11.333 -21.501 -20.3311 -30.501 -26.998s-17.167 -11.5 -24.5 -14.5s-13.666 -4.83301 -18.999 -5.5s-10.333 -1 -15 -1c-11.333 0 -21.833 1.66699 -31.5 5s-22.167 9.66602 -37.5 18.999
c-9.33301 5.33301 -18.5 10.166 -27.5 14.499s-18.5 6.5 -28.5 6.5c-8 0 -16 -1.66699 -24 -5s-19.667 -12.666 -35 -27.999l-30 29c11.333 11.333 21.5 20.333 30.5 27s17 11.5 24 14.5s13.333 4.83301 19 5.5s10.834 1 15.501 1c14.667 0 26.834 -2.16699 36.501 -6.5
s20.5 -10.166 32.5 -17.499c10.667 -6.66699 20.167 -11.834 28.5 -15.501s17.5 -5.5 27.5 -5.5c7.33301 0 15.166 1.66699 23.499 5s20.166 12.666 35.499 27.999l30 -29v0z" />
    <glyph glyph-name="Ograve" unicode="&#xd2;" horiz-adv-x="652" 
d="M570 356c0 -43.333 -0.666992 -79.833 -2 -109.5s-4.33301 -55.5 -9 -77.5s-11.667 -41.167 -21 -57.5s-22.333 -32.833 -39 -49.5c-21.333 -21.333 -46.5 -38 -75.5 -50s-61.5 -18 -97.5 -18s-68.5 6 -97.5 18s-54.167 28.667 -75.5 50
c-16.667 16.667 -29.667 33.167 -39 49.5s-16.333 35.5 -21 57.5s-7.66699 47.833 -9 77.5s-2 66.167 -2 109.5s0.666992 79.833 2 109.5s4.33301 55.5 9 77.5s11.667 41.167 21 57.5s22.333 32.833 39 49.5c21.333 21.333 46.5 38 75.5 50s61.5 18 97.5 18
s68.5 -6 97.5 -18s54.167 -28.667 75.5 -50c16.667 -16.667 29.667 -33.167 39 -49.5s16.333 -35.5 21 -57.5s7.66699 -47.833 9 -77.5s2 -66.167 2 -109.5zM516 356c0 37.333 -0.5 69.5 -1.5 96.5s-3.33301 50.333 -7 70s-9.16699 36.834 -16.5 51.501
s-17.333 28.334 -30 41.001c-36.667 36.667 -81.667 55 -135 55s-98.333 -18.333 -135 -55c-12.667 -12.667 -22.667 -26.334 -30 -41.001s-12.833 -31.834 -16.5 -51.501s-6 -43 -7 -70s-1.5 -59.167 -1.5 -96.5s0.5 -69.5 1.5 -96.5s3.33301 -50.333 7 -70
s9.16699 -36.834 16.5 -51.501s17.333 -28.334 30 -41.001c36.667 -36.667 81.667 -55 135 -55s98.333 18.333 135 55c12.667 12.667 22.667 26.334 30 41.001s12.833 31.834 16.5 51.501s6 43 7 70s1.5 59.167 1.5 96.5zM315 780l-106 147h67l97 -147h-58z" />
    <glyph glyph-name="Oacute" unicode="&#xd3;" horiz-adv-x="652" 
d="M570 356c0 -43.333 -0.666992 -79.833 -2 -109.5s-4.33301 -55.5 -9 -77.5s-11.667 -41.167 -21 -57.5s-22.333 -32.833 -39 -49.5c-21.333 -21.333 -46.5 -38 -75.5 -50s-61.5 -18 -97.5 -18s-68.5 6 -97.5 18s-54.167 28.667 -75.5 50
c-16.667 16.667 -29.667 33.167 -39 49.5s-16.333 35.5 -21 57.5s-7.66699 47.833 -9 77.5s-2 66.167 -2 109.5s0.666992 79.833 2 109.5s4.33301 55.5 9 77.5s11.667 41.167 21 57.5s22.333 32.833 39 49.5c21.333 21.333 46.5 38 75.5 50s61.5 18 97.5 18
s68.5 -6 97.5 -18s54.167 -28.667 75.5 -50c16.667 -16.667 29.667 -33.167 39 -49.5s16.333 -35.5 21 -57.5s7.66699 -47.833 9 -77.5s2 -66.167 2 -109.5zM516 356c0 37.333 -0.5 69.5 -1.5 96.5s-3.33301 50.333 -7 70s-9.16699 36.834 -16.5 51.501
s-17.333 28.334 -30 41.001c-36.667 36.667 -81.667 55 -135 55s-98.333 -18.333 -135 -55c-12.667 -12.667 -22.667 -26.334 -30 -41.001s-12.833 -31.834 -16.5 -51.501s-6 -43 -7 -70s-1.5 -59.167 -1.5 -96.5s0.5 -69.5 1.5 -96.5s3.33301 -50.333 7 -70
s9.16699 -36.834 16.5 -51.501s17.333 -28.334 30 -41.001c36.667 -36.667 81.667 -55 135 -55s98.333 18.333 135 55c12.667 12.667 22.667 26.334 30 41.001s12.833 31.834 16.5 51.501s6 43 7 70s1.5 59.167 1.5 96.5zM337 780h-58l97 147h67z" />
    <glyph glyph-name="Ocircumflex" unicode="&#xd4;" horiz-adv-x="652" 
d="M570 356c0 -43.333 -0.666992 -79.833 -2 -109.5s-4.33301 -55.5 -9 -77.5s-11.667 -41.167 -21 -57.5s-22.333 -32.833 -39 -49.5c-21.333 -21.333 -46.5 -38 -75.5 -50s-61.5 -18 -97.5 -18s-68.5 6 -97.5 18s-54.167 28.667 -75.5 50
c-16.667 16.667 -29.667 33.167 -39 49.5s-16.333 35.5 -21 57.5s-7.66699 47.833 -9 77.5s-2 66.167 -2 109.5s0.666992 79.833 2 109.5s4.33301 55.5 9 77.5s11.667 41.167 21 57.5s22.333 32.833 39 49.5c21.333 21.333 46.5 38 75.5 50s61.5 18 97.5 18
s68.5 -6 97.5 -18s54.167 -28.667 75.5 -50c16.667 -16.667 29.667 -33.167 39 -49.5s16.333 -35.5 21 -57.5s7.66699 -47.833 9 -77.5s2 -66.167 2 -109.5zM516 356c0 37.333 -0.5 69.5 -1.5 96.5s-3.33301 50.333 -7 70s-9.16699 36.834 -16.5 51.501
s-17.333 28.334 -30 41.001c-36.667 36.667 -81.667 55 -135 55s-98.333 -18.333 -135 -55c-12.667 -12.667 -22.667 -26.334 -30 -41.001s-12.833 -31.834 -16.5 -51.501s-6 -43 -7 -70s-1.5 -59.167 -1.5 -96.5s0.5 -69.5 1.5 -96.5s3.33301 -50.333 7 -70
s9.16699 -36.834 16.5 -51.501s17.333 -28.334 30 -41.001c36.667 -36.667 81.667 -55 135 -55s98.333 18.333 135 55c12.667 12.667 22.667 26.334 30 41.001s12.833 31.834 16.5 51.501s6 43 7 70s1.5 59.167 1.5 96.5zM419 780l-93 109l-93 -109h-57l123 147h54l123 -147
h-57z" />
    <glyph glyph-name="Otilde" unicode="&#xd5;" horiz-adv-x="652" 
d="M570 356c0 -43.333 -0.666992 -79.833 -2 -109.5s-4.33301 -55.5 -9 -77.5s-11.667 -41.167 -21 -57.5s-22.333 -32.833 -39 -49.5c-21.333 -21.333 -46.5 -38 -75.5 -50s-61.5 -18 -97.5 -18s-68.5 6 -97.5 18s-54.167 28.667 -75.5 50
c-16.667 16.667 -29.667 33.167 -39 49.5s-16.333 35.5 -21 57.5s-7.66699 47.833 -9 77.5s-2 66.167 -2 109.5s0.666992 79.833 2 109.5s4.33301 55.5 9 77.5s11.667 41.167 21 57.5s22.333 32.833 39 49.5c21.333 21.333 46.5 38 75.5 50s61.5 18 97.5 18
s68.5 -6 97.5 -18s54.167 -28.667 75.5 -50c16.667 -16.667 29.667 -33.167 39 -49.5s16.333 -35.5 21 -57.5s7.66699 -47.833 9 -77.5s2 -66.167 2 -109.5zM516 356c0 37.333 -0.5 69.5 -1.5 96.5s-3.33301 50.333 -7 70s-9.16699 36.834 -16.5 51.501
s-17.333 28.334 -30 41.001c-36.667 36.667 -81.667 55 -135 55s-98.333 -18.333 -135 -55c-12.667 -12.667 -22.667 -26.334 -30 -41.001s-12.833 -31.834 -16.5 -51.501s-6 -43 -7 -70s-1.5 -59.167 -1.5 -96.5s0.5 -69.5 1.5 -96.5s3.33301 -50.333 7 -70
s9.16699 -36.834 16.5 -51.501s17.333 -28.334 30 -41.001c36.667 -36.667 81.667 -55 135 -55s98.333 18.333 135 55c12.667 12.667 22.667 26.334 30 41.001s12.833 31.834 16.5 51.501s6 43 7 70s1.5 59.167 1.5 96.5zM475 843
c-11.333 -11.333 -21.501 -20.3311 -30.501 -26.998s-17.167 -11.5 -24.5 -14.5s-13.666 -4.83301 -18.999 -5.5s-10.333 -1 -15 -1c-11.333 0 -21.833 1.66699 -31.5 5s-22.167 9.66602 -37.5 18.999c-9.33301 5.33301 -18.5 10.166 -27.5 14.499s-18.5 6.5 -28.5 6.5
c-8 0 -16 -1.66699 -24 -5s-19.667 -12.666 -35 -27.999l-30 29c11.333 11.333 21.5 20.333 30.5 27s17 11.5 24 14.5s13.333 4.83301 19 5.5s10.834 1 15.501 1c14.667 0 26.834 -2.16699 36.501 -6.5s20.5 -10.166 32.5 -17.499
c10.667 -6.66699 20.167 -11.834 28.5 -15.501s17.5 -5.5 27.5 -5.5c7.33301 0 15.166 1.66699 23.499 5s20.166 12.666 35.499 27.999l30 -29v0z" />
    <glyph glyph-name="Odieresis" unicode="&#xd6;" horiz-adv-x="652" 
d="M570 356c0 -43.333 -0.666992 -79.833 -2 -109.5s-4.33301 -55.5 -9 -77.5s-11.667 -41.167 -21 -57.5s-22.333 -32.833 -39 -49.5c-21.333 -21.333 -46.5 -38 -75.5 -50s-61.5 -18 -97.5 -18s-68.5 6 -97.5 18s-54.167 28.667 -75.5 50
c-16.667 16.667 -29.667 33.167 -39 49.5s-16.333 35.5 -21 57.5s-7.66699 47.833 -9 77.5s-2 66.167 -2 109.5s0.666992 79.833 2 109.5s4.33301 55.5 9 77.5s11.667 41.167 21 57.5s22.333 32.833 39 49.5c21.333 21.333 46.5 38 75.5 50s61.5 18 97.5 18
s68.5 -6 97.5 -18s54.167 -28.667 75.5 -50c16.667 -16.667 29.667 -33.167 39 -49.5s16.333 -35.5 21 -57.5s7.66699 -47.833 9 -77.5s2 -66.167 2 -109.5zM516 356c0 37.333 -0.5 69.5 -1.5 96.5s-3.33301 50.333 -7 70s-9.16699 36.834 -16.5 51.501
s-17.333 28.334 -30 41.001c-36.667 36.667 -81.667 55 -135 55s-98.333 -18.333 -135 -55c-12.667 -12.667 -22.667 -26.334 -30 -41.001s-12.833 -31.834 -16.5 -51.501s-6 -43 -7 -70s-1.5 -59.167 -1.5 -96.5s0.5 -69.5 1.5 -96.5s3.33301 -50.333 7 -70
s9.16699 -36.834 16.5 -51.501s17.333 -28.334 30 -41.001c36.667 -36.667 81.667 -55 135 -55s98.333 18.333 135 55c12.667 12.667 22.667 26.334 30 41.001s12.833 31.834 16.5 51.501s6 43 7 70s1.5 59.167 1.5 96.5zM193 790v77h58v-77h-58zM401 790v77h58v-77h-58z
" />
    <glyph glyph-name="multiply" unicode="&#xd7;" horiz-adv-x="514" 
d="M412 78l-155 155l-155 -155l-31 31l155 155l-155 155l31 31l155 -155l155 155l31 -31l-155 -155l155 -155z" />
    <glyph glyph-name="Oslash" unicode="&#xd8;" horiz-adv-x="652" 
d="M570 356c0 -43.333 -0.667969 -79.833 -2.00098 -109.5s-4.33301 -55.5 -9 -77.5s-11.667 -41.167 -21 -57.5s-22.333 -32.833 -39 -49.5c-21.333 -21.333 -46.5 -38 -75.5 -50s-61.5 -18 -97.5 -18c-25.333 0 -48.666 3 -69.999 9s-41.333 14.667 -60 26l-35 -73h-53
l49 102c-18 17.333 -32 34.5 -42 51.5s-17.5 36.5 -22.5 58.5s-8 48 -9 78s-1.5 66.667 -1.5 110s0.666992 79.833 2 109.5s4.33301 55.5 9 77.5s11.667 41.167 21 57.5s22.333 32.833 39 49.5c21.333 21.333 46.5 38 75.5 50s61.5 18 97.5 18c24.667 0 48 -3 70 -9
s42 -14.667 60 -26l35 73h53l-49 -102c18 -17.333 32 -34.5 42 -51.5s17.5 -36.5 22.5 -58.5s8 -48 9 -78s1.5 -66.667 1.5 -110zM433.999 637c-32 22 -68 33.002 -108 33.002c-53.333 0 -98.333 -18.333 -135 -55c-12.667 -12.667 -22.667 -26.334 -30 -41.001
s-12.833 -31.834 -16.5 -51.501s-6 -43 -7 -70s-1.5 -59.167 -1.5 -96.5c0 -35.333 0.333008 -65.833 1 -91.5s2.5 -48 5.5 -67s7.5 -35.667 13.5 -50s14.333 -27.5 25 -39.5zM515.999 356.002c0 34.667 -0.5 64.832 -1.5 90.499s-3 48.167 -6 67.5
s-7.5 36.166 -13.5 50.499s-14 27.5 -24 39.5l-253 -529c32 -22 68 -33 108 -33c53.333 0 98.333 18.333 135 55c12.667 12.667 22.667 26.334 30 41.001s12.833 31.834 16.5 51.501s6 43 7 70s1.5 59.167 1.5 96.5z" />
    <glyph glyph-name="Ugrave" unicode="&#xd9;" horiz-adv-x="688" 
d="M588 231c0 -34.667 -5.99805 -66.5 -17.998 -95.5s-28.833 -54 -50.5 -75s-47.334 -37.333 -77.001 -49s-62.5 -17.5 -98.5 -17.5s-68.833 5.83301 -98.5 17.5s-55.334 28 -77.001 49s-38.5 46 -50.5 75s-18 60.833 -18 95.5v481h54v-474
c0 -29.333 4.5 -56.166 13.5 -80.499s21.833 -45 38.5 -62s36.667 -30.167 60 -39.5s49.333 -14 78 -14s54.667 4.66699 78 14s43.333 22.5 60 39.5s29.5 37.667 38.5 62s13.5 51.166 13.5 80.499v474h54v-481zM333.002 780l-106 147h67l97 -147h-58z" />
    <glyph glyph-name="Uacute" unicode="&#xda;" horiz-adv-x="688" 
d="M588 231c0 -34.667 -5.99805 -66.5 -17.998 -95.5s-28.833 -54 -50.5 -75s-47.334 -37.333 -77.001 -49s-62.5 -17.5 -98.5 -17.5s-68.833 5.83301 -98.5 17.5s-55.334 28 -77.001 49s-38.5 46 -50.5 75s-18 60.833 -18 95.5v481h54v-474
c0 -29.333 4.5 -56.166 13.5 -80.499s21.833 -45 38.5 -62s36.667 -30.167 60 -39.5s49.333 -14 78 -14s54.667 4.66699 78 14s43.333 22.5 60 39.5s29.5 37.667 38.5 62s13.5 51.166 13.5 80.499v474h54v-481zM355.002 780h-58l97 147h67z" />
    <glyph glyph-name="Ucircumflex" unicode="&#xdb;" horiz-adv-x="688" 
d="M588 231c0 -34.667 -5.99805 -66.5 -17.998 -95.5s-28.833 -54 -50.5 -75s-47.334 -37.333 -77.001 -49s-62.5 -17.5 -98.5 -17.5s-68.833 5.83301 -98.5 17.5s-55.334 28 -77.001 49s-38.5 46 -50.5 75s-18 60.833 -18 95.5v481h54v-474
c0 -29.333 4.5 -56.166 13.5 -80.499s21.833 -45 38.5 -62s36.667 -30.167 60 -39.5s49.333 -14 78 -14s54.667 4.66699 78 14s43.333 22.5 60 39.5s29.5 37.667 38.5 62s13.5 51.166 13.5 80.499v474h54v-481zM437.002 780l-93 109l-93 -109h-57l123 147h54l123 -147h-57z
" />
    <glyph glyph-name="Udieresis" unicode="&#xdc;" horiz-adv-x="688" 
d="M588 231c0 -34.667 -5.99805 -66.5 -17.998 -95.5s-28.833 -54 -50.5 -75s-47.334 -37.333 -77.001 -49s-62.5 -17.5 -98.5 -17.5s-68.833 5.83301 -98.5 17.5s-55.334 28 -77.001 49s-38.5 46 -50.5 75s-18 60.833 -18 95.5v481h54v-474
c0 -29.333 4.5 -56.166 13.5 -80.499s21.833 -45 38.5 -62s36.667 -30.167 60 -39.5s49.333 -14 78 -14s54.667 4.66699 78 14s43.333 22.5 60 39.5s29.5 37.667 38.5 62s13.5 51.166 13.5 80.499v474h54v-481zM211.002 790v77h58v-77h-58zM419.002 790v77h58v-77h-58z" />
    <glyph glyph-name="Yacute" unicode="&#xdd;" horiz-adv-x="494" 
d="M274 295v-295h-54v295l-210 417h58l181 -360l177 360h58zM259 780h-58l97 147h67z" />
    <glyph glyph-name="Thorn" unicode="&#xde;" horiz-adv-x="646" 
d="M586 359c0 -32.667 -5.5 -61.667 -16.5 -87s-26 -46.833 -45 -64.5s-41.667 -31 -68 -40s-54.833 -13.5 -85.5 -13.5h-207v-154h-54v712h54v-148h207c30.667 0 59.167 -4.5 85.5 -13.5s49 -22.333 68 -40s34 -39.167 45 -64.5s16.5 -54.333 16.5 -87zM532 359
c0 53.333 -15.5 92.833 -46.5 118.5s-71.167 38.5 -120.5 38.5h-201v-314h201c49.333 0 89.5 12.833 120.5 38.5s46.5 65.167 46.5 118.5z" />
    <glyph glyph-name="germandbls" unicode="&#xdf;" horiz-adv-x="550" 
d="M473 134c0 -21.333 -3.50391 -40.502 -10.5039 -57.502s-16.5 -31.167 -28.5 -42.5c-13.333 -12 -27.166 -20.667 -41.499 -26s-32.166 -8 -53.499 -8h-54v45h44c16 0 28.5 1.83301 37.5 5.5s18.167 9.16699 27.5 16.5c18.667 14.667 28 39 28 73v178
c0 16 -1.66699 29.333 -5 40s-9.33301 20 -18 28c-15.333 15.333 -37 23 -65 23h-49v45h39c30 0 53.833 9.33301 71.5 28s26.5 43.334 26.5 74.001c0 16.667 -2.83301 32.167 -8.5 46.5s-14.5 27.166 -26.5 38.499c-23.333 21.333 -58 32 -104 32
c-48 0 -82.5 -13.833 -103.5 -41.5s-31.5 -63.5 -31.5 -107.5v-524h-51v524c0 60.667 16.833 108.167 50.5 142.5s80.834 51.5 141.501 51.5c24.667 0 48.167 -3.16699 70.5 -9.5s41.833 -16.166 58.5 -29.499s29.834 -30.166 39.501 -50.499s14.5 -44.5 14.5 -72.5
c0 -53.333 -21 -94 -63 -122c26 -13.333 43.167 -29.333 51.5 -48s12.5 -44 12.5 -76v-176z" />
    <glyph glyph-name="agrave" unicode="&#xe0;" horiz-adv-x="524" 
d="M380 0v48.001c-20.667 -20.667 -41.834 -34.834 -63.501 -42.501s-49.5 -11.5 -83.5 -11.5c-36 0 -64.833 3.33301 -86.5 10s-40.167 18 -55.5 34c-11.333 11.333 -20 25.333 -26 42s-9 34 -9 52c0 44 14.833 78.167 44.5 102.5s70.834 36.5 123.501 36.5h156v54
c0 38.667 -10.167 68 -30.5 88s-55.5 30 -105.5 30c-34 0 -60.833 -4.66699 -80.5 -14s-37.167 -25 -52.5 -47l-37 32c20.667 28.667 44.167 48.167 70.5 58.5s59.5 15.5 99.5 15.5c64.667 0 112 -13.667 142 -41s45 -66.333 45 -117v-330h-51zM380 230.001
l-149.999 -0.000976562c-82 0 -123 -32.333 -123 -97c0 -32 10 -55.667 30 -71s52 -23 96 -23c22 0 43.167 2 63.5 6s39.166 14.333 56.499 31c18 16.667 27 47.334 27 92.001v62zM239.001 590l-106 147h67l97 -147h-58z" />
    <glyph glyph-name="aacute" unicode="&#xe1;" horiz-adv-x="524" 
d="M380 0v48.001c-20.667 -20.667 -41.834 -34.834 -63.501 -42.501s-49.5 -11.5 -83.5 -11.5c-36 0 -64.833 3.33301 -86.5 10s-40.167 18 -55.5 34c-11.333 11.333 -20 25.333 -26 42s-9 34 -9 52c0 44 14.833 78.167 44.5 102.5s70.834 36.5 123.501 36.5h156v54
c0 38.667 -10.167 68 -30.5 88s-55.5 30 -105.5 30c-34 0 -60.833 -4.66699 -80.5 -14s-37.167 -25 -52.5 -47l-37 32c20.667 28.667 44.167 48.167 70.5 58.5s59.5 15.5 99.5 15.5c64.667 0 112 -13.667 142 -41s45 -66.333 45 -117v-330h-51zM380 230.001
l-149.999 -0.000976562c-82 0 -123 -32.333 -123 -97c0 -32 10 -55.667 30 -71s52 -23 96 -23c22 0 43.167 2 63.5 6s39.166 14.333 56.499 31c18 16.667 27 47.334 27 92.001v62zM261.001 590h-58l97 147h67z" />
    <glyph glyph-name="acircumflex" unicode="&#xe2;" horiz-adv-x="524" 
d="M380 0v48.001c-20.667 -20.667 -41.834 -34.834 -63.501 -42.501s-49.5 -11.5 -83.5 -11.5c-36 0 -64.833 3.33301 -86.5 10s-40.167 18 -55.5 34c-11.333 11.333 -20 25.333 -26 42s-9 34 -9 52c0 44 14.833 78.167 44.5 102.5s70.834 36.5 123.501 36.5h156v54
c0 38.667 -10.167 68 -30.5 88s-55.5 30 -105.5 30c-34 0 -60.833 -4.66699 -80.5 -14s-37.167 -25 -52.5 -47l-37 32c20.667 28.667 44.167 48.167 70.5 58.5s59.5 15.5 99.5 15.5c64.667 0 112 -13.667 142 -41s45 -66.333 45 -117v-330h-51zM380 230.001
l-149.999 -0.000976562c-82 0 -123 -32.333 -123 -97c0 -32 10 -55.667 30 -71s52 -23 96 -23c22 0 43.167 2 63.5 6s39.166 14.333 56.499 31c18 16.667 27 47.334 27 92.001v62zM343.001 590l-93 109l-93 -109h-57l123 147h54l123 -147h-57z" />
    <glyph glyph-name="atilde" unicode="&#xe3;" horiz-adv-x="524" 
d="M380 0v48.001c-20.667 -20.667 -41.834 -34.834 -63.501 -42.501s-49.5 -11.5 -83.5 -11.5c-36 0 -64.833 3.33301 -86.5 10s-40.167 18 -55.5 34c-11.333 11.333 -20 25.333 -26 42s-9 34 -9 52c0 44 14.833 78.167 44.5 102.5s70.834 36.5 123.501 36.5h156v54
c0 38.667 -10.167 68 -30.5 88s-55.5 30 -105.5 30c-34 0 -60.833 -4.66699 -80.5 -14s-37.167 -25 -52.5 -47l-37 32c20.667 28.667 44.167 48.167 70.5 58.5s59.5 15.5 99.5 15.5c64.667 0 112 -13.667 142 -41s45 -66.333 45 -117v-330h-51zM380 230.001
l-149.999 -0.000976562c-82 0 -123 -32.333 -123 -97c0 -32 10 -55.667 30 -71s52 -23 96 -23c22 0 43.167 2 63.5 6s39.166 14.333 56.499 31c18 16.667 27 47.334 27 92.001v62zM399.001 653c-11.333 -11.333 -21.501 -20.3311 -30.501 -26.998s-17.167 -11.5 -24.5 -14.5
s-13.666 -4.83301 -18.999 -5.5s-10.333 -1 -15 -1c-11.333 0 -21.833 1.66699 -31.5 5s-22.167 9.66602 -37.5 18.999c-9.33301 5.33301 -18.5 10.166 -27.5 14.499s-18.5 6.5 -28.5 6.5c-8 0 -16 -1.66699 -24 -5s-19.667 -12.666 -35 -27.999l-30 29
c11.333 11.333 21.5 20.333 30.5 27s17 11.5 24 14.5s13.333 4.83301 19 5.5s10.834 1 15.501 1c14.667 0 26.834 -2.16699 36.501 -6.5s20.5 -10.166 32.5 -17.499c10.667 -6.66699 20.167 -11.834 28.5 -15.501s17.5 -5.5 27.5 -5.5c7.33301 0 15.166 1.66699 23.499 5
s20.166 12.666 35.499 27.999l30 -29v0z" />
    <glyph glyph-name="adieresis" unicode="&#xe4;" horiz-adv-x="524" 
d="M380 0v48.001c-20.667 -20.667 -41.834 -34.834 -63.501 -42.501s-49.5 -11.5 -83.5 -11.5c-36 0 -64.833 3.33301 -86.5 10s-40.167 18 -55.5 34c-11.333 11.333 -20 25.333 -26 42s-9 34 -9 52c0 44 14.833 78.167 44.5 102.5s70.834 36.5 123.501 36.5h156v54
c0 38.667 -10.167 68 -30.5 88s-55.5 30 -105.5 30c-34 0 -60.833 -4.66699 -80.5 -14s-37.167 -25 -52.5 -47l-37 32c20.667 28.667 44.167 48.167 70.5 58.5s59.5 15.5 99.5 15.5c64.667 0 112 -13.667 142 -41s45 -66.333 45 -117v-330h-51zM380 230.001
l-149.999 -0.000976562c-82 0 -123 -32.333 -123 -97c0 -32 10 -55.667 30 -71s52 -23 96 -23c22 0 43.167 2 63.5 6s39.166 14.333 56.499 31c18 16.667 27 47.334 27 92.001v62zM117.001 600v77h58v-77h-58zM325.001 600v77h58v-77h-58z" />
    <glyph glyph-name="aring" unicode="&#xe5;" horiz-adv-x="524" 
d="M380 0v48.001c-20.667 -20.667 -41.834 -34.834 -63.501 -42.501s-49.5 -11.5 -83.5 -11.5c-36 0 -64.833 3.33301 -86.5 10s-40.167 18 -55.5 34c-11.333 11.333 -20 25.333 -26 42s-9 34 -9 52c0 44 14.833 78.167 44.5 102.5s70.834 36.5 123.501 36.5h156v54
c0 38.667 -10.167 68 -30.5 88s-55.5 30 -105.5 30c-34 0 -60.833 -4.66699 -80.5 -14s-37.167 -25 -52.5 -47l-37 32c20.667 28.667 44.167 48.167 70.5 58.5s59.5 15.5 99.5 15.5c64.667 0 112 -13.667 142 -41s45 -66.333 45 -117v-330h-51zM380 230.001
l-149.999 -0.000976562c-82 0 -123 -32.333 -123 -97c0 -32 10 -55.667 30 -71s52 -23 96 -23c22 0 43.167 2 63.5 6s39.166 14.333 56.499 31c18 16.667 27 47.334 27 92.001v62zM363.001 677c0 -16 -3 -30.833 -9 -44.5s-14.167 -25.834 -24.5 -36.501
s-22.333 -19 -36 -25s-28.5 -9 -44.5 -9s-30.833 3 -44.5 9s-25.667 14.333 -36 25s-18.5 22.834 -24.5 36.501s-9 28.5 -9 44.5s3 30.833 9 44.5s14.167 25.667 24.5 36s22.333 18.5 36 24.5s28.5 9 44.5 9s30.833 -3 44.5 -9s25.667 -14.167 36 -24.5
s18.5 -22.333 24.5 -36s9 -28.5 9 -44.5zM322.001 677c0 20 -7.16699 37 -21.5 51s-31.5 21 -51.5 21s-37.167 -7 -51.5 -21s-21.5 -31 -21.5 -51s7.16699 -37.167 21.5 -51.5s31.5 -21.5 51.5 -21.5s37.167 7.16699 51.5 21.5s21.5 31.5 21.5 51.5z" />
    <glyph glyph-name="ae" unicode="&#xe6;" horiz-adv-x="834" 
d="M431 230c0 -62 13.1631 -109.166 39.4961 -141.499s65.5 -48.5 117.5 -48.5c28.667 0 52.834 4.5 72.501 13.5s39.834 23.833 60.501 44.5l38 -30c-24.667 -24.667 -50 -43.167 -76 -55.5s-59 -18.5 -99 -18.5c-82 0 -139.333 30 -172 90
c-20 -32.667 -43.667 -55.834 -71 -69.501s-63.333 -20.5 -108 -20.5c-36 0 -64.833 3.33301 -86.5 10s-40.167 18 -55.5 34c-11.333 11.333 -20 25.333 -26 42s-9 34 -9 52c0 44 14.833 78.167 44.5 102.5s70.834 36.5 123.501 36.5h156v54c0 38.667 -10.167 68 -30.5 88
s-55.5 30 -105.5 30c-34 0 -60.833 -4.66699 -80.5 -14s-37.167 -25 -52.5 -47l-37 32c20.667 28.667 44.167 48.167 70.5 58.5s59.5 15.5 99.5 15.5c90.667 0 148.334 -28.333 173.001 -85c33.333 56.667 85.333 85 156 85c60.667 0 108 -20.5 142 -61.5
s51 -98.833 51 -173.5v-23h-335zM229.996 230.001c-82 0 -122.999 -32.334 -122.999 -97.001c0 -32 10 -55.667 30 -71s52 -23 96 -23c22 0 43.167 2 63.5 6s39.166 14.333 56.499 31c18 16.667 27 47.334 27 92.001v62h-150zM714.997 271
c-0.666992 11.333 -1.33203 21.168 -1.99902 29.501s-1.5 15.833 -2.5 22.5s-2.5 13 -4.5 19s-4.66699 12.667 -8 20c-10.667 25.333 -27.167 45.166 -49.5 59.499s-47.5 21.5 -75.5 21.5s-53.333 -7 -76 -21s-39 -34 -49 -60c-3.33301 -8 -5.83301 -15 -7.5 -21
s-3.16699 -12.167 -4.5 -18.5s-2.33301 -13.5 -3 -21.5s-1.33398 -18 -2.00098 -30h284z" />
    <glyph glyph-name="ccedilla" unicode="&#xe7;" horiz-adv-x="493" 
d="M440 68c-25.333 -28.667 -50 -48.165 -74 -58.498s-52.333 -15.5 -85 -15.5c-33.333 0 -63 5.66699 -89 17s-48.167 27.666 -66.5 48.999s-32.333 47.333 -42 78s-14.5 65 -14.5 103s4.83301 72.333 14.5 103s23.667 56.667 42 78s40.5 37.666 66.5 48.999
s55.667 17 89 17c32.667 0 61 -5.16699 85 -15.5s48.667 -29.833 74 -58.5l-35 -32c-20.667 22.667 -40.167 38.5 -58.5 47.5s-40.166 13.5 -65.499 13.5c-56.667 0 -99.334 -21.333 -128.001 -64c-12 -17.333 -20.5 -36.5 -25.5 -57.5s-7.5 -47.833 -7.5 -80.5
s2.5 -59.5 7.5 -80.5s13.5 -40.167 25.5 -57.5c28.667 -42.667 71.334 -64 128.001 -64c25.333 0 47.166 4.5 65.499 13.5s37.833 24.833 58.5 47.5zM244 -219.998h-63l72 150h55z" />
    <glyph glyph-name="egrave" unicode="&#xe8;" horiz-adv-x="523" 
d="M120 230c0 -62 13.165 -109.168 39.498 -141.501s65.5 -48.5 117.5 -48.5c28.667 0 52.834 4.5 72.501 13.5s39.834 23.833 60.501 44.5l38 -30c-12 -12 -24.167 -22.667 -36.5 -32s-25.333 -17.166 -39 -23.499s-28.5 -11 -44.5 -14s-34 -4.5 -54 -4.5
c-66.667 0 -117.5 21 -152.5 63s-52.5 103.333 -52.5 184c0 78.667 17 139.5 51 182.5s81.333 64.5 142 64.5s108 -20.5 142 -61.5s51 -98.833 51 -173.5v-23h-335zM403.998 270.999c-0.666992 11.333 -1.33203 21.166 -1.99902 29.499s-1.5 15.833 -2.5 22.5
s-2.5 13 -4.5 19s-4.66699 12.667 -8 20c-10.667 25.333 -27.167 45.166 -49.5 59.499s-47.5 21.5 -75.5 21.5s-53 -7.16699 -75 -21.5s-38.667 -34.166 -50 -59.499c-3.33301 -7.33301 -6 -14 -8 -20s-3.5 -12.333 -4.5 -19s-1.83301 -14.167 -2.5 -22.5
s-1.33398 -18.166 -2.00098 -29.499h284zM253 589.999l-106 147h67l97 -147h-58z" />
    <glyph glyph-name="eacute" unicode="&#xe9;" horiz-adv-x="523" 
d="M120 230c0 -62 13.165 -109.168 39.498 -141.501s65.5 -48.5 117.5 -48.5c28.667 0 52.834 4.5 72.501 13.5s39.834 23.833 60.501 44.5l38 -30c-12 -12 -24.167 -22.667 -36.5 -32s-25.333 -17.166 -39 -23.499s-28.5 -11 -44.5 -14s-34 -4.5 -54 -4.5
c-66.667 0 -117.5 21 -152.5 63s-52.5 103.333 -52.5 184c0 78.667 17 139.5 51 182.5s81.333 64.5 142 64.5s108 -20.5 142 -61.5s51 -98.833 51 -173.5v-23h-335zM403.998 270.999c-0.666992 11.333 -1.33203 21.166 -1.99902 29.499s-1.5 15.833 -2.5 22.5
s-2.5 13 -4.5 19s-4.66699 12.667 -8 20c-10.667 25.333 -27.167 45.166 -49.5 59.499s-47.5 21.5 -75.5 21.5s-53 -7.16699 -75 -21.5s-38.667 -34.166 -50 -59.499c-3.33301 -7.33301 -6 -14 -8 -20s-3.5 -12.333 -4.5 -19s-1.83301 -14.167 -2.5 -22.5
s-1.33398 -18.166 -2.00098 -29.499h284zM275 589.999h-58l97 147h67z" />
    <glyph glyph-name="ecircumflex" unicode="&#xea;" horiz-adv-x="523" 
d="M120 230c0 -62 13.165 -109.168 39.498 -141.501s65.5 -48.5 117.5 -48.5c28.667 0 52.834 4.5 72.501 13.5s39.834 23.833 60.501 44.5l38 -30c-12 -12 -24.167 -22.667 -36.5 -32s-25.333 -17.166 -39 -23.499s-28.5 -11 -44.5 -14s-34 -4.5 -54 -4.5
c-66.667 0 -117.5 21 -152.5 63s-52.5 103.333 -52.5 184c0 78.667 17 139.5 51 182.5s81.333 64.5 142 64.5s108 -20.5 142 -61.5s51 -98.833 51 -173.5v-23h-335zM403.998 270.999c-0.666992 11.333 -1.33203 21.166 -1.99902 29.499s-1.5 15.833 -2.5 22.5
s-2.5 13 -4.5 19s-4.66699 12.667 -8 20c-10.667 25.333 -27.167 45.166 -49.5 59.499s-47.5 21.5 -75.5 21.5s-53 -7.16699 -75 -21.5s-38.667 -34.166 -50 -59.499c-3.33301 -7.33301 -6 -14 -8 -20s-3.5 -12.333 -4.5 -19s-1.83301 -14.167 -2.5 -22.5
s-1.33398 -18.166 -2.00098 -29.499h284zM357 589.999l-93 109l-93 -109h-57l123 147h54l123 -147h-57z" />
    <glyph glyph-name="edieresis" unicode="&#xeb;" horiz-adv-x="523" 
d="M120 230c0 -62 13.165 -109.168 39.498 -141.501s65.5 -48.5 117.5 -48.5c28.667 0 52.834 4.5 72.501 13.5s39.834 23.833 60.501 44.5l38 -30c-12 -12 -24.167 -22.667 -36.5 -32s-25.333 -17.166 -39 -23.499s-28.5 -11 -44.5 -14s-34 -4.5 -54 -4.5
c-66.667 0 -117.5 21 -152.5 63s-52.5 103.333 -52.5 184c0 78.667 17 139.5 51 182.5s81.333 64.5 142 64.5s108 -20.5 142 -61.5s51 -98.833 51 -173.5v-23h-335zM403.998 270.999c-0.666992 11.333 -1.33203 21.166 -1.99902 29.499s-1.5 15.833 -2.5 22.5
s-2.5 13 -4.5 19s-4.66699 12.667 -8 20c-10.667 25.333 -27.167 45.166 -49.5 59.499s-47.5 21.5 -75.5 21.5s-53 -7.16699 -75 -21.5s-38.667 -34.166 -50 -59.499c-3.33301 -7.33301 -6 -14 -8 -20s-3.5 -12.333 -4.5 -19s-1.83301 -14.167 -2.5 -22.5
s-1.33398 -18.166 -2.00098 -29.499h284zM131 599.999v77h58v-77h-58zM339 599.999v77h58v-77h-58z" />
    <glyph glyph-name="igrave" unicode="&#xec;" horiz-adv-x="245" 
d="M97 0v482h51v-482h-51zM91 590l-106 147h67l97 -147h-58z" />
    <glyph glyph-name="iacute" unicode="&#xed;" horiz-adv-x="245" 
d="M97 0v482h51v-482h-51zM156 590h-58l97 147h67z" />
    <glyph glyph-name="icircumflex" unicode="&#xee;" horiz-adv-x="245" 
d="M97 0v482h51v-482h-51zM216 590l-93 109l-93 -109h-57l123 147h54l123 -147h-57z" />
    <glyph glyph-name="idieresis" unicode="&#xef;" horiz-adv-x="245" 
d="M97 0v482h51v-482h-51zM-10 600v77h58v-77h-58zM198 600v77h58v-77h-58z" />
    <glyph glyph-name="eth" unicode="&#xf0;" horiz-adv-x="526" 
d="M457 241c0 -34.667 -3.66602 -69.335 -10.999 -104.002s-23.666 -64.667 -48.999 -90c-35.333 -35.333 -80 -53 -134 -53s-98.667 17.667 -134 53c-25.333 25.333 -41.666 55.333 -48.999 90s-11 69.334 -11 104.001s3.66699 69.334 11 104.001s23.666 64.667 48.999 90
c35.333 35.333 80 53 134 53c12.667 0 25.834 -1.33301 39.501 -4s25.5 -7 35.5 -13l-67 113h-117v38h95l-53 90h53l52 -90h79v-38h-57l72 -123c13.333 -23.333 24.166 -44 32.499 -62s14.666 -35.167 18.999 -51.5s7.16602 -32.833 8.49902 -49.5s2 -35.667 2 -57z
M406.001 240.999c0 14 -0.333008 28.333 -1 43s-2.5 29.167 -5.5 43.5s-7.33301 27.833 -13 40.5s-13.5 24 -23.5 34c-27.333 27.333 -60.666 41 -99.999 41s-72.666 -13.667 -99.999 -41c-10 -10 -17.833 -21.333 -23.5 -34s-10 -26.167 -13 -40.5
s-4.83301 -28.833 -5.5 -43.5s-1 -29 -1 -43s0.333008 -28.333 1 -43s2.5 -29.167 5.5 -43.5s7.33301 -27.833 13 -40.5s13.5 -24 23.5 -34c27.333 -27.333 60.666 -41 99.999 -41s72.666 13.667 99.999 41c10 10 17.833 21.333 23.5 34s10 26.167 13 40.5
s4.83301 28.833 5.5 43.5s1 29 1 43z" />
    <glyph glyph-name="ntilde" unicode="&#xf1;" 
d="M417 0v298.999c0 46.667 -11.167 82.334 -33.5 107.001s-55.5 37 -99.5 37s-77.667 -12.5 -101 -37.5s-35 -60.5 -35 -106.5v-299h-51v482h51v-57c36 42 83.333 63 142 63c54 0 96.667 -15.333 128 -46c33.333 -32 50 -76.667 50 -134v-308h-51zM433 652.999
c-11.333 -11.333 -21.501 -20.3311 -30.501 -26.998s-17.167 -11.5 -24.5 -14.5s-13.666 -4.83301 -18.999 -5.5s-10.333 -1 -15 -1c-11.333 0 -21.833 1.66699 -31.5 5s-22.167 9.66602 -37.5 18.999c-9.33301 5.33301 -18.5 10.166 -27.5 14.499s-18.5 6.5 -28.5 6.5
c-8 0 -16 -1.66699 -24 -5s-19.667 -12.666 -35 -27.999l-30 29c11.333 11.333 21.5 20.333 30.5 27s17 11.5 24 14.5s13.333 4.83301 19 5.5s10.834 1 15.501 1c14.667 0 26.834 -2.16699 36.501 -6.5s20.5 -10.166 32.5 -17.499
c10.667 -6.66699 20.167 -11.834 28.5 -15.501s17.5 -5.5 27.5 -5.5c7.33301 0 15.166 1.66699 23.499 5s20.166 12.666 35.499 27.999l30 -29v0z" />
    <glyph glyph-name="ograve" unicode="&#xf2;" horiz-adv-x="526" 
d="M457 241c0 -34.667 -3.66699 -69.334 -11 -104.001s-23.666 -64.667 -48.999 -90c-35.333 -35.333 -80 -53 -134 -53s-98.667 17.667 -134 53c-25.333 25.333 -41.666 55.333 -48.999 90s-11 69.334 -11 104.001s3.66699 69.334 11 104.001s23.666 64.667 48.999 90
c35.333 35.333 80 53 134 53s98.667 -17.667 134 -53c25.333 -25.333 41.666 -55.333 48.999 -90s11 -69.334 11 -104.001zM406 241c0 14 -0.333008 28.333 -1 43s-2.5 29.167 -5.5 43.5s-7.33301 27.833 -13 40.5s-13.5 24 -23.5 34c-27.333 27.333 -60.666 41 -99.999 41
s-72.666 -13.667 -99.999 -41c-10 -10 -17.833 -21.333 -23.5 -34s-10 -26.167 -13 -40.5s-4.83301 -28.833 -5.5 -43.5s-1 -29 -1 -43s0.333008 -28.333 1 -43s2.5 -29.167 5.5 -43.5s7.33301 -27.833 13 -40.5s13.5 -24 23.5 -34c27.333 -27.333 60.666 -41 99.999 -41
s72.666 13.667 99.999 41c10 10 17.833 21.333 23.5 34s10 26.167 13 40.5s4.83301 28.833 5.5 43.5s1 29 1 43zM257 590l-106 147h67l97 -147h-58z" />
    <glyph glyph-name="oacute" unicode="&#xf3;" horiz-adv-x="526" 
d="M457 241c0 -34.667 -3.66699 -69.334 -11 -104.001s-23.666 -64.667 -48.999 -90c-35.333 -35.333 -80 -53 -134 -53s-98.667 17.667 -134 53c-25.333 25.333 -41.666 55.333 -48.999 90s-11 69.334 -11 104.001s3.66699 69.334 11 104.001s23.666 64.667 48.999 90
c35.333 35.333 80 53 134 53s98.667 -17.667 134 -53c25.333 -25.333 41.666 -55.333 48.999 -90s11 -69.334 11 -104.001zM406 241c0 14 -0.333008 28.333 -1 43s-2.5 29.167 -5.5 43.5s-7.33301 27.833 -13 40.5s-13.5 24 -23.5 34c-27.333 27.333 -60.666 41 -99.999 41
s-72.666 -13.667 -99.999 -41c-10 -10 -17.833 -21.333 -23.5 -34s-10 -26.167 -13 -40.5s-4.83301 -28.833 -5.5 -43.5s-1 -29 -1 -43s0.333008 -28.333 1 -43s2.5 -29.167 5.5 -43.5s7.33301 -27.833 13 -40.5s13.5 -24 23.5 -34c27.333 -27.333 60.666 -41 99.999 -41
s72.666 13.667 99.999 41c10 10 17.833 21.333 23.5 34s10 26.167 13 40.5s4.83301 28.833 5.5 43.5s1 29 1 43zM274 590h-58l97 147h67z" />
    <glyph glyph-name="ocircumflex" unicode="&#xf4;" horiz-adv-x="526" 
d="M457 241c0 -34.667 -3.66699 -69.334 -11 -104.001s-23.666 -64.667 -48.999 -90c-35.333 -35.333 -80 -53 -134 -53s-98.667 17.667 -134 53c-25.333 25.333 -41.666 55.333 -48.999 90s-11 69.334 -11 104.001s3.66699 69.334 11 104.001s23.666 64.667 48.999 90
c35.333 35.333 80 53 134 53s98.667 -17.667 134 -53c25.333 -25.333 41.666 -55.333 48.999 -90s11 -69.334 11 -104.001zM406 241c0 14 -0.333008 28.333 -1 43s-2.5 29.167 -5.5 43.5s-7.33301 27.833 -13 40.5s-13.5 24 -23.5 34c-27.333 27.333 -60.666 41 -99.999 41
s-72.666 -13.667 -99.999 -41c-10 -10 -17.833 -21.333 -23.5 -34s-10 -26.167 -13 -40.5s-4.83301 -28.833 -5.5 -43.5s-1 -29 -1 -43s0.333008 -28.333 1 -43s2.5 -29.167 5.5 -43.5s7.33301 -27.833 13 -40.5s13.5 -24 23.5 -34c27.333 -27.333 60.666 -41 99.999 -41
s72.666 13.667 99.999 41c10 10 17.833 21.333 23.5 34s10 26.167 13 40.5s4.83301 28.833 5.5 43.5s1 29 1 43zM356 590l-93 109l-93 -109h-57l123 147h54l123 -147h-57z" />
    <glyph glyph-name="otilde" unicode="&#xf5;" horiz-adv-x="526" 
d="M457 241c0 -34.667 -3.66699 -69.334 -11 -104.001s-23.666 -64.667 -48.999 -90c-35.333 -35.333 -80 -53 -134 -53s-98.667 17.667 -134 53c-25.333 25.333 -41.666 55.333 -48.999 90s-11 69.334 -11 104.001s3.66699 69.334 11 104.001s23.666 64.667 48.999 90
c35.333 35.333 80 53 134 53s98.667 -17.667 134 -53c25.333 -25.333 41.666 -55.333 48.999 -90s11 -69.334 11 -104.001zM406 241c0 14 -0.333008 28.333 -1 43s-2.5 29.167 -5.5 43.5s-7.33301 27.833 -13 40.5s-13.5 24 -23.5 34c-27.333 27.333 -60.666 41 -99.999 41
s-72.666 -13.667 -99.999 -41c-10 -10 -17.833 -21.333 -23.5 -34s-10 -26.167 -13 -40.5s-4.83301 -28.833 -5.5 -43.5s-1 -29 -1 -43s0.333008 -28.333 1 -43s2.5 -29.167 5.5 -43.5s7.33301 -27.833 13 -40.5s13.5 -24 23.5 -34c27.333 -27.333 60.666 -41 99.999 -41
s72.666 13.667 99.999 41c10 10 17.833 21.333 23.5 34s10 26.167 13 40.5s4.83301 28.833 5.5 43.5s1 29 1 43zM412 653c-11.333 -11.333 -21.501 -20.3311 -30.501 -26.998s-17.167 -11.5 -24.5 -14.5s-13.666 -4.83301 -18.999 -5.5s-10.333 -1 -15 -1
c-11.333 0 -21.833 1.66699 -31.5 5s-22.167 9.66602 -37.5 18.999c-9.33301 5.33301 -18.5 10.166 -27.5 14.499s-18.5 6.5 -28.5 6.5c-8 0 -16 -1.66699 -24 -5s-19.667 -12.666 -35 -27.999l-30 29c11.333 11.333 21.5 20.333 30.5 27s17 11.5 24 14.5
s13.333 4.83301 19 5.5s10.834 1 15.501 1c14.667 0 26.834 -2.16699 36.501 -6.5s20.5 -10.166 32.5 -17.499c10.667 -6.66699 20.167 -11.834 28.5 -15.501s17.5 -5.5 27.5 -5.5c7.33301 0 15.166 1.66699 23.499 5s20.166 12.666 35.499 27.999l30 -29v0z" />
    <glyph glyph-name="odieresis" unicode="&#xf6;" horiz-adv-x="526" 
d="M457 241c0 -34.667 -3.66699 -69.334 -11 -104.001s-23.666 -64.667 -48.999 -90c-35.333 -35.333 -80 -53 -134 -53s-98.667 17.667 -134 53c-25.333 25.333 -41.666 55.333 -48.999 90s-11 69.334 -11 104.001s3.66699 69.334 11 104.001s23.666 64.667 48.999 90
c35.333 35.333 80 53 134 53s98.667 -17.667 134 -53c25.333 -25.333 41.666 -55.333 48.999 -90s11 -69.334 11 -104.001zM406 241c0 14 -0.333008 28.333 -1 43s-2.5 29.167 -5.5 43.5s-7.33301 27.833 -13 40.5s-13.5 24 -23.5 34c-27.333 27.333 -60.666 41 -99.999 41
s-72.666 -13.667 -99.999 -41c-10 -10 -17.833 -21.333 -23.5 -34s-10 -26.167 -13 -40.5s-4.83301 -28.833 -5.5 -43.5s-1 -29 -1 -43s0.333008 -28.333 1 -43s2.5 -29.167 5.5 -43.5s7.33301 -27.833 13 -40.5s13.5 -24 23.5 -34c27.333 -27.333 60.666 -41 99.999 -41
s72.666 13.667 99.999 41c10 10 17.833 21.333 23.5 34s10 26.167 13 40.5s4.83301 28.833 5.5 43.5s1 29 1 43zM130 600v77h58v-77h-58zM338 600v77h58v-77h-58z" />
    <glyph glyph-name="divide" unicode="&#xf7;" horiz-adv-x="514" 
d="M222 130h70v-70h-70v70zM53 287h408v-47h-408v47zM222 467h70v-70h-70v70z" />
    <glyph glyph-name="oslash" unicode="&#xf8;" horiz-adv-x="526" 
d="M457 241c0 -34.667 -3.66699 -69.334 -11 -104.001s-23.666 -64.667 -48.999 -90c-35.333 -35.333 -80 -53 -134 -53c-38.667 0 -73.667 9.66699 -105 29l-40 -67h-48l56 94c-24 25.333 -39.5 55 -46.5 89s-10.5 68 -10.5 102c0 34.667 3.66699 69.334 11 104.001
s23.666 64.667 48.999 90c35.333 35.333 80 53 134 53c40 0 75 -10 105 -30l40 68h48l-56 -94c24 -25.333 39.5 -55 46.5 -89s10.5 -68 10.5 -102zM344 418c-23.333 16.667 -50.334 24.999 -81.001 24.999c-39.333 0 -72.666 -13.667 -99.999 -41
c-10 -10 -17.833 -21.333 -23.5 -34s-10 -26.167 -13 -40.5s-4.83301 -28.833 -5.5 -43.5s-1 -29 -1 -43c0 -25.333 1.5 -51.166 4.5 -77.499s12.167 -49.833 27.5 -70.5zM405.999 240.999c0 25.333 -1.49902 51.167 -4.49902 77.5s-12.167 49.833 -27.5 70.5l-192 -325
c23.333 -16.667 50.333 -25 81 -25c39.333 0 72.666 13.667 99.999 41c10 10 17.833 21.333 23.5 34s10 26.167 13 40.5s4.83301 28.833 5.5 43.5s1 29 1 43z" />
    <glyph glyph-name="ugrave" unicode="&#xf9;" 
d="M411 0v57.001c-36 -42 -83.333 -63 -142 -63c-54 0 -96.667 15.333 -128 46c-33.333 32 -50 76.667 -50 134v308h51v-299c0 -46.667 11.167 -82.334 33.5 -107.001s55.5 -37 99.5 -37s77.667 12.5 101 37.5s35 60.5 35 106.5v299h51v-482h-51zM265 590.001l-106 147h67
l97 -147h-58z" />
    <glyph glyph-name="uacute" unicode="&#xfa;" 
d="M411 0v57.001c-36 -42 -83.333 -63 -142 -63c-54 0 -96.667 15.333 -128 46c-33.333 32 -50 76.667 -50 134v308h51v-299c0 -46.667 11.167 -82.334 33.5 -107.001s55.5 -37 99.5 -37s77.667 12.5 101 37.5s35 60.5 35 106.5v299h51v-482h-51zM287 590.001h-58l97 147h67
z" />
    <glyph glyph-name="ucircumflex" unicode="&#xfb;" 
d="M411 0v57.001c-36 -42 -83.333 -63 -142 -63c-54 0 -96.667 15.333 -128 46c-33.333 32 -50 76.667 -50 134v308h51v-299c0 -46.667 11.167 -82.334 33.5 -107.001s55.5 -37 99.5 -37s77.667 12.5 101 37.5s35 60.5 35 106.5v299h51v-482h-51zM369 590.001l-93 109
l-93 -109h-57l123 147h54l123 -147h-57z" />
    <glyph glyph-name="udieresis" unicode="&#xfc;" 
d="M411 0v57.001c-36 -42 -83.333 -63 -142 -63c-54 0 -96.667 15.333 -128 46c-33.333 32 -50 76.667 -50 134v308h51v-299c0 -46.667 11.167 -82.334 33.5 -107.001s55.5 -37 99.5 -37s77.667 12.5 101 37.5s35 60.5 35 106.5v299h51v-482h-51zM143 600.001v77h58v-77h-58
zM351 600.001v77h58v-77h-58z" />
    <glyph glyph-name="yacute" unicode="&#xfd;" horiz-adv-x="430" 
d="M192 -131c-9.33301 -26.667 -20.334 -45.3311 -33.001 -55.998c-12 -11.333 -26.167 -19.333 -42.5 -24s-32.5 -7 -48.5 -7h-24v45h19c14 0 25.5 1.16699 34.5 3.5s16.833 6.16602 23.5 11.499s12.334 12.166 17.001 20.499s9 18.5 13 30.5l39 107l-176 482h56l145 -422
l145 422h56zM226.999 590.003h-58l97 147h67z" />
    <glyph glyph-name="thorn" unicode="&#xfe;" horiz-adv-x="540" 
d="M471 241c0 -38 -4.16699 -75.498 -12.5 -112.498s-24.833 -67.833 -49.5 -92.5c-12.667 -12.667 -29.167 -22.834 -49.5 -30.501s-43.166 -11.5 -68.499 -11.5c-28 0 -53.5 4.33301 -76.5 13s-45.167 27 -66.5 55v-292h-51v942h51v-292c21.333 28 43.5 46.333 66.5 55
s48.5 13 76.5 13c25.333 0 48.166 -3.83301 68.499 -11.5s36.833 -17.834 49.5 -30.501c24.667 -24.667 41.167 -55.5 49.5 -92.5s12.5 -74.5 12.5 -112.5zM420 241.002c0 24.667 -1.5 49.167 -4.5 73.5s-9.33301 46 -19 65s-23.5 34.333 -41.5 46s-41.667 17.5 -71 17.5
s-53 -5.83301 -71 -17.5s-31.833 -27 -41.5 -46s-16 -40.667 -19 -65s-4.5 -48.833 -4.5 -73.5c0 -25.333 1.5 -50 4.5 -74s9.33301 -45.5 19 -64.5s23.5 -34.333 41.5 -46s41.667 -17.5 71 -17.5s53 5.83301 71 17.5s31.833 27 41.5 46s16 40.5 19 64.5s4.5 48.667 4.5 74z
" />
    <glyph glyph-name="ydieresis" unicode="&#xff;" horiz-adv-x="430" 
d="M192 -131c-9.33301 -26.667 -20.334 -45.3311 -33.001 -55.998c-12 -11.333 -26.167 -19.333 -42.5 -24s-32.5 -7 -48.5 -7h-24v45h19c14 0 25.5 1.16699 34.5 3.5s16.833 6.16602 23.5 11.499s12.334 12.166 17.001 20.499s9 18.5 13 30.5l39 107l-176 482h56l145 -422
l145 422h56zM82.999 600.003v77h58v-77h-58zM290.999 600.003v77h58v-77h-58z" />
    <glyph glyph-name="Amacron" unicode="&#x100;" horiz-adv-x="602" 
d="M529 0l-62 173h-332l-62 -173h-58l262 712h48l262 -712h-58zM152 221h298l-149 419zM153 800v46h296v-46h-296z" />
    <glyph glyph-name="amacron" unicode="&#x101;" horiz-adv-x="524" 
d="M380 0v48.001c-20.667 -20.667 -41.834 -34.834 -63.501 -42.501s-49.5 -11.5 -83.5 -11.5c-36 0 -64.833 3.33301 -86.5 10s-40.167 18 -55.5 34c-11.333 11.333 -20 25.333 -26 42s-9 34 -9 52c0 44 14.833 78.167 44.5 102.5s70.834 36.5 123.501 36.5h156v54
c0 38.667 -10.167 68 -30.5 88s-55.5 30 -105.5 30c-34 0 -60.833 -4.66699 -80.5 -14s-37.167 -25 -52.5 -47l-37 32c20.667 28.667 44.167 48.167 70.5 58.5s59.5 15.5 99.5 15.5c64.667 0 112 -13.667 142 -41s45 -66.333 45 -117v-330h-51zM380 230.001
l-149.999 -0.000976562c-82 0 -123 -32.333 -123 -97c0 -32 10 -55.667 30 -71s52 -23 96 -23c22 0 43.167 2 63.5 6s39.166 14.333 56.499 31c18 16.667 27 47.334 27 92.001v62zM114.001 610v46h296v-46h-296z" />
    <glyph glyph-name="Abreve" unicode="&#x102;" horiz-adv-x="602" 
d="M529 0l-62 173h-332l-62 -173h-58l262 712h48l262 -712h-58zM152 221h298l-149 419zM466 927c-4.66699 -42.667 -19.834 -75.834 -45.501 -99.501s-65.5 -35.5 -119.5 -35.5s-93.833 11.833 -119.5 35.5s-40.834 56.834 -45.501 99.501h45c4 -28 16.333 -50 37 -66
s48.334 -24 83.001 -24s62.334 8 83.001 24s33 38 37 66h45v0z" />
    <glyph glyph-name="abreve" unicode="&#x103;" horiz-adv-x="524" 
d="M380 0v48.001c-20.667 -20.667 -41.834 -34.834 -63.501 -42.501s-49.5 -11.5 -83.5 -11.5c-36 0 -64.833 3.33301 -86.5 10s-40.167 18 -55.5 34c-11.333 11.333 -20 25.333 -26 42s-9 34 -9 52c0 44 14.833 78.167 44.5 102.5s70.834 36.5 123.501 36.5h156v54
c0 38.667 -10.167 68 -30.5 88s-55.5 30 -105.5 30c-34 0 -60.833 -4.66699 -80.5 -14s-37.167 -25 -52.5 -47l-37 32c20.667 28.667 44.167 48.167 70.5 58.5s59.5 15.5 99.5 15.5c64.667 0 112 -13.667 142 -41s45 -66.333 45 -117v-330h-51zM380 230.001
l-149.999 -0.000976562c-82 0 -123 -32.333 -123 -97c0 -32 10 -55.667 30 -71s52 -23 96 -23c22 0 43.167 2 63.5 6s39.166 14.333 56.499 31c18 16.667 27 47.334 27 92.001v62zM410.001 722c-4.66699 -42.667 -19.834 -75.834 -45.501 -99.501s-65.5 -35.5 -119.5 -35.5
s-93.833 11.833 -119.5 35.5s-40.834 56.834 -45.501 99.501h45c4 -28 16.333 -50 37 -66s48.334 -24 83.001 -24s62.334 8 83.001 24s33 38 37 66h45v0z" />
    <glyph glyph-name="Aogonek" unicode="&#x104;" horiz-adv-x="602" 
d="M529 0l-62 173h-332l-62 -173h-58l262 712h48l262 -712h-58zM152 221h298l-149 419zM520 -220h-63l72 150h55z" />
    <glyph glyph-name="aogonek" unicode="&#x105;" horiz-adv-x="524" 
d="M380 0v48.001c-20.667 -20.667 -41.834 -34.834 -63.501 -42.501s-49.5 -11.5 -83.5 -11.5c-36 0 -64.833 3.33301 -86.5 10s-40.167 18 -55.5 34c-11.333 11.333 -20 25.333 -26 42s-9 34 -9 52c0 44 14.833 78.167 44.5 102.5s70.834 36.5 123.501 36.5h156v54
c0 38.667 -10.167 68 -30.5 88s-55.5 30 -105.5 30c-34 0 -60.833 -4.66699 -80.5 -14s-37.167 -25 -52.5 -47l-37 32c20.667 28.667 44.167 48.167 70.5 58.5s59.5 15.5 99.5 15.5c64.667 0 112 -13.667 142 -41s45 -66.333 45 -117v-330h-51zM380 230.001
l-149.999 -0.000976562c-82 0 -123 -32.333 -123 -97c0 -32 10 -55.667 30 -71s52 -23 96 -23c22 0 43.167 2 63.5 6s39.166 14.333 56.499 31c18 16.667 27 47.334 27 92.001v62zM371.001 -220h-63l72 150h55z" />
    <glyph glyph-name="Cacute" unicode="&#x106;" horiz-adv-x="644" 
d="M568 202c-6 -32 -16.001 -60.8291 -30.001 -86.4961s-31.5 -47.5 -52.5 -65.5s-45 -31.833 -72 -41.5s-56.167 -14.5 -87.5 -14.5c-36 0 -68.5 6 -97.5 18s-54.167 28.667 -75.5 50c-16.667 16.667 -29.667 33.167 -39 49.5s-16.333 35.5 -21 57.5
s-7.66699 47.833 -9 77.5s-2 66.167 -2 109.5s0.666992 79.833 2 109.5s4.33301 55.5 9 77.5s11.667 41.167 21 57.5s22.333 32.833 39 49.5c21.333 21.333 46.5 38 75.5 50s61.5 18 97.5 18c64.667 0 118.167 -18.5 160.5 -55.5s69.5 -87.833 81.5 -152.5h-55
c-10.667 50 -32.5 89.167 -65.5 117.5s-73.5 42.5 -121.5 42.5c-53.333 0 -98.333 -18.333 -135 -55c-12.667 -12.667 -22.667 -26.334 -30 -41.001s-12.833 -31.834 -16.5 -51.501s-6 -43 -7 -70s-1.5 -59.167 -1.5 -96.5s0.5 -69.5 1.5 -96.5s3.33301 -50.333 7 -70
s9.16699 -36.834 16.5 -51.501s17.333 -28.334 30 -41.001c36.667 -36.667 81.667 -55 135 -55c48 0 88.833 14.167 122.5 42.5s55.834 67.5 66.501 117.5h53zM333.999 780.004h-58l97 147h67z" />
    <glyph glyph-name="cacute" unicode="&#x107;" horiz-adv-x="493" 
d="M440 68c-25.333 -28.667 -50 -48.165 -74 -58.498s-52.333 -15.5 -85 -15.5c-33.333 0 -63 5.66699 -89 17s-48.167 27.666 -66.5 48.999s-32.333 47.333 -42 78s-14.5 65 -14.5 103s4.83301 72.333 14.5 103s23.667 56.667 42 78s40.5 37.666 66.5 48.999
s55.667 17 89 17c32.667 0 61 -5.16699 85 -15.5s48.667 -29.833 74 -58.5l-35 -32c-20.667 22.667 -40.167 38.5 -58.5 47.5s-40.166 13.5 -65.499 13.5c-56.667 0 -99.334 -21.333 -128.001 -64c-12 -17.333 -20.5 -36.5 -25.5 -57.5s-7.5 -47.833 -7.5 -80.5
s2.5 -59.5 7.5 -80.5s13.5 -40.167 25.5 -57.5c28.667 -42.667 71.334 -64 128.001 -64c25.333 0 47.166 4.5 65.499 13.5s37.833 24.833 58.5 47.5zM292 590.002h-58l97 147h67z" />
    <glyph glyph-name="Ccircumflex" unicode="&#x108;" horiz-adv-x="644" 
d="M568 202c-6 -32 -16.001 -60.8291 -30.001 -86.4961s-31.5 -47.5 -52.5 -65.5s-45 -31.833 -72 -41.5s-56.167 -14.5 -87.5 -14.5c-36 0 -68.5 6 -97.5 18s-54.167 28.667 -75.5 50c-16.667 16.667 -29.667 33.167 -39 49.5s-16.333 35.5 -21 57.5
s-7.66699 47.833 -9 77.5s-2 66.167 -2 109.5s0.666992 79.833 2 109.5s4.33301 55.5 9 77.5s11.667 41.167 21 57.5s22.333 32.833 39 49.5c21.333 21.333 46.5 38 75.5 50s61.5 18 97.5 18c64.667 0 118.167 -18.5 160.5 -55.5s69.5 -87.833 81.5 -152.5h-55
c-10.667 50 -32.5 89.167 -65.5 117.5s-73.5 42.5 -121.5 42.5c-53.333 0 -98.333 -18.333 -135 -55c-12.667 -12.667 -22.667 -26.334 -30 -41.001s-12.833 -31.834 -16.5 -51.501s-6 -43 -7 -70s-1.5 -59.167 -1.5 -96.5s0.5 -69.5 1.5 -96.5s3.33301 -50.333 7 -70
s9.16699 -36.834 16.5 -51.501s17.333 -28.334 30 -41.001c36.667 -36.667 81.667 -55 135 -55c48 0 88.833 14.167 122.5 42.5s55.834 67.5 66.501 117.5h53zM418.999 780.004l-93 109l-93 -109h-57l123 147h54l123 -147h-57z" />
    <glyph glyph-name="ccircumflex" unicode="&#x109;" horiz-adv-x="493" 
d="M440 68c-25.333 -28.667 -50 -48.165 -74 -58.498s-52.333 -15.5 -85 -15.5c-33.333 0 -63 5.66699 -89 17s-48.167 27.666 -66.5 48.999s-32.333 47.333 -42 78s-14.5 65 -14.5 103s4.83301 72.333 14.5 103s23.667 56.667 42 78s40.5 37.666 66.5 48.999
s55.667 17 89 17c32.667 0 61 -5.16699 85 -15.5s48.667 -29.833 74 -58.5l-35 -32c-20.667 22.667 -40.167 38.5 -58.5 47.5s-40.166 13.5 -65.499 13.5c-56.667 0 -99.334 -21.333 -128.001 -64c-12 -17.333 -20.5 -36.5 -25.5 -57.5s-7.5 -47.833 -7.5 -80.5
s2.5 -59.5 7.5 -80.5s13.5 -40.167 25.5 -57.5c28.667 -42.667 71.334 -64 128.001 -64c25.333 0 47.166 4.5 65.499 13.5s37.833 24.833 58.5 47.5zM374 590.002l-93 109l-93 -109h-57l123 147h54l123 -147h-57z" />
    <glyph glyph-name="Cdotaccent" unicode="&#x10a;" horiz-adv-x="644" 
d="M568 202c-6 -32 -16.001 -60.8291 -30.001 -86.4961s-31.5 -47.5 -52.5 -65.5s-45 -31.833 -72 -41.5s-56.167 -14.5 -87.5 -14.5c-36 0 -68.5 6 -97.5 18s-54.167 28.667 -75.5 50c-16.667 16.667 -29.667 33.167 -39 49.5s-16.333 35.5 -21 57.5
s-7.66699 47.833 -9 77.5s-2 66.167 -2 109.5s0.666992 79.833 2 109.5s4.33301 55.5 9 77.5s11.667 41.167 21 57.5s22.333 32.833 39 49.5c21.333 21.333 46.5 38 75.5 50s61.5 18 97.5 18c64.667 0 118.167 -18.5 160.5 -55.5s69.5 -87.833 81.5 -152.5h-55
c-10.667 50 -32.5 89.167 -65.5 117.5s-73.5 42.5 -121.5 42.5c-53.333 0 -98.333 -18.333 -135 -55c-12.667 -12.667 -22.667 -26.334 -30 -41.001s-12.833 -31.834 -16.5 -51.501s-6 -43 -7 -70s-1.5 -59.167 -1.5 -96.5s0.5 -69.5 1.5 -96.5s3.33301 -50.333 7 -70
s9.16699 -36.834 16.5 -51.501s17.333 -28.334 30 -41.001c36.667 -36.667 81.667 -55 135 -55c48 0 88.833 14.167 122.5 42.5s55.834 67.5 66.501 117.5h53zM294.999 800.004v63h62v-63h-62z" />
    <glyph glyph-name="cdotaccent" unicode="&#x10b;" horiz-adv-x="493" 
d="M440 68c-25.333 -28.667 -50 -48.165 -74 -58.498s-52.333 -15.5 -85 -15.5c-33.333 0 -63 5.66699 -89 17s-48.167 27.666 -66.5 48.999s-32.333 47.333 -42 78s-14.5 65 -14.5 103s4.83301 72.333 14.5 103s23.667 56.667 42 78s40.5 37.666 66.5 48.999
s55.667 17 89 17c32.667 0 61 -5.16699 85 -15.5s48.667 -29.833 74 -58.5l-35 -32c-20.667 22.667 -40.167 38.5 -58.5 47.5s-40.166 13.5 -65.499 13.5c-56.667 0 -99.334 -21.333 -128.001 -64c-12 -17.333 -20.5 -36.5 -25.5 -57.5s-7.5 -47.833 -7.5 -80.5
s2.5 -59.5 7.5 -80.5s13.5 -40.167 25.5 -57.5c28.667 -42.667 71.334 -64 128.001 -64c25.333 0 47.166 4.5 65.499 13.5s37.833 24.833 58.5 47.5zM250 610.002v63h62v-63h-62z" />
    <glyph glyph-name="Ccaron" unicode="&#x10c;" horiz-adv-x="644" 
d="M568 202c-6 -32 -16.001 -60.8291 -30.001 -86.4961s-31.5 -47.5 -52.5 -65.5s-45 -31.833 -72 -41.5s-56.167 -14.5 -87.5 -14.5c-36 0 -68.5 6 -97.5 18s-54.167 28.667 -75.5 50c-16.667 16.667 -29.667 33.167 -39 49.5s-16.333 35.5 -21 57.5
s-7.66699 47.833 -9 77.5s-2 66.167 -2 109.5s0.666992 79.833 2 109.5s4.33301 55.5 9 77.5s11.667 41.167 21 57.5s22.333 32.833 39 49.5c21.333 21.333 46.5 38 75.5 50s61.5 18 97.5 18c64.667 0 118.167 -18.5 160.5 -55.5s69.5 -87.833 81.5 -152.5h-55
c-10.667 50 -32.5 89.167 -65.5 117.5s-73.5 42.5 -121.5 42.5c-53.333 0 -98.333 -18.333 -135 -55c-12.667 -12.667 -22.667 -26.334 -30 -41.001s-12.833 -31.834 -16.5 -51.501s-6 -43 -7 -70s-1.5 -59.167 -1.5 -96.5s0.5 -69.5 1.5 -96.5s3.33301 -50.333 7 -70
s9.16699 -36.834 16.5 -51.501s17.333 -28.334 30 -41.001c36.667 -36.667 81.667 -55 135 -55c48 0 88.833 14.167 122.5 42.5s55.834 67.5 66.501 117.5h53zM348.999 780.004h-54l-123 147h57l93 -109l93 109h57z" />
    <glyph glyph-name="ccaron" unicode="&#x10d;" horiz-adv-x="493" 
d="M440 68c-25.333 -28.667 -50 -48.165 -74 -58.498s-52.333 -15.5 -85 -15.5c-33.333 0 -63 5.66699 -89 17s-48.167 27.666 -66.5 48.999s-32.333 47.333 -42 78s-14.5 65 -14.5 103s4.83301 72.333 14.5 103s23.667 56.667 42 78s40.5 37.666 66.5 48.999
s55.667 17 89 17c32.667 0 61 -5.16699 85 -15.5s48.667 -29.833 74 -58.5l-35 -32c-20.667 22.667 -40.167 38.5 -58.5 47.5s-40.166 13.5 -65.499 13.5c-56.667 0 -99.334 -21.333 -128.001 -64c-12 -17.333 -20.5 -36.5 -25.5 -57.5s-7.5 -47.833 -7.5 -80.5
s2.5 -59.5 7.5 -80.5s13.5 -40.167 25.5 -57.5c28.667 -42.667 71.334 -64 128.001 -64c25.333 0 47.166 4.5 65.499 13.5s37.833 24.833 58.5 47.5zM308 590.002h-54l-123 147h57l93 -109l93 109h57z" />
    <glyph glyph-name="Dcaron" unicode="&#x10e;" horiz-adv-x="678" 
d="M596 356c0 -26.667 -0.333008 -53.668 -1 -81.001s-3.33398 -53.666 -8.00098 -78.999s-11.667 -49.333 -21 -72s-22.333 -42.334 -39 -59.001c-43.333 -43.333 -102.666 -65 -177.999 -65h-239v712h239c75.333 0 134.666 -21.667 177.999 -65
c16.667 -17.333 29.667 -37.166 39 -59.499s16.333 -46.333 21 -72s7.33398 -52 8.00098 -79s1 -53.833 1 -80.5zM542 355.999c0 23.333 -0.333008 47.002 -1 71.002s-2.66699 47.167 -6 69.5s-8.5 43.166 -15.5 62.499s-17.167 36 -30.5 50
c-20.667 21.333 -44.167 35.833 -70.5 43.5s-53.833 11.5 -82.5 11.5h-172v-616h172c28.667 0 56.167 3.83301 82.5 11.5s49.833 22.167 70.5 43.5c13.333 14 23.5 30.667 30.5 50s12.167 40.166 15.5 62.499s5.33301 45.5 6 69.5s1 47.667 1 71zM366 780.001h-54l-123 147
h57l93 -109l93 109h57z" />
    <glyph glyph-name="dcaron" unicode="&#x10f;" horiz-adv-x="540" 
d="M392 0v61.998c-21.333 -28 -43.5 -46.333 -66.5 -55s-48.5 -13 -76.5 -13c-25.333 0 -48.166 3.83301 -68.499 11.5s-36.833 17.834 -49.5 30.501c-24.667 24.667 -41.167 55.5 -49.5 92.5s-12.5 74.5 -12.5 112.5s4.16699 75.5 12.5 112.5s24.833 67.833 49.5 92.5
c12.667 12.667 29.167 22.834 49.5 30.501s43.166 11.5 68.499 11.5c28 0 53.5 -4.33301 76.5 -13s45.167 -27 66.5 -55v292h51v-712h-51zM392 240.998c0 24.667 -1.5 49.167 -4.5 73.5s-9.33301 46 -19 65s-23.5 34.333 -41.5 46s-41.667 17.5 -71 17.5
s-53 -5.83301 -71 -17.5s-31.833 -27 -41.5 -46s-16 -40.667 -19 -65s-4.5 -48.833 -4.5 -73.5c0 -25.333 1.5 -50 4.5 -74s9.33301 -45.5 19 -64.5s23.5 -34.333 41.5 -46s41.667 -17.5 71 -17.5s53 5.83301 71 17.5s31.833 27 41.5 46s16 40.5 19 64.5s4.5 48.667 4.5 74z
M553 563.998h-47l40 148h55z" />
    <glyph glyph-name="Dcroat" unicode="&#x110;" horiz-adv-x="689" 
d="M607 356c0 -26.667 -0.333008 -53.668 -1 -81.001s-3.33398 -53.666 -8.00098 -78.999s-11.667 -49.333 -21 -72s-22.333 -42.334 -39 -59.001c-43.333 -43.333 -102.666 -65 -177.999 -65h-239v338h-81v42h81v332h239c75.333 0 134.666 -21.667 177.999 -65
c16.667 -17.333 29.667 -37.166 39 -59.499s16.333 -46.333 21 -72s7.33398 -52 8.00098 -79s1 -53.833 1 -80.5zM553 355.999c0 23.333 -0.333008 47.002 -1 71.002s-2.66699 47.167 -6 69.5s-8.5 43.166 -15.5 62.499s-17.167 36 -30.5 50
c-20.667 21.333 -44.167 35.833 -70.5 43.5s-53.833 11.5 -82.5 11.5h-172v-284h178v-42h-178v-290h172c28.667 0 56.167 3.83301 82.5 11.5s49.833 22.167 70.5 43.5c13.333 14 23.5 30.667 30.5 50s12.167 40.166 15.5 62.499s5.33301 45.5 6 69.5s1 47.667 1 71z" />
    <glyph glyph-name="dcroat" unicode="&#x111;" horiz-adv-x="550" 
d="M443 574v-574.002h-51v62c-21.333 -28 -43.666 -46.333 -66.999 -55s-48.666 -13 -75.999 -13c-25.333 0 -48.166 3.83301 -68.499 11.5s-36.833 17.834 -49.5 30.501c-24.667 24.667 -41.167 55.5 -49.5 92.5s-12.5 74.5 -12.5 112.5s4.16699 75.5 12.5 112.5
s24.833 67.833 49.5 92.5c12.667 12.667 29.167 22.834 49.5 30.501s43.166 11.5 68.499 11.5c27.333 0 52.666 -4.33301 75.999 -13s45.666 -27 66.999 -55v154h-136v36h136v102h51v-102h65v-36h-65zM392 240.998c0 24.667 -1.5 49.167 -4.5 73.5s-9.33301 46 -19 65
s-23.5 34.333 -41.5 46s-41.667 17.5 -71 17.5s-53 -5.83301 -71 -17.5s-31.833 -27 -41.5 -46s-16 -40.667 -19 -65s-4.5 -48.833 -4.5 -73.5c0 -25.333 1.5 -50 4.5 -74s9.33301 -45.5 19 -64.5s23.5 -34.333 41.5 -46s41.667 -17.5 71 -17.5s53 5.83301 71 17.5
s31.833 27 41.5 46s16 40.5 19 64.5s4.5 48.667 4.5 74z" />
    <glyph glyph-name="Emacron" unicode="&#x112;" horiz-adv-x="598" 
d="M110 0v712h432v-48h-378v-281h322v-48h-322v-287h378v-48h-432zM166 800v46h296v-46h-296z" />
    <glyph glyph-name="emacron" unicode="&#x113;" horiz-adv-x="523" 
d="M120 230c0 -62 13.165 -109.168 39.498 -141.501s65.5 -48.5 117.5 -48.5c28.667 0 52.834 4.5 72.501 13.5s39.834 23.833 60.501 44.5l38 -30c-12 -12 -24.167 -22.667 -36.5 -32s-25.333 -17.166 -39 -23.499s-28.5 -11 -44.5 -14s-34 -4.5 -54 -4.5
c-66.667 0 -117.5 21 -152.5 63s-52.5 103.333 -52.5 184c0 78.667 17 139.5 51 182.5s81.333 64.5 142 64.5s108 -20.5 142 -61.5s51 -98.833 51 -173.5v-23h-335zM403.998 270.999c-0.666992 11.333 -1.33203 21.166 -1.99902 29.499s-1.5 15.833 -2.5 22.5
s-2.5 13 -4.5 19s-4.66699 12.667 -8 20c-10.667 25.333 -27.167 45.166 -49.5 59.499s-47.5 21.5 -75.5 21.5s-53 -7.16699 -75 -21.5s-38.667 -34.166 -50 -59.499c-3.33301 -7.33301 -6 -14 -8 -20s-3.5 -12.333 -4.5 -19s-1.83301 -14.167 -2.5 -22.5
s-1.33398 -18.166 -2.00098 -29.499h284zM113 609.999v46h296v-46h-296z" />
    <glyph glyph-name="Ebreve" unicode="&#x114;" horiz-adv-x="598" 
d="M110 0v712h432v-48h-378v-281h322v-48h-322v-287h378v-48h-432zM479 927c-4.66699 -42.667 -19.834 -75.834 -45.501 -99.501s-65.5 -35.5 -119.5 -35.5s-93.833 11.833 -119.5 35.5s-40.834 56.834 -45.501 99.501h45c4 -28 16.333 -50 37 -66s48.334 -24 83.001 -24
s62.334 8 83.001 24s33 38 37 66h45v0z" />
    <glyph glyph-name="ebreve" unicode="&#x115;" horiz-adv-x="523" 
d="M120 230c0 -62 13.165 -109.168 39.498 -141.501s65.5 -48.5 117.5 -48.5c28.667 0 52.834 4.5 72.501 13.5s39.834 23.833 60.501 44.5l38 -30c-12 -12 -24.167 -22.667 -36.5 -32s-25.333 -17.166 -39 -23.499s-28.5 -11 -44.5 -14s-34 -4.5 -54 -4.5
c-66.667 0 -117.5 21 -152.5 63s-52.5 103.333 -52.5 184c0 78.667 17 139.5 51 182.5s81.333 64.5 142 64.5s108 -20.5 142 -61.5s51 -98.833 51 -173.5v-23h-335zM403.998 270.999c-0.666992 11.333 -1.33203 21.166 -1.99902 29.499s-1.5 15.833 -2.5 22.5
s-2.5 13 -4.5 19s-4.66699 12.667 -8 20c-10.667 25.333 -27.167 45.166 -49.5 59.499s-47.5 21.5 -75.5 21.5s-53 -7.16699 -75 -21.5s-38.667 -34.166 -50 -59.499c-3.33301 -7.33301 -6 -14 -8 -20s-3.5 -12.333 -4.5 -19s-1.83301 -14.167 -2.5 -22.5
s-1.33398 -18.166 -2.00098 -29.499h284zM429 721.999c-4.66699 -42.667 -19.834 -75.834 -45.501 -99.501s-65.5 -35.5 -119.5 -35.5s-93.833 11.833 -119.5 35.5s-40.834 56.834 -45.501 99.501h45c4 -28 16.333 -50 37 -66s48.334 -24 83.001 -24s62.334 8 83.001 24
s33 38 37 66h45v0z" />
    <glyph glyph-name="Edotaccent" unicode="&#x116;" horiz-adv-x="598" 
d="M110 0v712h432v-48h-378v-281h322v-48h-322v-287h378v-48h-432zM283 800v63h62v-63h-62z" />
    <glyph glyph-name="edotaccent" unicode="&#x117;" horiz-adv-x="523" 
d="M120 230c0 -62 13.165 -109.168 39.498 -141.501s65.5 -48.5 117.5 -48.5c28.667 0 52.834 4.5 72.501 13.5s39.834 23.833 60.501 44.5l38 -30c-12 -12 -24.167 -22.667 -36.5 -32s-25.333 -17.166 -39 -23.499s-28.5 -11 -44.5 -14s-34 -4.5 -54 -4.5
c-66.667 0 -117.5 21 -152.5 63s-52.5 103.333 -52.5 184c0 78.667 17 139.5 51 182.5s81.333 64.5 142 64.5s108 -20.5 142 -61.5s51 -98.833 51 -173.5v-23h-335zM403.998 270.999c-0.666992 11.333 -1.33203 21.166 -1.99902 29.499s-1.5 15.833 -2.5 22.5
s-2.5 13 -4.5 19s-4.66699 12.667 -8 20c-10.667 25.333 -27.167 45.166 -49.5 59.499s-47.5 21.5 -75.5 21.5s-53 -7.16699 -75 -21.5s-38.667 -34.166 -50 -59.499c-3.33301 -7.33301 -6 -14 -8 -20s-3.5 -12.333 -4.5 -19s-1.83301 -14.167 -2.5 -22.5
s-1.33398 -18.166 -2.00098 -29.499h284zM230 609.999v63h62v-63h-62z" />
    <glyph glyph-name="Eogonek" unicode="&#x118;" horiz-adv-x="598" 
d="M110 0v712h432v-48h-378v-281h322v-48h-322v-287h378v-48h-432zM478 -220h-63l72 150h55z" />
    <glyph glyph-name="eogonek" unicode="&#x119;" horiz-adv-x="523" 
d="M120 230c0 -62 13.165 -109.168 39.498 -141.501s65.5 -48.5 117.5 -48.5c28.667 0 52.834 4.5 72.501 13.5s39.834 23.833 60.501 44.5l38 -30c-12 -12 -24.167 -22.667 -36.5 -32s-25.333 -17.166 -39 -23.499s-28.5 -11 -44.5 -14s-34 -4.5 -54 -4.5
c-66.667 0 -117.5 21 -152.5 63s-52.5 103.333 -52.5 184c0 78.667 17 139.5 51 182.5s81.333 64.5 142 64.5s108 -20.5 142 -61.5s51 -98.833 51 -173.5v-23h-335zM403.998 270.999c-0.666992 11.333 -1.33203 21.166 -1.99902 29.499s-1.5 15.833 -2.5 22.5
s-2.5 13 -4.5 19s-4.66699 12.667 -8 20c-10.667 25.333 -27.167 45.166 -49.5 59.499s-47.5 21.5 -75.5 21.5s-53 -7.16699 -75 -21.5s-38.667 -34.166 -50 -59.499c-3.33301 -7.33301 -6 -14 -8 -20s-3.5 -12.333 -4.5 -19s-1.83301 -14.167 -2.5 -22.5
s-1.33398 -18.166 -2.00098 -29.499h284zM291 -220.001h-63l72 150h55z" />
    <glyph glyph-name="Ecaron" unicode="&#x11a;" horiz-adv-x="598" 
d="M110 0v712h432v-48h-378v-281h322v-48h-322v-287h378v-48h-432zM341 780h-54l-123 147h57l93 -109l93 109h57z" />
    <glyph glyph-name="ecaron" unicode="&#x11b;" horiz-adv-x="523" 
d="M120 230c0 -62 13.165 -109.168 39.498 -141.501s65.5 -48.5 117.5 -48.5c28.667 0 52.834 4.5 72.501 13.5s39.834 23.833 60.501 44.5l38 -30c-12 -12 -24.167 -22.667 -36.5 -32s-25.333 -17.166 -39 -23.499s-28.5 -11 -44.5 -14s-34 -4.5 -54 -4.5
c-66.667 0 -117.5 21 -152.5 63s-52.5 103.333 -52.5 184c0 78.667 17 139.5 51 182.5s81.333 64.5 142 64.5s108 -20.5 142 -61.5s51 -98.833 51 -173.5v-23h-335zM403.998 270.999c-0.666992 11.333 -1.33203 21.166 -1.99902 29.499s-1.5 15.833 -2.5 22.5
s-2.5 13 -4.5 19s-4.66699 12.667 -8 20c-10.667 25.333 -27.167 45.166 -49.5 59.499s-47.5 21.5 -75.5 21.5s-53 -7.16699 -75 -21.5s-38.667 -34.166 -50 -59.499c-3.33301 -7.33301 -6 -14 -8 -20s-3.5 -12.333 -4.5 -19s-1.83301 -14.167 -2.5 -22.5
s-1.33398 -18.166 -2.00098 -29.499h284zM288 589.999h-54l-123 147h57l93 -109l93 109h57z" />
    <glyph glyph-name="Gcircumflex" unicode="&#x11c;" horiz-adv-x="651" 
d="M571 248c0 -38 -4.3291 -70.3301 -12.9961 -96.9971s-23.667 -51.667 -45 -75c-23.333 -25.333 -51.333 -45.333 -84 -60s-67 -22 -103 -22s-68.5 6 -97.5 18s-54.167 28.667 -75.5 50c-16.667 16.667 -29.667 33.167 -39 49.5s-16.333 35.5 -21 57.5
s-7.66699 47.833 -9 77.5s-2 66.167 -2 109.5s0.666992 79.833 2 109.5s4.33301 55.5 9 77.5s11.667 41.167 21 57.5s22.333 32.833 39 49.5c21.333 21.333 46.5 38 75.5 50s61.5 18 97.5 18c30.667 0 59.667 -5 87 -15s51.666 -24 72.999 -42s39.166 -39.833 53.499 -65.5
s24.166 -54.167 29.499 -85.5h-54c-10.667 50 -32.834 89.167 -66.501 117.5s-74.5 42.5 -122.5 42.5c-53.333 0 -98.333 -18.333 -135 -55c-12.667 -12.667 -22.667 -26.334 -30 -41.001s-12.833 -31.834 -16.5 -51.501s-6 -43 -7 -70s-1.5 -59.167 -1.5 -96.5
s0.5 -69.5 1.5 -96.5s3.33301 -50.333 7 -70s9.16699 -36.834 16.5 -51.501s17.333 -28.334 30 -41.001c36.667 -36.667 81.667 -55 135 -55c28 0 55 5.83301 81 17.5s48.333 28.834 67 51.501c15.333 19.333 26.333 40 33 62s10 48.333 10 79v64h-191v48h245v-116z
M419.004 780.003l-93 109l-93 -109h-57l123 147h54l123 -147h-57z" />
    <glyph glyph-name="gcircumflex" unicode="&#x11d;" horiz-adv-x="540" 
d="M443 -27c0 -30 -4.33203 -57.833 -12.999 -83.5s-21.5 -47.834 -38.5 -66.501s-37.667 -33.167 -62 -43.5s-52.166 -15.5 -83.499 -15.5c-18 0 -34 1.16699 -48 3.5s-27.167 6.16602 -39.5 11.499s-24.166 12 -35.499 20s-23.333 17.667 -36 29l34 34
c9.33301 -8.66699 18.333 -16.334 27 -23.001s17.667 -12.167 27 -16.5s19.666 -7.66602 30.999 -9.99902s24.666 -3.5 39.999 -3.5c25.333 0 47.166 4.16699 65.499 12.5s33.5 20 45.5 35s20.833 32.667 26.5 53s8.5 42.5 8.5 66.5v86c-21.333 -28 -43.5 -46.333 -66.5 -55
s-48.5 -13 -76.5 -13c-25.333 0 -48.166 3.83301 -68.499 11.5s-36.833 17.834 -49.5 30.501c-24.667 24.667 -41.167 55.5 -49.5 92.5s-12.5 74.5 -12.5 112.5s4.16699 75.5 12.5 112.5s24.833 67.833 49.5 92.5c12.667 12.667 29.167 22.834 49.5 30.501
s43.166 11.5 68.499 11.5c28 0 53.5 -4.33301 76.5 -13s45.167 -27 66.5 -55v62h51v-509zM392.001 241c0 24.667 -1.5 49.167 -4.5 73.5s-9.33301 46 -19 65s-23.5 34.333 -41.5 46s-41.667 17.5 -71 17.5s-53 -5.83301 -71 -17.5s-31.833 -27 -41.5 -46
s-16 -40.667 -19 -65s-4.5 -48.833 -4.5 -73.5c0 -25.333 1.5 -50 4.5 -74s9.33301 -45.5 19 -64.5s23.5 -34.333 41.5 -46s41.667 -17.5 71 -17.5s53 5.83301 71 17.5s31.833 27 41.5 46s16 40.5 19 64.5s4.5 48.667 4.5 74zM370.001 590l-93 109l-93 -109h-57l123 147h54
l123 -147h-57z" />
    <glyph glyph-name="Gbreve" unicode="&#x11e;" horiz-adv-x="651" 
d="M571 248c0 -38 -4.3291 -70.3301 -12.9961 -96.9971s-23.667 -51.667 -45 -75c-23.333 -25.333 -51.333 -45.333 -84 -60s-67 -22 -103 -22s-68.5 6 -97.5 18s-54.167 28.667 -75.5 50c-16.667 16.667 -29.667 33.167 -39 49.5s-16.333 35.5 -21 57.5
s-7.66699 47.833 -9 77.5s-2 66.167 -2 109.5s0.666992 79.833 2 109.5s4.33301 55.5 9 77.5s11.667 41.167 21 57.5s22.333 32.833 39 49.5c21.333 21.333 46.5 38 75.5 50s61.5 18 97.5 18c30.667 0 59.667 -5 87 -15s51.666 -24 72.999 -42s39.166 -39.833 53.499 -65.5
s24.166 -54.167 29.499 -85.5h-54c-10.667 50 -32.834 89.167 -66.501 117.5s-74.5 42.5 -122.5 42.5c-53.333 0 -98.333 -18.333 -135 -55c-12.667 -12.667 -22.667 -26.334 -30 -41.001s-12.833 -31.834 -16.5 -51.501s-6 -43 -7 -70s-1.5 -59.167 -1.5 -96.5
s0.5 -69.5 1.5 -96.5s3.33301 -50.333 7 -70s9.16699 -36.834 16.5 -51.501s17.333 -28.334 30 -41.001c36.667 -36.667 81.667 -55 135 -55c28 0 55 5.83301 81 17.5s48.333 28.834 67 51.501c15.333 19.333 26.333 40 33 62s10 48.333 10 79v64h-191v48h245v-116z
M488.004 927.003c-4.66699 -42.667 -19.834 -75.834 -45.501 -99.501s-65.5 -35.5 -119.5 -35.5s-93.833 11.833 -119.5 35.5s-40.834 56.834 -45.501 99.501h45c4 -28 16.333 -50 37 -66s48.334 -24 83.001 -24s62.334 8 83.001 24s33 38 37 66h45v0z" />
    <glyph glyph-name="gbreve" unicode="&#x11f;" horiz-adv-x="540" 
d="M443 -27c0 -30 -4.33203 -57.833 -12.999 -83.5s-21.5 -47.834 -38.5 -66.501s-37.667 -33.167 -62 -43.5s-52.166 -15.5 -83.499 -15.5c-18 0 -34 1.16699 -48 3.5s-27.167 6.16602 -39.5 11.499s-24.166 12 -35.499 20s-23.333 17.667 -36 29l34 34
c9.33301 -8.66699 18.333 -16.334 27 -23.001s17.667 -12.167 27 -16.5s19.666 -7.66602 30.999 -9.99902s24.666 -3.5 39.999 -3.5c25.333 0 47.166 4.16699 65.499 12.5s33.5 20 45.5 35s20.833 32.667 26.5 53s8.5 42.5 8.5 66.5v86c-21.333 -28 -43.5 -46.333 -66.5 -55
s-48.5 -13 -76.5 -13c-25.333 0 -48.166 3.83301 -68.499 11.5s-36.833 17.834 -49.5 30.501c-24.667 24.667 -41.167 55.5 -49.5 92.5s-12.5 74.5 -12.5 112.5s4.16699 75.5 12.5 112.5s24.833 67.833 49.5 92.5c12.667 12.667 29.167 22.834 49.5 30.501
s43.166 11.5 68.499 11.5c28 0 53.5 -4.33301 76.5 -13s45.167 -27 66.5 -55v62h51v-509zM392.001 241c0 24.667 -1.5 49.167 -4.5 73.5s-9.33301 46 -19 65s-23.5 34.333 -41.5 46s-41.667 17.5 -71 17.5s-53 -5.83301 -71 -17.5s-31.833 -27 -41.5 -46
s-16 -40.667 -19 -65s-4.5 -48.833 -4.5 -73.5c0 -25.333 1.5 -50 4.5 -74s9.33301 -45.5 19 -64.5s23.5 -34.333 41.5 -46s41.667 -17.5 71 -17.5s53 5.83301 71 17.5s31.833 27 41.5 46s16 40.5 19 64.5s4.5 48.667 4.5 74zM421.001 722
c-4.66699 -42.667 -19.834 -75.834 -45.501 -99.501s-65.5 -35.5 -119.5 -35.5s-93.833 11.833 -119.5 35.5s-40.834 56.834 -45.501 99.501h45c4 -28 16.333 -50 37 -66s48.334 -24 83.001 -24s62.334 8 83.001 24s33 38 37 66h45v0z" />
    <glyph glyph-name="Gdotaccent" unicode="&#x120;" horiz-adv-x="651" 
d="M571 248c0 -38 -4.3291 -70.3301 -12.9961 -96.9971s-23.667 -51.667 -45 -75c-23.333 -25.333 -51.333 -45.333 -84 -60s-67 -22 -103 -22s-68.5 6 -97.5 18s-54.167 28.667 -75.5 50c-16.667 16.667 -29.667 33.167 -39 49.5s-16.333 35.5 -21 57.5
s-7.66699 47.833 -9 77.5s-2 66.167 -2 109.5s0.666992 79.833 2 109.5s4.33301 55.5 9 77.5s11.667 41.167 21 57.5s22.333 32.833 39 49.5c21.333 21.333 46.5 38 75.5 50s61.5 18 97.5 18c30.667 0 59.667 -5 87 -15s51.666 -24 72.999 -42s39.166 -39.833 53.499 -65.5
s24.166 -54.167 29.499 -85.5h-54c-10.667 50 -32.834 89.167 -66.501 117.5s-74.5 42.5 -122.5 42.5c-53.333 0 -98.333 -18.333 -135 -55c-12.667 -12.667 -22.667 -26.334 -30 -41.001s-12.833 -31.834 -16.5 -51.501s-6 -43 -7 -70s-1.5 -59.167 -1.5 -96.5
s0.5 -69.5 1.5 -96.5s3.33301 -50.333 7 -70s9.16699 -36.834 16.5 -51.501s17.333 -28.334 30 -41.001c36.667 -36.667 81.667 -55 135 -55c28 0 55 5.83301 81 17.5s48.333 28.834 67 51.501c15.333 19.333 26.333 40 33 62s10 48.333 10 79v64h-191v48h245v-116z
M295.004 800.003v63h62v-63h-62z" />
    <glyph glyph-name="gdotaccent" unicode="&#x121;" horiz-adv-x="540" 
d="M443 -27c0 -30 -4.33203 -57.833 -12.999 -83.5s-21.5 -47.834 -38.5 -66.501s-37.667 -33.167 -62 -43.5s-52.166 -15.5 -83.499 -15.5c-18 0 -34 1.16699 -48 3.5s-27.167 6.16602 -39.5 11.499s-24.166 12 -35.499 20s-23.333 17.667 -36 29l34 34
c9.33301 -8.66699 18.333 -16.334 27 -23.001s17.667 -12.167 27 -16.5s19.666 -7.66602 30.999 -9.99902s24.666 -3.5 39.999 -3.5c25.333 0 47.166 4.16699 65.499 12.5s33.5 20 45.5 35s20.833 32.667 26.5 53s8.5 42.5 8.5 66.5v86c-21.333 -28 -43.5 -46.333 -66.5 -55
s-48.5 -13 -76.5 -13c-25.333 0 -48.166 3.83301 -68.499 11.5s-36.833 17.834 -49.5 30.501c-24.667 24.667 -41.167 55.5 -49.5 92.5s-12.5 74.5 -12.5 112.5s4.16699 75.5 12.5 112.5s24.833 67.833 49.5 92.5c12.667 12.667 29.167 22.834 49.5 30.501
s43.166 11.5 68.499 11.5c28 0 53.5 -4.33301 76.5 -13s45.167 -27 66.5 -55v62h51v-509zM392.001 241c0 24.667 -1.5 49.167 -4.5 73.5s-9.33301 46 -19 65s-23.5 34.333 -41.5 46s-41.667 17.5 -71 17.5s-53 -5.83301 -71 -17.5s-31.833 -27 -41.5 -46
s-16 -40.667 -19 -65s-4.5 -48.833 -4.5 -73.5c0 -25.333 1.5 -50 4.5 -74s9.33301 -45.5 19 -64.5s23.5 -34.333 41.5 -46s41.667 -17.5 71 -17.5s53 5.83301 71 17.5s31.833 27 41.5 46s16 40.5 19 64.5s4.5 48.667 4.5 74zM225.001 610v63h62v-63h-62z" />
    <glyph glyph-name="Gcommaaccent" unicode="&#x122;" horiz-adv-x="651" 
d="M571 248c0 -38 -4.3291 -70.3301 -12.9961 -96.9971s-23.667 -51.667 -45 -75c-23.333 -25.333 -51.333 -45.333 -84 -60s-67 -22 -103 -22s-68.5 6 -97.5 18s-54.167 28.667 -75.5 50c-16.667 16.667 -29.667 33.167 -39 49.5s-16.333 35.5 -21 57.5
s-7.66699 47.833 -9 77.5s-2 66.167 -2 109.5s0.666992 79.833 2 109.5s4.33301 55.5 9 77.5s11.667 41.167 21 57.5s22.333 32.833 39 49.5c21.333 21.333 46.5 38 75.5 50s61.5 18 97.5 18c30.667 0 59.667 -5 87 -15s51.666 -24 72.999 -42s39.166 -39.833 53.499 -65.5
s24.166 -54.167 29.499 -85.5h-54c-10.667 50 -32.834 89.167 -66.501 117.5s-74.5 42.5 -122.5 42.5c-53.333 0 -98.333 -18.333 -135 -55c-12.667 -12.667 -22.667 -26.334 -30 -41.001s-12.833 -31.834 -16.5 -51.501s-6 -43 -7 -70s-1.5 -59.167 -1.5 -96.5
s0.5 -69.5 1.5 -96.5s3.33301 -50.333 7 -70s9.16699 -36.834 16.5 -51.501s17.333 -28.334 30 -41.001c36.667 -36.667 81.667 -55 135 -55c28 0 55 5.83301 81 17.5s48.333 28.834 67 51.501c15.333 19.333 26.333 40 33 62s10 48.333 10 79v64h-191v48h245v-116z
M294.004 -219.997h-63l72 150h55z" />
    <glyph glyph-name="gcommaaccent" unicode="&#x123;" horiz-adv-x="540" 
d="M443 -27c0 -30 -4.33203 -57.833 -12.999 -83.5s-21.5 -47.834 -38.5 -66.501s-37.667 -33.167 -62 -43.5s-52.166 -15.5 -83.499 -15.5c-18 0 -34 1.16699 -48 3.5s-27.167 6.16602 -39.5 11.499s-24.166 12 -35.499 20s-23.333 17.667 -36 29l34 34
c9.33301 -8.66699 18.333 -16.334 27 -23.001s17.667 -12.167 27 -16.5s19.666 -7.66602 30.999 -9.99902s24.666 -3.5 39.999 -3.5c25.333 0 47.166 4.16699 65.499 12.5s33.5 20 45.5 35s20.833 32.667 26.5 53s8.5 42.5 8.5 66.5v86c-21.333 -28 -43.5 -46.333 -66.5 -55
s-48.5 -13 -76.5 -13c-25.333 0 -48.166 3.83301 -68.499 11.5s-36.833 17.834 -49.5 30.501c-24.667 24.667 -41.167 55.5 -49.5 92.5s-12.5 74.5 -12.5 112.5s4.16699 75.5 12.5 112.5s24.833 67.833 49.5 92.5c12.667 12.667 29.167 22.834 49.5 30.501
s43.166 11.5 68.499 11.5c28 0 53.5 -4.33301 76.5 -13s45.167 -27 66.5 -55v62h51v-509zM392.001 241c0 24.667 -1.5 49.167 -4.5 73.5s-9.33301 46 -19 65s-23.5 34.333 -41.5 46s-41.667 17.5 -71 17.5s-53 -5.83301 -71 -17.5s-31.833 -27 -41.5 -46
s-16 -40.667 -19 -65s-4.5 -48.833 -4.5 -73.5c0 -25.333 1.5 -50 4.5 -74s9.33301 -45.5 19 -64.5s23.5 -34.333 41.5 -46s41.667 -17.5 71 -17.5s53 5.83301 71 17.5s31.833 27 41.5 46s16 40.5 19 64.5s4.5 48.667 4.5 74zM281.001 590h-58l97 147h67z" />
    <glyph glyph-name="Hcircumflex" unicode="&#x124;" horiz-adv-x="699" 
d="M535 0v335h-371v-335h-54v712h54v-329h371v329h54v-712h-54zM443 780l-93 109l-93 -109h-57l123 147h54l123 -147h-57z" />
    <glyph glyph-name="hcircumflex" unicode="&#x125;" 
d="M417 0v299.001c0 46.667 -11.167 82.334 -33.5 107.001s-55.5 37 -99.5 37s-77.667 -12.333 -101 -37s-35 -60.334 -35 -107.001v-299h-51v712h51v-287c36 42 83.333 63 142 63c56 0 99.667 -15.833 131 -47.5s47 -75.834 47 -132.501v-308h-51zM217 780.001l-93 109
l-93 -109h-57l123 147h54l123 -147h-57z" />
    <glyph glyph-name="Hbar" unicode="&#x126;" horiz-adv-x="711" 
d="M541 0v335h-371v-335h-54v517h-76v42h76v153h54v-153h371v153h54v-153h76v-42h-76v-517h-54zM541 517h-371v-134h371v134z" />
    <glyph glyph-name="hbar" unicode="&#x127;" horiz-adv-x="569" 
d="M427 0l0.000976562 298.999c0 46.667 -11.333 82.334 -34 107.001s-55.667 37 -99 37s-76.833 -12.5 -100.5 -37.5s-35.5 -60.5 -35.5 -106.5v-299h-51v574h-65v36h65v102h51v-102h136v-36h-136v-149c21.333 22 42.666 38 63.999 48s47.666 15 78.999 15
c54.667 0 97.834 -16 129.501 -48s47.5 -76 47.5 -132v-308h-51z" />
    <glyph glyph-name="Itilde" unicode="&#x128;" horiz-adv-x="274" 
d="M110 0v712h54v-712h-54zM287 843c-11.333 -11.333 -21.501 -20.3311 -30.501 -26.998s-17.167 -11.5 -24.5 -14.5s-13.666 -4.83301 -18.999 -5.5s-10.333 -1 -15 -1c-11.333 0 -21.833 1.66699 -31.5 5s-22.167 9.66602 -37.5 18.999
c-9.33301 5.33301 -18.5 10.166 -27.5 14.499s-18.5 6.5 -28.5 6.5c-8 0 -16 -1.66699 -24 -5s-19.667 -12.666 -35 -27.999l-30 29c11.333 11.333 21.5 20.333 30.5 27s17 11.5 24 14.5s13.333 4.83301 19 5.5s10.834 1 15.501 1c14.667 0 26.834 -2.16699 36.501 -6.5
s20.5 -10.166 32.5 -17.499c10.667 -6.66699 20.167 -11.834 28.5 -15.501s17.5 -5.5 27.5 -5.5c7.33301 0 15.166 1.66699 23.499 5s20.166 12.666 35.499 27.999l30 -29v0z" />
    <glyph glyph-name="itilde" unicode="&#x129;" horiz-adv-x="245" 
d="M97 0v482h51v-482h-51zM275 653c-11.333 -11.333 -21.501 -20.3311 -30.501 -26.998s-17.167 -11.5 -24.5 -14.5s-13.666 -4.83301 -18.999 -5.5s-10.333 -1 -15 -1c-11.333 0 -21.833 1.66699 -31.5 5s-22.167 9.66602 -37.5 18.999
c-9.33301 5.33301 -18.5 10.166 -27.5 14.499s-18.5 6.5 -28.5 6.5c-8 0 -16 -1.66699 -24 -5s-19.667 -12.666 -35 -27.999l-30 29c11.333 11.333 21.5 20.333 30.5 27s17 11.5 24 14.5s13.333 4.83301 19 5.5s10.834 1 15.501 1c14.667 0 26.834 -2.16699 36.501 -6.5
s20.5 -10.166 32.5 -17.499c10.667 -6.66699 20.167 -11.834 28.5 -15.501s17.5 -5.5 27.5 -5.5c7.33301 0 15.166 1.66699 23.499 5s20.166 12.666 35.499 27.999l30 -29v0z" />
    <glyph glyph-name="Imacron" unicode="&#x12a;" horiz-adv-x="274" 
d="M110 0v712h54v-712h-54zM-10 800v46h296v-46h-296z" />
    <glyph glyph-name="imacron" unicode="&#x12b;" horiz-adv-x="245" 
d="M97 0v482h51v-482h-51zM-24 610v46h296v-46h-296z" />
    <glyph glyph-name="Ibreve" unicode="&#x12c;" horiz-adv-x="274" 
d="M110 0v712h54v-712h-54zM303 927c-4.66699 -42.667 -19.834 -75.834 -45.501 -99.501s-65.5 -35.5 -119.5 -35.5s-93.833 11.833 -119.5 35.5s-40.834 56.834 -45.501 99.501h45c4 -28 16.333 -50 37 -66s48.334 -24 83.001 -24s62.334 8 83.001 24s33 38 37 66h45v0z
" />
    <glyph glyph-name="ibreve" unicode="&#x12d;" horiz-adv-x="245" 
d="M97 0v482h51v-482h-51zM288 722c-4.66699 -42.667 -19.834 -75.834 -45.501 -99.501s-65.5 -35.5 -119.5 -35.5s-93.833 11.833 -119.5 35.5s-40.834 56.834 -45.501 99.501h45c4 -28 16.333 -50 37 -66s48.334 -24 83.001 -24s62.334 8 83.001 24s33 38 37 66h45v0z" />
    <glyph glyph-name="Iogonek" unicode="&#x12e;" horiz-adv-x="274" 
d="M110 0v712h54v-712h-54zM102 -220h-63l72 150h55z" />
    <glyph glyph-name="iogonek" unicode="&#x12f;" horiz-adv-x="245" 
d="M97 0v482h51v-482h-51zM91 649v63h63v-63h-63zM89 -220h-63l72 150h55z" />
    <glyph glyph-name="Idotaccent" unicode="&#x130;" horiz-adv-x="274" 
d="M110 0v712h54v-712h-54zM107 800v63h62v-63h-62z" />
    <glyph glyph-name="dotlessi" unicode="&#x131;" horiz-adv-x="245" 
d="M97 0v482h51v-482h-51z" />
    <glyph glyph-name="IJ" unicode="&#x132;" horiz-adv-x="772" 
d="M110 0v712h54v-712h-54zM672 210c0 -32.667 -4.99902 -62.167 -14.999 -88.5s-24.167 -49 -42.5 -68s-40.666 -33.667 -66.999 -44s-55.5 -15.5 -87.5 -15.5c-63.333 0 -115.333 20.333 -156 61l37 37c13.333 -13.333 28.666 -25 45.999 -35s41.666 -15 72.999 -15
c52 0 91.333 15.333 118 46s40 75 40 133v491h54v-502z" />
    <glyph glyph-name="ij" unicode="&#x133;" horiz-adv-x="490" 
d="M97 0v482h51v-482h-51zM91 649v63h63v-63h-63zM393 -105c0 -38 -9.33301 -68.333 -28 -91s-48 -34 -88 -34h-44v45h35c28.667 0 48.167 6.5 58.5 19.5s15.5 33.5 15.5 61.5v586h51v-587zM336 649v63h63v-63h-63z" />
    <glyph glyph-name="Jcircumflex" unicode="&#x134;" horiz-adv-x="498" 
d="M398 210c0 -32.667 -4.99902 -62.167 -14.999 -88.5s-24.167 -49 -42.5 -68s-40.666 -33.667 -66.999 -44s-55.5 -15.5 -87.5 -15.5c-63.333 0 -115.333 20.333 -156 61l37 37c13.333 -13.333 28.666 -25 45.999 -35s41.666 -15 72.999 -15c52 0 91.333 15.333 118 46
s40 75 40 133v491h54v-502zM464.001 780l-93 109l-93 -109h-57l123 147h54l123 -147h-57z" />
    <glyph glyph-name="jcircumflex" unicode="&#x135;" horiz-adv-x="245" 
d="M148 -105c0 -38 -9.33301 -68.333 -28 -91s-48 -34 -88 -34h-44v45h35c28.667 0 48.167 6.5 58.5 19.5s15.5 33.5 15.5 61.5v586h51v-587zM216 590l-93 109l-93 -109h-57l123 147h54l123 -147h-57z" />
    <glyph glyph-name="Kcommaaccent" unicode="&#x136;" horiz-adv-x="645" 
d="M563 0l-229 399l-170 -206v-193h-54v712h54v-445l361 445h65l-220 -272l257 -440h-64zM317 -220h-63l72 150h55z" />
    <glyph glyph-name="kcommaaccent" unicode="&#x137;" horiz-adv-x="527" 
d="M424 0l-166 265l-110 -127v-138h-51v712h51v-502l239 272h65l-159 -180l194 -302h-63zM257 -220h-63l72 150h55z" />
    <glyph glyph-name="kgreenlandic" unicode="&#x138;" horiz-adv-x="527" 
d="M424 0l-166 265l-110 -127v-138h-51v482h51v-272l239 272h65l-159 -180l194 -302h-63z" />
    <glyph glyph-name="Lacute" unicode="&#x139;" horiz-adv-x="572" 
d="M110 0v712h54v-664h378v-48h-432zM162 780h-58l97 147h67z" />
    <glyph glyph-name="lacute" unicode="&#x13a;" horiz-adv-x="287" 
d="M211 0c-40 0 -69.333 11.333 -88 34s-28 53 -28 91v587h51v-586c0 -28 5.16699 -48.5 15.5 -61.5s29.833 -19.5 58.5 -19.5h35v-45h-44zM154 780h-58l97 147h67z" />
    <glyph glyph-name="Lcommaaccent" unicode="&#x13b;" horiz-adv-x="572" 
d="M110 0v712h54v-664h378v-48h-432zM280 -220h-63l72 150h55z" />
    <glyph glyph-name="lcommaaccent" unicode="&#x13c;" horiz-adv-x="287" 
d="M211 0c-40 0 -69.333 11.333 -88 34s-28 53 -28 91v587h51v-586c0 -28 5.16699 -48.5 15.5 -61.5s29.833 -19.5 58.5 -19.5h35v-45h-44zM138 -220h-63l72 150h55z" />
    <glyph glyph-name="Lcaron" unicode="&#x13d;" horiz-adv-x="572" 
d="M110 0v712h54v-664h378v-48h-432zM335 564h-47l40 148h55z" />
    <glyph glyph-name="lcaron" unicode="&#x13e;" horiz-adv-x="287" 
d="M211 0c-40 0 -69.333 11.333 -88 34s-28 53 -28 91v587h51v-586c0 -28 5.16699 -48.5 15.5 -61.5s29.833 -19.5 58.5 -19.5h35v-45h-44zM256 564h-47l40 148h55z" />
    <glyph glyph-name="Ldot" unicode="&#x13f;" horiz-adv-x="572" 
d="M110 0v712h54v-664h378v-48h-432zM397 328v63h62v-63h-62z" />
    <glyph glyph-name="ldot" unicode="&#x140;" horiz-adv-x="293" 
d="M211 0c-40 0 -69.333 11.333 -88 34s-28 53 -28 91v587h51v-586c0 -28 5.16699 -48.5 15.5 -61.5s29.833 -19.5 58.5 -19.5h35v-45h-44zM236 233v63h62v-63h-62z" />
    <glyph glyph-name="Lslash" unicode="&#x141;" horiz-adv-x="578" 
d="M116 0v306l-76 -48v48l76 48v358h54v-324l164 104v-48l-164 -104v-292h378v-48h-432z" />
    <glyph glyph-name="lslash" unicode="&#x142;" horiz-adv-x="308" 
d="M222 0c-40 0 -69.333 11.333 -88 34s-28 53 -28 91v231l-66 -41v45l66 41v311h51v-279l88 55v-45l-88 -55v-262c0 -28 5.16699 -48.5 15.5 -61.5s29.833 -19.5 58.5 -19.5h35v-45h-44z" />
    <glyph glyph-name="Nacute" unicode="&#x143;" horiz-adv-x="739" 
d="M575 0l-411 619v-619h-54v712h54l411 -617v617h54v-712h-54zM380 780h-58l97 147h67z" />
    <glyph glyph-name="nacute" unicode="&#x144;" 
d="M417 0v298.999c0 46.667 -11.167 82.334 -33.5 107.001s-55.5 37 -99.5 37s-77.667 -12.5 -101 -37.5s-35 -60.5 -35 -106.5v-299h-51v482h51v-57c36 42 83.333 63 142 63c54 0 96.667 -15.333 128 -46c33.333 -32 50 -76.667 50 -134v-308h-51zM290 589.999h-58l97 147
h67z" />
    <glyph glyph-name="Ncommaaccent" unicode="&#x145;" horiz-adv-x="739" 
d="M575 0l-411 619v-619h-54v712h54l411 -617v617h54v-712h-54zM353 -220h-63l72 150h55z" />
    <glyph glyph-name="ncommaaccent" unicode="&#x146;" 
d="M417 0v298.999c0 46.667 -11.167 82.334 -33.5 107.001s-55.5 37 -99.5 37s-77.667 -12.5 -101 -37.5s-35 -60.5 -35 -106.5v-299h-51v482h51v-57c36 42 83.333 63 142 63c54 0 96.667 -15.333 128 -46c33.333 -32 50 -76.667 50 -134v-308h-51zM273 -220.001h-63l72 150
h55z" />
    <glyph glyph-name="Ncaron" unicode="&#x147;" horiz-adv-x="739" 
d="M575 0l-411 619v-619h-54v712h54l411 -617v617h54v-712h-54zM396 780h-54l-123 147h57l93 -109l93 109h57z" />
    <glyph glyph-name="ncaron" unicode="&#x148;" 
d="M417 0v298.999c0 46.667 -11.167 82.334 -33.5 107.001s-55.5 37 -99.5 37s-77.667 -12.5 -101 -37.5s-35 -60.5 -35 -106.5v-299h-51v482h51v-57c36 42 83.333 63 142 63c54 0 96.667 -15.333 128 -46c33.333 -32 50 -76.667 50 -134v-308h-51zM306 589.999h-54
l-123 147h57l93 -109l93 109h57z" />
    <glyph glyph-name="napostrophe" unicode="&#x149;" 
d="M417 0v298.999c0 46.667 -11.167 82.334 -33.5 107.001s-55.5 37 -99.5 37s-77.667 -12.5 -101 -37.5s-35 -60.5 -35 -106.5v-299h-51v482h51v-57c36 42 83.333 63 142 63c54 0 96.667 -15.333 128 -46c33.333 -32 50 -76.667 50 -134v-308h-51zM45 527.999v184h53v-128z
" />
    <glyph glyph-name="Eng" unicode="&#x14a;" horiz-adv-x="739" 
d="M629 -95c0 -38 -9.33301 -68.333 -28 -91s-48 -34 -88 -34h-44v45h32c28.667 0 48.167 6.5 58.5 19.5s15.5 33.5 15.5 61.5v94l-411 619v-619h-54v712h54l411 -617v617h54v-807z" />
    <glyph glyph-name="eng" unicode="&#x14b;" 
d="M468 -95c0 -38 -9.33301 -68.334 -28 -91.001s-48 -34 -88 -34h-44v45h35c28.667 0 48.167 6.5 58.5 19.5s15.5 33.5 15.5 61.5v393c0 46.667 -11.167 82.334 -33.5 107.001s-55.5 37 -99.5 37s-77.667 -12.5 -101 -37.5s-35 -60.5 -35 -106.5v-299h-51v482h51v-57
c36 42 83.333 63 142 63c54 0 96.667 -15.333 128 -46c33.333 -32 50 -76.667 50 -134v-403z" />
    <glyph glyph-name="Omacron" unicode="&#x14c;" horiz-adv-x="652" 
d="M570 356c0 -43.333 -0.666992 -79.833 -2 -109.5s-4.33301 -55.5 -9 -77.5s-11.667 -41.167 -21 -57.5s-22.333 -32.833 -39 -49.5c-21.333 -21.333 -46.5 -38 -75.5 -50s-61.5 -18 -97.5 -18s-68.5 6 -97.5 18s-54.167 28.667 -75.5 50
c-16.667 16.667 -29.667 33.167 -39 49.5s-16.333 35.5 -21 57.5s-7.66699 47.833 -9 77.5s-2 66.167 -2 109.5s0.666992 79.833 2 109.5s4.33301 55.5 9 77.5s11.667 41.167 21 57.5s22.333 32.833 39 49.5c21.333 21.333 46.5 38 75.5 50s61.5 18 97.5 18
s68.5 -6 97.5 -18s54.167 -28.667 75.5 -50c16.667 -16.667 29.667 -33.167 39 -49.5s16.333 -35.5 21 -57.5s7.66699 -47.833 9 -77.5s2 -66.167 2 -109.5zM516 356c0 37.333 -0.5 69.5 -1.5 96.5s-3.33301 50.333 -7 70s-9.16699 36.834 -16.5 51.501
s-17.333 28.334 -30 41.001c-36.667 36.667 -81.667 55 -135 55s-98.333 -18.333 -135 -55c-12.667 -12.667 -22.667 -26.334 -30 -41.001s-12.833 -31.834 -16.5 -51.501s-6 -43 -7 -70s-1.5 -59.167 -1.5 -96.5s0.5 -69.5 1.5 -96.5s3.33301 -50.333 7 -70
s9.16699 -36.834 16.5 -51.501s17.333 -28.334 30 -41.001c36.667 -36.667 81.667 -55 135 -55s98.333 18.333 135 55c12.667 12.667 22.667 26.334 30 41.001s12.833 31.834 16.5 51.501s6 43 7 70s1.5 59.167 1.5 96.5zM178 800v46h296v-46h-296z" />
    <glyph glyph-name="omacron" unicode="&#x14d;" horiz-adv-x="526" 
d="M457 241c0 -34.667 -3.66699 -69.334 -11 -104.001s-23.666 -64.667 -48.999 -90c-35.333 -35.333 -80 -53 -134 -53s-98.667 17.667 -134 53c-25.333 25.333 -41.666 55.333 -48.999 90s-11 69.334 -11 104.001s3.66699 69.334 11 104.001s23.666 64.667 48.999 90
c35.333 35.333 80 53 134 53s98.667 -17.667 134 -53c25.333 -25.333 41.666 -55.333 48.999 -90s11 -69.334 11 -104.001zM406 241c0 14 -0.333008 28.333 -1 43s-2.5 29.167 -5.5 43.5s-7.33301 27.833 -13 40.5s-13.5 24 -23.5 34c-27.333 27.333 -60.666 41 -99.999 41
s-72.666 -13.667 -99.999 -41c-10 -10 -17.833 -21.333 -23.5 -34s-10 -26.167 -13 -40.5s-4.83301 -28.833 -5.5 -43.5s-1 -29 -1 -43s0.333008 -28.333 1 -43s2.5 -29.167 5.5 -43.5s7.33301 -27.833 13 -40.5s13.5 -24 23.5 -34c27.333 -27.333 60.666 -41 99.999 -41
s72.666 13.667 99.999 41c10 10 17.833 21.333 23.5 34s10 26.167 13 40.5s4.83301 28.833 5.5 43.5s1 29 1 43zM115 610v46h296v-46h-296z" />
    <glyph glyph-name="Obreve" unicode="&#x14e;" horiz-adv-x="652" 
d="M570 356c0 -43.333 -0.666992 -79.833 -2 -109.5s-4.33301 -55.5 -9 -77.5s-11.667 -41.167 -21 -57.5s-22.333 -32.833 -39 -49.5c-21.333 -21.333 -46.5 -38 -75.5 -50s-61.5 -18 -97.5 -18s-68.5 6 -97.5 18s-54.167 28.667 -75.5 50
c-16.667 16.667 -29.667 33.167 -39 49.5s-16.333 35.5 -21 57.5s-7.66699 47.833 -9 77.5s-2 66.167 -2 109.5s0.666992 79.833 2 109.5s4.33301 55.5 9 77.5s11.667 41.167 21 57.5s22.333 32.833 39 49.5c21.333 21.333 46.5 38 75.5 50s61.5 18 97.5 18
s68.5 -6 97.5 -18s54.167 -28.667 75.5 -50c16.667 -16.667 29.667 -33.167 39 -49.5s16.333 -35.5 21 -57.5s7.66699 -47.833 9 -77.5s2 -66.167 2 -109.5zM516 356c0 37.333 -0.5 69.5 -1.5 96.5s-3.33301 50.333 -7 70s-9.16699 36.834 -16.5 51.501
s-17.333 28.334 -30 41.001c-36.667 36.667 -81.667 55 -135 55s-98.333 -18.333 -135 -55c-12.667 -12.667 -22.667 -26.334 -30 -41.001s-12.833 -31.834 -16.5 -51.501s-6 -43 -7 -70s-1.5 -59.167 -1.5 -96.5s0.5 -69.5 1.5 -96.5s3.33301 -50.333 7 -70
s9.16699 -36.834 16.5 -51.501s17.333 -28.334 30 -41.001c36.667 -36.667 81.667 -55 135 -55s98.333 18.333 135 55c12.667 12.667 22.667 26.334 30 41.001s12.833 31.834 16.5 51.501s6 43 7 70s1.5 59.167 1.5 96.5zM491 927
c-4.66699 -42.667 -19.834 -75.834 -45.501 -99.501s-65.5 -35.5 -119.5 -35.5s-93.833 11.833 -119.5 35.5s-40.834 56.834 -45.501 99.501h45c4 -28 16.333 -50 37 -66s48.334 -24 83.001 -24s62.334 8 83.001 24s33 38 37 66h45v0z" />
    <glyph glyph-name="obreve" unicode="&#x14f;" horiz-adv-x="526" 
d="M457 241c0 -34.667 -3.66699 -69.334 -11 -104.001s-23.666 -64.667 -48.999 -90c-35.333 -35.333 -80 -53 -134 -53s-98.667 17.667 -134 53c-25.333 25.333 -41.666 55.333 -48.999 90s-11 69.334 -11 104.001s3.66699 69.334 11 104.001s23.666 64.667 48.999 90
c35.333 35.333 80 53 134 53s98.667 -17.667 134 -53c25.333 -25.333 41.666 -55.333 48.999 -90s11 -69.334 11 -104.001zM406 241c0 14 -0.333008 28.333 -1 43s-2.5 29.167 -5.5 43.5s-7.33301 27.833 -13 40.5s-13.5 24 -23.5 34c-27.333 27.333 -60.666 41 -99.999 41
s-72.666 -13.667 -99.999 -41c-10 -10 -17.833 -21.333 -23.5 -34s-10 -26.167 -13 -40.5s-4.83301 -28.833 -5.5 -43.5s-1 -29 -1 -43s0.333008 -28.333 1 -43s2.5 -29.167 5.5 -43.5s7.33301 -27.833 13 -40.5s13.5 -24 23.5 -34c27.333 -27.333 60.666 -41 99.999 -41
s72.666 13.667 99.999 41c10 10 17.833 21.333 23.5 34s10 26.167 13 40.5s4.83301 28.833 5.5 43.5s1 29 1 43zM403 697c-3.33301 -42 -17 -72.5 -41 -91.5s-57 -28.5 -99 -28.5s-75 9.5 -99 28.5s-37.667 49.5 -41 91.5h51c5.33301 -53.333 35 -80 89 -80
s83.667 26.667 89 80h51v0z" />
    <glyph glyph-name="Ohungarumlaut" unicode="&#x150;" horiz-adv-x="652" 
d="M570 356c0 -43.333 -0.666992 -79.833 -2 -109.5s-4.33301 -55.5 -9 -77.5s-11.667 -41.167 -21 -57.5s-22.333 -32.833 -39 -49.5c-21.333 -21.333 -46.5 -38 -75.5 -50s-61.5 -18 -97.5 -18s-68.5 6 -97.5 18s-54.167 28.667 -75.5 50
c-16.667 16.667 -29.667 33.167 -39 49.5s-16.333 35.5 -21 57.5s-7.66699 47.833 -9 77.5s-2 66.167 -2 109.5s0.666992 79.833 2 109.5s4.33301 55.5 9 77.5s11.667 41.167 21 57.5s22.333 32.833 39 49.5c21.333 21.333 46.5 38 75.5 50s61.5 18 97.5 18
s68.5 -6 97.5 -18s54.167 -28.667 75.5 -50c16.667 -16.667 29.667 -33.167 39 -49.5s16.333 -35.5 21 -57.5s7.66699 -47.833 9 -77.5s2 -66.167 2 -109.5zM516 356c0 37.333 -0.5 69.5 -1.5 96.5s-3.33301 50.333 -7 70s-9.16699 36.834 -16.5 51.501
s-17.333 28.334 -30 41.001c-36.667 36.667 -81.667 55 -135 55s-98.333 -18.333 -135 -55c-12.667 -12.667 -22.667 -26.334 -30 -41.001s-12.833 -31.834 -16.5 -51.501s-6 -43 -7 -70s-1.5 -59.167 -1.5 -96.5s0.5 -69.5 1.5 -96.5s3.33301 -50.333 7 -70
s9.16699 -36.834 16.5 -51.501s17.333 -28.334 30 -41.001c36.667 -36.667 81.667 -55 135 -55s98.333 18.333 135 55c12.667 12.667 22.667 26.334 30 41.001s12.833 31.834 16.5 51.501s6 43 7 70s1.5 59.167 1.5 96.5zM264 780h-58l97 147h67zM410 780h-57l97 147h67z
" />
    <glyph glyph-name="ohungarumlaut" unicode="&#x151;" horiz-adv-x="526" 
d="M457 241c0 -34.667 -3.66699 -69.334 -11 -104.001s-23.666 -64.667 -48.999 -90c-35.333 -35.333 -80 -53 -134 -53s-98.667 17.667 -134 53c-25.333 25.333 -41.666 55.333 -48.999 90s-11 69.334 -11 104.001s3.66699 69.334 11 104.001s23.666 64.667 48.999 90
c35.333 35.333 80 53 134 53s98.667 -17.667 134 -53c25.333 -25.333 41.666 -55.333 48.999 -90s11 -69.334 11 -104.001zM406 241c0 14 -0.333008 28.333 -1 43s-2.5 29.167 -5.5 43.5s-7.33301 27.833 -13 40.5s-13.5 24 -23.5 34c-27.333 27.333 -60.666 41 -99.999 41
s-72.666 -13.667 -99.999 -41c-10 -10 -17.833 -21.333 -23.5 -34s-10 -26.167 -13 -40.5s-4.83301 -28.833 -5.5 -43.5s-1 -29 -1 -43s0.333008 -28.333 1 -43s2.5 -29.167 5.5 -43.5s7.33301 -27.833 13 -40.5s13.5 -24 23.5 -34c27.333 -27.333 60.666 -41 99.999 -41
s72.666 13.667 99.999 41c10 10 17.833 21.333 23.5 34s10 26.167 13 40.5s4.83301 28.833 5.5 43.5s1 29 1 43zM201 590h-58l97 147h67zM347 590h-57l97 147h67z" />
    <glyph glyph-name="OE" unicode="&#x152;" horiz-adv-x="997" 
d="M516 0v85c-24 -30 -52.5 -52.667 -85.5 -68s-67.833 -23 -104.5 -23c-36 0 -68.5 6 -97.5 18s-54.167 28.667 -75.5 50c-16.667 16.667 -29.667 33.167 -39 49.5s-16.333 35.5 -21 57.5s-7.66699 47.833 -9 77.5s-2 66.167 -2 109.5s0.666992 79.833 2 109.5
s4.33301 55.5 9 77.5s11.667 41.167 21 57.5s22.333 32.833 39 49.5c21.333 21.333 46.5 38 75.5 50s61.5 18 97.5 18c78 0 141.333 -30.333 190 -91v85h422v-47h-369c0 -48 0.166992 -95.5 0.5 -142.5s0.5 -94.5 0.5 -142.5h313v-42h-313
c0 -48.667 -0.166992 -97.167 -0.5 -145.5s-0.5 -96.833 -0.5 -145.5h372v-47h-425zM516 356c0 37.333 -0.5 69.5 -1.5 96.5s-3.33301 50.333 -7 70s-9.16699 36.834 -16.5 51.501s-17.333 28.334 -30 41.001c-36.667 36.667 -81.667 55 -135 55s-98.333 -18.333 -135 -55
c-12.667 -12.667 -22.667 -26.334 -30 -41.001s-12.833 -31.834 -16.5 -51.501s-6 -43 -7 -70s-1.5 -59.167 -1.5 -96.5s0.5 -69.5 1.5 -96.5s3.33301 -50.333 7 -70s9.16699 -36.834 16.5 -51.501s17.333 -28.334 30 -41.001c36.667 -36.667 81.667 -55 135 -55
s98.333 18.333 135 55c12.667 12.667 22.667 26.334 30 41.001s12.833 31.834 16.5 51.501s6 43 7 70s1.5 59.167 1.5 96.5z" />
    <glyph glyph-name="oe" unicode="&#x153;" horiz-adv-x="860" 
d="M457 230c0 -62 13.166 -109.17 39.499 -141.503s65.5 -48.5 117.5 -48.5c28.667 0 52.834 4.5 72.501 13.5s39.834 23.833 60.501 44.5l38 -30c-12 -12 -24.167 -22.667 -36.5 -32s-25.333 -17.166 -39 -23.499s-28.5 -11 -44.5 -14s-34 -4.5 -54 -4.5
c-86 0 -145.333 35 -178 105c-15.333 -34 -38 -60 -68 -78s-64 -27 -102 -27c-54 0 -98.667 17.667 -134 53c-25.333 25.333 -41.666 55.333 -48.999 90s-11 69.334 -11 104.001s3.66699 69.334 11 104.001s23.666 64.667 48.999 90c35.333 35.333 80 53 134 53
c38 0 72 -9 102 -27s52.667 -44 68 -78c15.333 34 37.166 60 65.499 78s61.833 27 100.5 27c60.667 0 108 -20.5 142 -61.5s51 -98.833 51 -173.5v-23h-335zM405.999 240.997c0 14 -0.333008 28.333 -1 43s-2.5 29.167 -5.5 43.5s-7.33301 27.833 -13 40.5
s-13.5 24 -23.5 34c-27.333 27.333 -60.666 41 -99.999 41s-72.666 -13.667 -99.999 -41c-10 -10 -17.833 -21.333 -23.5 -34s-10 -26.167 -13 -40.5s-4.83301 -28.833 -5.5 -43.5s-1 -29 -1 -43s0.333008 -28.333 1 -43s2.5 -29.167 5.5 -43.5s7.33301 -27.833 13 -40.5
s13.5 -24 23.5 -34c27.333 -27.333 60.666 -41 99.999 -41s72.666 13.667 99.999 41c10 10 17.833 21.333 23.5 34s10 26.167 13 40.5s4.83301 28.833 5.5 43.5s1 29 1 43zM740.999 270.997c-0.666992 11.333 -1.33496 21.167 -2.00195 29.5s-1.5 15.833 -2.5 22.5
s-2.5 13 -4.5 19s-4.66699 12.667 -8 20c-10.667 25.333 -27.167 45.166 -49.5 59.499s-47.5 21.5 -75.5 21.5s-53.5 -7.16699 -76.5 -21.5s-39.167 -34.166 -48.5 -59.499c-5.33301 -13.333 -9.16602 -26 -11.499 -38s-4.16602 -29.667 -5.49902 -53h284z" />
    <glyph glyph-name="Racute" unicode="&#x154;" horiz-adv-x="657" 
d="M530 0l-169.999 328.001h-196v-328h-54v712h271c28.667 0 55.5 -4.16699 80.5 -12.5s46.667 -20.5 65 -36.5s32.666 -36 42.999 -60s15.5 -51.333 15.5 -82c0 -54 -14.833 -97.333 -44.5 -130s-69.5 -53.334 -119.5 -62.001l172 -329h-63zM531.001 520.001
c0 49.333 -14.667 85.668 -44 109.001s-67 35 -113 35h-210v-288h210c46 0 83.667 11.667 113 35s44 59.666 44 108.999zM339.001 780.003h-58l97 147h67z" />
    <glyph glyph-name="racute" unicode="&#x155;" horiz-adv-x="409" 
d="M368 405c-14.667 14.667 -28.499 24.667 -41.499 30s-29.5 8 -49.5 8c-20.667 0 -39 -4 -55 -12s-29.5 -18.667 -40.5 -32s-19.333 -28.833 -25 -46.5s-8.5 -36.167 -8.5 -55.5v-297h-51v482h51v-64c14 22.667 33.833 40 59.5 52s52.834 18 81.501 18
c23.333 0 44.166 -3.33301 62.499 -10s36.166 -18.667 53.499 -36zM217.001 590h-58l97 147h67z" />
    <glyph glyph-name="Rcommaaccent" unicode="&#x156;" horiz-adv-x="657" 
d="M530 0l-169.999 328.001h-196v-328h-54v712h271c28.667 0 55.5 -4.16699 80.5 -12.5s46.667 -20.5 65 -36.5s32.666 -36 42.999 -60s15.5 -51.333 15.5 -82c0 -54 -14.833 -97.333 -44.5 -130s-69.5 -53.334 -119.5 -62.001l172 -329h-63zM531.001 520.001
c0 49.333 -14.667 85.668 -44 109.001s-67 35 -113 35h-210v-288h210c46 0 83.667 11.667 113 35s44 59.666 44 108.999zM321.001 -219.997h-63l72 150h55z" />
    <glyph glyph-name="rcommaaccent" unicode="&#x157;" horiz-adv-x="409" 
d="M368 405c-14.667 14.667 -28.499 24.667 -41.499 30s-29.5 8 -49.5 8c-20.667 0 -39 -4 -55 -12s-29.5 -18.667 -40.5 -32s-19.333 -28.833 -25 -46.5s-8.5 -36.167 -8.5 -55.5v-297h-51v482h51v-64c14 22.667 33.833 40 59.5 52s52.834 18 81.501 18
c23.333 0 44.166 -3.33301 62.499 -10s36.166 -18.667 53.499 -36zM88.001 -220h-63l72 150h55z" />
    <glyph glyph-name="Rcaron" unicode="&#x158;" horiz-adv-x="657" 
d="M530 0l-169.999 328.001h-196v-328h-54v712h271c28.667 0 55.5 -4.16699 80.5 -12.5s46.667 -20.5 65 -36.5s32.666 -36 42.999 -60s15.5 -51.333 15.5 -82c0 -54 -14.833 -97.333 -44.5 -130s-69.5 -53.334 -119.5 -62.001l172 -329h-63zM531.001 520.001
c0 49.333 -14.667 85.668 -44 109.001s-67 35 -113 35h-210v-288h210c46 0 83.667 11.667 113 35s44 59.666 44 108.999zM355.001 780.003h-54l-123 147h57l93 -109l93 109h57z" />
    <glyph glyph-name="rcaron" unicode="&#x159;" horiz-adv-x="409" 
d="M368 405c-14.667 14.667 -28.499 24.667 -41.499 30s-29.5 8 -49.5 8c-20.667 0 -39 -4 -55 -12s-29.5 -18.667 -40.5 -32s-19.333 -28.833 -25 -46.5s-8.5 -36.167 -8.5 -55.5v-297h-51v482h51v-64c14 22.667 33.833 40 59.5 52s52.834 18 81.501 18
c23.333 0 44.166 -3.33301 62.499 -10s36.166 -18.667 53.499 -36zM233.001 590h-54l-123 147h57l93 -109l93 109h57z" />
    <glyph glyph-name="Sacute" unicode="&#x15a;" horiz-adv-x="587" 
d="M528 191c0 -30 -5.50098 -57.1621 -16.501 -81.4951s-26.833 -45 -47.5 -62s-45.834 -30.167 -75.501 -39.5s-63.167 -14 -100.5 -14c-52.667 0 -97.167 7.5 -133.5 22.5s-70.833 38.833 -103.5 71.5l38 38c16 -16 31.5 -29.333 46.5 -40s30.5 -19.334 46.5 -26.001
s32.833 -11.334 50.5 -14.001s37.167 -4 58.5 -4c56.667 0 101.334 12.833 134.001 38.5s49 61.834 49 108.501c0 44.667 -13 78 -39 100c-6 5.33301 -12.167 10 -18.5 14s-13.333 7.33301 -21 10s-16.667 5.16699 -27 7.5s-22.5 4.5 -36.5 6.5l-83 13
c-54.667 8 -97 25 -127 51c-37.333 31.333 -56 75.333 -56 132c0 30 5.16699 57 15.5 81s25 44.5 44 61.5s42.167 30 69.5 39s58 13.5 92 13.5c44 0 81.5 -6.16699 112.5 -18.5s61.833 -31.833 92.5 -58.5l-35 -35c-10.667 10 -21.667 19 -33 27s-23.833 15 -37.5 21
s-29 10.5 -46 13.5s-35.833 4.5 -56.5 4.5c-52 0 -92.5 -13 -121.5 -39s-43.5 -62 -43.5 -108c0 -42.667 12 -74 36 -94c12.667 -10.667 27.834 -19.334 45.501 -26.001s36.5 -11.667 56.5 -15l83 -13c16.667 -2.66699 31 -5.33398 43 -8.00098
s22.833 -5.83398 32.5 -9.50098s18.667 -8.16699 27 -13.5s16.5 -11.333 24.5 -18c19.333 -16.667 34.333 -36.334 45 -59.001s16 -48.667 16 -78zM304.999 780.005h-58l97 147h67z" />
    <glyph glyph-name="sacute" unicode="&#x15b;" horiz-adv-x="494" 
d="M438 137c0 -44 -17.1641 -78.834 -51.4971 -104.501s-81.5 -38.5 -141.5 -38.5c-42 0 -78.833 5.66699 -110.5 17s-59.834 28.666 -84.501 51.999l35 35c37.333 -39.333 90 -59 158 -59c96.667 0 145 32.667 145 98c0 25.333 -7.33301 44.333 -22 57s-38 20.667 -70 24
l-80 7c-96.667 8 -145 50 -145 126c0 42 15.667 75.333 47 100s73.333 37 126 37c34 0 65.333 -4.5 94 -13.5s53.667 -21.5 75 -37.5l-34 -34c-37.333 27.333 -82.333 41 -135 41c-40 0 -70.5 -8 -91.5 -24s-31.5 -39 -31.5 -69c0 -25.333 7.83301 -44.333 23.5 -57
s40.5 -20.667 74.5 -24l78 -7c20 -2 38.667 -5.33301 56 -10s32.166 -11.667 44.499 -21s22.166 -21.666 29.499 -36.999s11 -34.666 11 -57.999zM259.003 589.999h-58l97 147h67z" />
    <glyph glyph-name="Scircumflex" unicode="&#x15c;" horiz-adv-x="587" 
d="M528 191c0 -30 -5.50098 -57.1621 -16.501 -81.4951s-26.833 -45 -47.5 -62s-45.834 -30.167 -75.501 -39.5s-63.167 -14 -100.5 -14c-52.667 0 -97.167 7.5 -133.5 22.5s-70.833 38.833 -103.5 71.5l38 38c16 -16 31.5 -29.333 46.5 -40s30.5 -19.334 46.5 -26.001
s32.833 -11.334 50.5 -14.001s37.167 -4 58.5 -4c56.667 0 101.334 12.833 134.001 38.5s49 61.834 49 108.501c0 44.667 -13 78 -39 100c-6 5.33301 -12.167 10 -18.5 14s-13.333 7.33301 -21 10s-16.667 5.16699 -27 7.5s-22.5 4.5 -36.5 6.5l-83 13
c-54.667 8 -97 25 -127 51c-37.333 31.333 -56 75.333 -56 132c0 30 5.16699 57 15.5 81s25 44.5 44 61.5s42.167 30 69.5 39s58 13.5 92 13.5c44 0 81.5 -6.16699 112.5 -18.5s61.833 -31.833 92.5 -58.5l-35 -35c-10.667 10 -21.667 19 -33 27s-23.833 15 -37.5 21
s-29 10.5 -46 13.5s-35.833 4.5 -56.5 4.5c-52 0 -92.5 -13 -121.5 -39s-43.5 -62 -43.5 -108c0 -42.667 12 -74 36 -94c12.667 -10.667 27.834 -19.334 45.501 -26.001s36.5 -11.667 56.5 -15l83 -13c16.667 -2.66699 31 -5.33398 43 -8.00098
s22.833 -5.83398 32.5 -9.50098s18.667 -8.16699 27 -13.5s16.5 -11.333 24.5 -18c19.333 -16.667 34.333 -36.334 45 -59.001s16 -48.667 16 -78zM384.999 780.005l-93 109l-93 -109h-57l123 147h54l123 -147h-57z" />
    <glyph glyph-name="scircumflex" unicode="&#x15d;" horiz-adv-x="494" 
d="M438 137c0 -44 -17.1641 -78.834 -51.4971 -104.501s-81.5 -38.5 -141.5 -38.5c-42 0 -78.833 5.66699 -110.5 17s-59.834 28.666 -84.501 51.999l35 35c37.333 -39.333 90 -59 158 -59c96.667 0 145 32.667 145 98c0 25.333 -7.33301 44.333 -22 57s-38 20.667 -70 24
l-80 7c-96.667 8 -145 50 -145 126c0 42 15.667 75.333 47 100s73.333 37 126 37c34 0 65.333 -4.5 94 -13.5s53.667 -21.5 75 -37.5l-34 -34c-37.333 27.333 -82.333 41 -135 41c-40 0 -70.5 -8 -91.5 -24s-31.5 -39 -31.5 -69c0 -25.333 7.83301 -44.333 23.5 -57
s40.5 -20.667 74.5 -24l78 -7c20 -2 38.667 -5.33301 56 -10s32.166 -11.667 44.499 -21s22.166 -21.666 29.499 -36.999s11 -34.666 11 -57.999zM344.003 589.999l-93 109l-93 -109h-57l123 147h54l123 -147h-57z" />
    <glyph glyph-name="Scedilla" unicode="&#x15e;" horiz-adv-x="587" 
d="M528 191c0 -30 -5.50098 -57.1621 -16.501 -81.4951s-26.833 -45 -47.5 -62s-45.834 -30.167 -75.501 -39.5s-63.167 -14 -100.5 -14c-52.667 0 -97.167 7.5 -133.5 22.5s-70.833 38.833 -103.5 71.5l38 38c16 -16 31.5 -29.333 46.5 -40s30.5 -19.334 46.5 -26.001
s32.833 -11.334 50.5 -14.001s37.167 -4 58.5 -4c56.667 0 101.334 12.833 134.001 38.5s49 61.834 49 108.501c0 44.667 -13 78 -39 100c-6 5.33301 -12.167 10 -18.5 14s-13.333 7.33301 -21 10s-16.667 5.16699 -27 7.5s-22.5 4.5 -36.5 6.5l-83 13
c-54.667 8 -97 25 -127 51c-37.333 31.333 -56 75.333 -56 132c0 30 5.16699 57 15.5 81s25 44.5 44 61.5s42.167 30 69.5 39s58 13.5 92 13.5c44 0 81.5 -6.16699 112.5 -18.5s61.833 -31.833 92.5 -58.5l-35 -35c-10.667 10 -21.667 19 -33 27s-23.833 15 -37.5 21
s-29 10.5 -46 13.5s-35.833 4.5 -56.5 4.5c-52 0 -92.5 -13 -121.5 -39s-43.5 -62 -43.5 -108c0 -42.667 12 -74 36 -94c12.667 -10.667 27.834 -19.334 45.501 -26.001s36.5 -11.667 56.5 -15l83 -13c16.667 -2.66699 31 -5.33398 43 -8.00098
s22.833 -5.83398 32.5 -9.50098s18.667 -8.16699 27 -13.5s16.5 -11.333 24.5 -18c19.333 -16.667 34.333 -36.334 45 -59.001s16 -48.667 16 -78zM255.999 -219.995h-63l72 150h55z" />
    <glyph glyph-name="scedilla" unicode="&#x15f;" horiz-adv-x="494" 
d="M438 137c0 -44 -17.1641 -78.834 -51.4971 -104.501s-81.5 -38.5 -141.5 -38.5c-42 0 -78.833 5.66699 -110.5 17s-59.834 28.666 -84.501 51.999l35 35c37.333 -39.333 90 -59 158 -59c96.667 0 145 32.667 145 98c0 25.333 -7.33301 44.333 -22 57s-38 20.667 -70 24
l-80 7c-96.667 8 -145 50 -145 126c0 42 15.667 75.333 47 100s73.333 37 126 37c34 0 65.333 -4.5 94 -13.5s53.667 -21.5 75 -37.5l-34 -34c-37.333 27.333 -82.333 41 -135 41c-40 0 -70.5 -8 -91.5 -24s-31.5 -39 -31.5 -69c0 -25.333 7.83301 -44.333 23.5 -57
s40.5 -20.667 74.5 -24l78 -7c20 -2 38.667 -5.33301 56 -10s32.166 -11.667 44.499 -21s22.166 -21.666 29.499 -36.999s11 -34.666 11 -57.999zM214.003 -220.001h-63l72 150h55z" />
    <glyph glyph-name="Scaron" unicode="&#x160;" horiz-adv-x="587" 
d="M528 191c0 -30 -5.50098 -57.1621 -16.501 -81.4951s-26.833 -45 -47.5 -62s-45.834 -30.167 -75.501 -39.5s-63.167 -14 -100.5 -14c-52.667 0 -97.167 7.5 -133.5 22.5s-70.833 38.833 -103.5 71.5l38 38c16 -16 31.5 -29.333 46.5 -40s30.5 -19.334 46.5 -26.001
s32.833 -11.334 50.5 -14.001s37.167 -4 58.5 -4c56.667 0 101.334 12.833 134.001 38.5s49 61.834 49 108.501c0 44.667 -13 78 -39 100c-6 5.33301 -12.167 10 -18.5 14s-13.333 7.33301 -21 10s-16.667 5.16699 -27 7.5s-22.5 4.5 -36.5 6.5l-83 13
c-54.667 8 -97 25 -127 51c-37.333 31.333 -56 75.333 -56 132c0 30 5.16699 57 15.5 81s25 44.5 44 61.5s42.167 30 69.5 39s58 13.5 92 13.5c44 0 81.5 -6.16699 112.5 -18.5s61.833 -31.833 92.5 -58.5l-35 -35c-10.667 10 -21.667 19 -33 27s-23.833 15 -37.5 21
s-29 10.5 -46 13.5s-35.833 4.5 -56.5 4.5c-52 0 -92.5 -13 -121.5 -39s-43.5 -62 -43.5 -108c0 -42.667 12 -74 36 -94c12.667 -10.667 27.834 -19.334 45.501 -26.001s36.5 -11.667 56.5 -15l83 -13c16.667 -2.66699 31 -5.33398 43 -8.00098
s22.833 -5.83398 32.5 -9.50098s18.667 -8.16699 27 -13.5s16.5 -11.333 24.5 -18c19.333 -16.667 34.333 -36.334 45 -59.001s16 -48.667 16 -78zM313.999 780.005h-54l-123 147h57l93 -109l93 109h57z" />
    <glyph glyph-name="scaron" unicode="&#x161;" horiz-adv-x="494" 
d="M438 137c0 -44 -17.1641 -78.834 -51.4971 -104.501s-81.5 -38.5 -141.5 -38.5c-42 0 -78.833 5.66699 -110.5 17s-59.834 28.666 -84.501 51.999l35 35c37.333 -39.333 90 -59 158 -59c96.667 0 145 32.667 145 98c0 25.333 -7.33301 44.333 -22 57s-38 20.667 -70 24
l-80 7c-96.667 8 -145 50 -145 126c0 42 15.667 75.333 47 100s73.333 37 126 37c34 0 65.333 -4.5 94 -13.5s53.667 -21.5 75 -37.5l-34 -34c-37.333 27.333 -82.333 41 -135 41c-40 0 -70.5 -8 -91.5 -24s-31.5 -39 -31.5 -69c0 -25.333 7.83301 -44.333 23.5 -57
s40.5 -20.667 74.5 -24l78 -7c20 -2 38.667 -5.33301 56 -10s32.166 -11.667 44.499 -21s22.166 -21.666 29.499 -36.999s11 -34.666 11 -57.999zM271.003 589.999h-54l-123 147h57l93 -109l93 109h57z" />
    <glyph glyph-name="Tcommaaccent" unicode="&#x162;" horiz-adv-x="539" 
d="M296 664v-664h-54v664h-212v48h479v-48h-213zM234 -220h-63l72 150h55z" />
    <glyph glyph-name="tcommaaccent" unicode="&#x163;" horiz-adv-x="325" 
d="M225 0c-38 0 -66.833 11.832 -86.5 35.499s-29.5 53.834 -29.5 90.501v318h-66v38h66v154h51v-154h109v-38h-109v-319c0 -25.333 6 -45 18 -59s30.667 -21 56 -21h35v-45h-44zM158 -220.001h-63l72 150h55z" />
    <glyph glyph-name="Tcaron" unicode="&#x164;" horiz-adv-x="539" 
d="M296 664v-664h-54v664h-212v48h479v-48h-213zM297 780h-54l-123 147h57l93 -109l93 109h57z" />
    <glyph glyph-name="tcaron" unicode="&#x165;" horiz-adv-x="325" 
d="M225 0c-38 0 -66.833 11.832 -86.5 35.499s-29.5 53.834 -29.5 90.501v318h-66v38h66v154h51v-154h109v-38h-109v-319c0 -25.333 6 -45 18 -59s30.667 -21 56 -21h35v-45h-44zM271 563.999h-47l40 148h55z" />
    <glyph glyph-name="Tbar" unicode="&#x166;" horiz-adv-x="539" 
d="M296 664v-284h129v-42h-129v-338h-54v338h-130v42h130v284h-212v48h479v-48h-213z" />
    <glyph glyph-name="tbar" unicode="&#x167;" horiz-adv-x="325" 
d="M225 0c-38 0 -66.833 11.832 -86.5 35.499s-29.5 53.834 -29.5 90.501v119h-66v38h66v161h-66v38h66v154h51v-154h109v-38h-109v-161h109v-38h-109v-120c0 -25.333 6 -45 18 -59s30.667 -21 56 -21h35v-45h-44z" />
    <glyph glyph-name="Utilde" unicode="&#x168;" horiz-adv-x="688" 
d="M588 231c0 -34.667 -5.99805 -66.5 -17.998 -95.5s-28.833 -54 -50.5 -75s-47.334 -37.333 -77.001 -49s-62.5 -17.5 -98.5 -17.5s-68.833 5.83301 -98.5 17.5s-55.334 28 -77.001 49s-38.5 46 -50.5 75s-18 60.833 -18 95.5v481h54v-474
c0 -29.333 4.5 -56.166 13.5 -80.499s21.833 -45 38.5 -62s36.667 -30.167 60 -39.5s49.333 -14 78 -14s54.667 4.66699 78 14s43.333 22.5 60 39.5s29.5 37.667 38.5 62s13.5 51.166 13.5 80.499v474h54v-481zM496.002 843
c-11.333 -11.333 -21.501 -20.3311 -30.501 -26.998s-17.167 -11.5 -24.5 -14.5s-13.666 -4.83301 -18.999 -5.5s-10.333 -1 -15 -1c-11.333 0 -21.833 1.66699 -31.5 5s-22.167 9.66602 -37.5 18.999c-9.33301 5.33301 -18.5 10.166 -27.5 14.499s-18.5 6.5 -28.5 6.5
c-8 0 -16 -1.66699 -24 -5s-19.667 -12.666 -35 -27.999l-30 29c11.333 11.333 21.5 20.333 30.5 27s17 11.5 24 14.5s13.333 4.83301 19 5.5s10.834 1 15.501 1c14.667 0 26.834 -2.16699 36.501 -6.5s20.5 -10.166 32.5 -17.499
c10.667 -6.66699 20.167 -11.834 28.5 -15.501s17.5 -5.5 27.5 -5.5c7.33301 0 15.166 1.66699 23.499 5s20.166 12.666 35.499 27.999l30 -29v0z" />
    <glyph glyph-name="utilde" unicode="&#x169;" 
d="M411 0v57.001c-36 -42 -83.333 -63 -142 -63c-54 0 -96.667 15.333 -128 46c-33.333 32 -50 76.667 -50 134v308h51v-299c0 -46.667 11.167 -82.334 33.5 -107.001s55.5 -37 99.5 -37s77.667 12.5 101 37.5s35 60.5 35 106.5v299h51v-482h-51zM428 653.001
c-11.333 -11.333 -21.501 -20.3311 -30.501 -26.998s-17.167 -11.5 -24.5 -14.5s-13.666 -4.83301 -18.999 -5.5s-10.333 -1 -15 -1c-11.333 0 -21.833 1.66699 -31.5 5s-22.167 9.66602 -37.5 18.999c-9.33301 5.33301 -18.5 10.166 -27.5 14.499s-18.5 6.5 -28.5 6.5
c-8 0 -16 -1.66699 -24 -5s-19.667 -12.666 -35 -27.999l-30 29c11.333 11.333 21.5 20.333 30.5 27s17 11.5 24 14.5s13.333 4.83301 19 5.5s10.834 1 15.501 1c14.667 0 26.834 -2.16699 36.501 -6.5s20.5 -10.166 32.5 -17.499
c10.667 -6.66699 20.167 -11.834 28.5 -15.501s17.5 -5.5 27.5 -5.5c7.33301 0 15.166 1.66699 23.499 5s20.166 12.666 35.499 27.999l30 -29v0z" />
    <glyph glyph-name="Umacron" unicode="&#x16a;" horiz-adv-x="688" 
d="M588 231c0 -34.667 -5.99805 -66.5 -17.998 -95.5s-28.833 -54 -50.5 -75s-47.334 -37.333 -77.001 -49s-62.5 -17.5 -98.5 -17.5s-68.833 5.83301 -98.5 17.5s-55.334 28 -77.001 49s-38.5 46 -50.5 75s-18 60.833 -18 95.5v481h54v-474
c0 -29.333 4.5 -56.166 13.5 -80.499s21.833 -45 38.5 -62s36.667 -30.167 60 -39.5s49.333 -14 78 -14s54.667 4.66699 78 14s43.333 22.5 60 39.5s29.5 37.667 38.5 62s13.5 51.166 13.5 80.499v474h54v-481zM196.002 800v46h296v-46h-296z" />
    <glyph glyph-name="umacron" unicode="&#x16b;" 
d="M411 0v57.001c-36 -42 -83.333 -63 -142 -63c-54 0 -96.667 15.333 -128 46c-33.333 32 -50 76.667 -50 134v308h51v-299c0 -46.667 11.167 -82.334 33.5 -107.001s55.5 -37 99.5 -37s77.667 12.5 101 37.5s35 60.5 35 106.5v299h51v-482h-51zM131 610.001v46h296v-46
h-296z" />
    <glyph glyph-name="Ubreve" unicode="&#x16c;" horiz-adv-x="688" 
d="M588 231c0 -34.667 -5.99805 -66.5 -17.998 -95.5s-28.833 -54 -50.5 -75s-47.334 -37.333 -77.001 -49s-62.5 -17.5 -98.5 -17.5s-68.833 5.83301 -98.5 17.5s-55.334 28 -77.001 49s-38.5 46 -50.5 75s-18 60.833 -18 95.5v481h54v-474
c0 -29.333 4.5 -56.166 13.5 -80.499s21.833 -45 38.5 -62s36.667 -30.167 60 -39.5s49.333 -14 78 -14s54.667 4.66699 78 14s43.333 22.5 60 39.5s29.5 37.667 38.5 62s13.5 51.166 13.5 80.499v474h54v-481zM509.002 927
c-4.66699 -42.667 -19.834 -75.834 -45.501 -99.501s-65.5 -35.5 -119.5 -35.5s-93.833 11.833 -119.5 35.5s-40.834 56.834 -45.501 99.501h45c4 -28 16.333 -50 37 -66s48.334 -24 83.001 -24s62.334 8 83.001 24s33 38 37 66h45v0z" />
    <glyph glyph-name="ubreve" unicode="&#x16d;" 
d="M411 0v57.001c-36 -42 -83.333 -63 -142 -63c-54 0 -96.667 15.333 -128 46c-33.333 32 -50 76.667 -50 134v308h51v-299c0 -46.667 11.167 -82.334 33.5 -107.001s55.5 -37 99.5 -37s77.667 12.5 101 37.5s35 60.5 35 106.5v299h51v-482h-51zM440 722.001
c-4.66699 -42.667 -19.834 -75.834 -45.501 -99.501s-65.5 -35.5 -119.5 -35.5s-93.833 11.833 -119.5 35.5s-40.834 56.834 -45.501 99.501h45c4 -28 16.333 -50 37 -66s48.334 -24 83.001 -24s62.334 8 83.001 24s33 38 37 66h45v0z" />
    <glyph glyph-name="Uring" unicode="&#x16e;" horiz-adv-x="688" 
d="M588 231c0 -34.667 -5.99805 -66.5 -17.998 -95.5s-28.833 -54 -50.5 -75s-47.334 -37.333 -77.001 -49s-62.5 -17.5 -98.5 -17.5s-68.833 5.83301 -98.5 17.5s-55.334 28 -77.001 49s-38.5 46 -50.5 75s-18 60.833 -18 95.5v481h54v-474
c0 -29.333 4.5 -56.166 13.5 -80.499s21.833 -45 38.5 -62s36.667 -30.167 60 -39.5s49.333 -14 78 -14s54.667 4.66699 78 14s43.333 22.5 60 39.5s29.5 37.667 38.5 62s13.5 51.166 13.5 80.499v474h54v-481zM458.002 867c0 -16 -3 -30.833 -9 -44.5
s-14.167 -25.834 -24.5 -36.501s-22.333 -19 -36 -25s-28.5 -9 -44.5 -9s-30.833 3 -44.5 9s-25.667 14.333 -36 25s-18.5 22.834 -24.5 36.501s-9 28.5 -9 44.5s3 30.833 9 44.5s14.167 25.667 24.5 36s22.333 18.5 36 24.5s28.5 9 44.5 9s30.833 -3 44.5 -9
s25.667 -14.167 36 -24.5s18.5 -22.333 24.5 -36s9 -28.5 9 -44.5zM417.002 867c0 20 -7.16699 37 -21.5 51s-31.5 21 -51.5 21s-37.167 -7 -51.5 -21s-21.5 -31 -21.5 -51s7.16699 -37.167 21.5 -51.5s31.5 -21.5 51.5 -21.5s37.167 7.16699 51.5 21.5s21.5 31.5 21.5 51.5
z" />
    <glyph glyph-name="uring" unicode="&#x16f;" 
d="M411 0v57.001c-36 -42 -83.333 -63 -142 -63c-54 0 -96.667 15.333 -128 46c-33.333 32 -50 76.667 -50 134v308h51v-299c0 -46.667 11.167 -82.334 33.5 -107.001s55.5 -37 99.5 -37s77.667 12.5 101 37.5s35 60.5 35 106.5v299h51v-482h-51zM393 677.001
c0 -16 -3 -30.833 -9 -44.5s-14.167 -25.834 -24.5 -36.501s-22.333 -19 -36 -25s-28.5 -9 -44.5 -9s-30.833 3 -44.5 9s-25.667 14.333 -36 25s-18.5 22.834 -24.5 36.501s-9 28.5 -9 44.5s3 30.833 9 44.5s14.167 25.667 24.5 36s22.333 18.5 36 24.5s28.5 9 44.5 9
s30.833 -3 44.5 -9s25.667 -14.167 36 -24.5s18.5 -22.333 24.5 -36s9 -28.5 9 -44.5zM352 677.001c0 20 -7.16699 37 -21.5 51s-31.5 21 -51.5 21s-37.167 -7 -51.5 -21s-21.5 -31 -21.5 -51s7.16699 -37.167 21.5 -51.5s31.5 -21.5 51.5 -21.5s37.167 7.16699 51.5 21.5
s21.5 31.5 21.5 51.5z" />
    <glyph glyph-name="Uhungarumlaut" unicode="&#x170;" horiz-adv-x="688" 
d="M588 231c0 -34.667 -5.99805 -66.5 -17.998 -95.5s-28.833 -54 -50.5 -75s-47.334 -37.333 -77.001 -49s-62.5 -17.5 -98.5 -17.5s-68.833 5.83301 -98.5 17.5s-55.334 28 -77.001 49s-38.5 46 -50.5 75s-18 60.833 -18 95.5v481h54v-474
c0 -29.333 4.5 -56.166 13.5 -80.499s21.833 -45 38.5 -62s36.667 -30.167 60 -39.5s49.333 -14 78 -14s54.667 4.66699 78 14s43.333 22.5 60 39.5s29.5 37.667 38.5 62s13.5 51.166 13.5 80.499v474h54v-481zM282.002 780h-58l97 147h67zM428.002 780h-57l97 147h67z" />
    <glyph glyph-name="uhungarumlaut" unicode="&#x171;" 
d="M411 0v57.001c-36 -42 -83.333 -63 -142 -63c-54 0 -96.667 15.333 -128 46c-33.333 32 -50 76.667 -50 134v308h51v-299c0 -46.667 11.167 -82.334 33.5 -107.001s55.5 -37 99.5 -37s77.667 12.5 101 37.5s35 60.5 35 106.5v299h51v-482h-51zM217 590.001h-58l97 147h67
zM363 590.001h-57l97 147h67z" />
    <glyph glyph-name="Uogonek" unicode="&#x172;" horiz-adv-x="688" 
d="M588 231c0 -34.667 -5.99805 -66.5 -17.998 -95.5s-28.833 -54 -50.5 -75s-47.334 -37.333 -77.001 -49s-62.5 -17.5 -98.5 -17.5s-68.833 5.83301 -98.5 17.5s-55.334 28 -77.001 49s-38.5 46 -50.5 75s-18 60.833 -18 95.5v481h54v-474
c0 -29.333 4.5 -56.166 13.5 -80.499s21.833 -45 38.5 -62s36.667 -30.167 60 -39.5s49.333 -14 78 -14s54.667 4.66699 78 14s43.333 22.5 60 39.5s29.5 37.667 38.5 62s13.5 51.166 13.5 80.499v474h54v-481zM420.002 -220h-63l72 150h55z" />
    <glyph glyph-name="uogonek" unicode="&#x173;" 
d="M411 0v57.001c-36 -42 -83.333 -63 -142 -63c-54 0 -96.667 15.333 -128 46c-33.333 32 -50 76.667 -50 134v308h51v-299c0 -46.667 11.167 -82.334 33.5 -107.001s55.5 -37 99.5 -37s77.667 12.5 101 37.5s35 60.5 35 106.5v299h51v-482h-51zM402 -219.999h-63l72 150
h55z" />
    <glyph glyph-name="Wcircumflex" unicode="&#x174;" horiz-adv-x="842" 
d="M644 0h-55l-168 620l-168 -620h-55l-178 712h57l150 -619l166 619h56l166 -619l150 619h57zM514 780l-93 109l-93 -109h-57l123 147h54l123 -147h-57z" />
    <glyph glyph-name="wcircumflex" unicode="&#x175;" horiz-adv-x="712" 
d="M544 0h-52l-136 402l-136 -402h-52l-154 482h56l123 -422l138 422h50l138 -422l123 422h56zM449 590l-93 109l-93 -109h-57l123 147h54l123 -147h-57z" />
    <glyph glyph-name="Ycircumflex" unicode="&#x176;" horiz-adv-x="494" 
d="M274 295v-295h-54v295l-210 417h58l181 -360l177 360h58zM343 780l-93 109l-93 -109h-57l123 147h54l123 -147h-57z" />
    <glyph glyph-name="ycircumflex" unicode="&#x177;" horiz-adv-x="430" 
d="M192 -131c-9.33301 -26.667 -20.334 -45.3311 -33.001 -55.998c-12 -11.333 -26.167 -19.333 -42.5 -24s-32.5 -7 -48.5 -7h-24v45h19c14 0 25.5 1.16699 34.5 3.5s16.833 6.16602 23.5 11.499s12.334 12.166 17.001 20.499s9 18.5 13 30.5l39 107l-176 482h56l145 -422
l145 422h56zM308.999 590.003l-93 109l-93 -109h-57l123 147h54l123 -147h-57z" />
    <glyph glyph-name="Ydieresis" unicode="&#x178;" horiz-adv-x="494" 
d="M274 295v-295h-54v295l-210 417h58l181 -360l177 360h58zM115 790v77h58v-77h-58zM323 790v77h58v-77h-58z" />
    <glyph glyph-name="Zacute" unicode="&#x179;" 
d="M63 0v57l375 607h-360v48h418v-48l-378 -616h378v-48h-433zM291 780h-58l97 147h67z" />
    <glyph glyph-name="zacute" unicode="&#x17a;" horiz-adv-x="452" 
d="M54 0v48l290 389h-274v45h328v-48l-291 -389h291v-45h-344zM238 590h-58l97 147h67z" />
    <glyph glyph-name="Zdotaccent" unicode="&#x17b;" 
d="M63 0v57l375 607h-360v48h418v-48l-378 -616h378v-48h-433zM248 800v63h62v-63h-62z" />
    <glyph glyph-name="zdotaccent" unicode="&#x17c;" horiz-adv-x="452" 
d="M54 0v48l290 389h-274v45h328v-48l-291 -389h291v-45h-344zM196 610v63h62v-63h-62z" />
    <glyph glyph-name="Zcaron" unicode="&#x17d;" 
d="M63 0v57l375 607h-360v48h418v-48l-378 -616h378v-48h-433zM314 780h-54l-123 147h57l93 -109l93 109h57z" />
    <glyph glyph-name="zcaron" unicode="&#x17e;" horiz-adv-x="452" 
d="M54 0v48l290 389h-274v45h328v-48l-291 -389h291v-45h-344zM261 590h-54l-123 147h57l93 -109l93 109h57z" />
    <glyph glyph-name="longs" unicode="&#x17f;" horiz-adv-x="245" 
d="M222 667c-25.333 0 -44 -7.00098 -56 -21.001s-18 -33.667 -18 -59v-587h-51v586c0 36.667 9.83301 66.834 29.5 90.501s48.5 35.5 86.5 35.5h44v-45h-35z" />
    <glyph glyph-name="uni018F" unicode="&#x18f;" horiz-adv-x="651" 
d="M569 356c0 -43.333 -0.664062 -79.833 -1.99707 -109.5s-4.33301 -55.5 -9 -77.5s-11.667 -41.167 -21 -57.5s-22.333 -32.833 -39 -49.5c-21.333 -21.333 -46.5 -38 -75.5 -50s-61.5 -18 -97.5 -18s-70.333 7.33301 -103 22s-60.667 34.667 -84 60
c-21.333 23.333 -36.333 48.333 -45 75s-13 59 -13 97v116h435c0 36 -0.5 67 -1.5 93s-3.33301 48.667 -7 68s-9.16699 36 -16.5 50s-17.333 27.333 -30 40c-36.667 36.667 -81.667 55 -135 55c-48 0 -88.833 -14.167 -122.5 -42.5s-55.834 -67.5 -66.501 -117.5h-54
c5.33301 31.333 15.166 59.833 29.499 85.5s32.166 47.5 53.499 65.5s45.5 32 72.5 42s56.167 15 87.5 15c36 0 68.5 -6 97.5 -18s54.167 -28.667 75.5 -50c16.667 -16.667 29.667 -33.167 39 -49.5s16.333 -35.5 21 -57.5s7.66699 -47.833 9 -77.5s2 -66.167 2 -109.5z
M134.003 316v-63.999c0 -30.667 3.33301 -57 10 -79s17.667 -42.667 33 -62c18.667 -22.667 41 -39.834 67 -51.501s53 -17.5 81 -17.5c53.333 0 98.333 18.333 135 55c11.333 11.333 20.5 23.5 27.5 36.5s12.5 28 16.5 45s6.83301 36.667 8.5 59s2.5 48.5 2.5 78.5h-381z
" />
    <glyph glyph-name="florin" unicode="&#x192;" horiz-adv-x="394" 
d="M321 667c-25.333 0 -45.168 -7.00098 -59.501 -21.001s-23.833 -33.667 -28.5 -59l-36 -207h109v-38h-116l-101 -572h-51l101 572h-109v38h116l36 206c6.66699 36.667 21.834 66.834 45.501 90.501s54.5 35.5 92.5 35.5h44v-45h-43z" />
    <glyph glyph-name="uni01B5" unicode="&#x1b5;" 
d="M63 0v57l173 281h-113v42h139l176 284h-360v48h418v-48l-174 -284h114v-42h-140l-178 -290h378v-48h-433z" />
    <glyph glyph-name="uni01B6" unicode="&#x1b6;" horiz-adv-x="452" 
d="M54 0v48l130 175h-84v36h111l133 178h-274v45h328v-48l-131 -175h84v-36h-111l-133 -178h291v-45h-344z" />
    <glyph glyph-name="uni01C4" unicode="&#x1c4;" horiz-adv-x="1237" 
d="M596 356c0 -26.667 -0.333008 -53.668 -1 -81.001s-3.33398 -53.666 -8.00098 -78.999s-11.667 -49.333 -21 -72s-22.333 -42.334 -39 -59.001c-43.333 -43.333 -102.666 -65 -177.999 -65h-239v712h239c75.333 0 134.666 -21.667 177.999 -65
c16.667 -17.333 29.667 -37.166 39 -59.499s16.333 -46.333 21 -72s7.33398 -52 8.00098 -79s1 -53.833 1 -80.5zM542 355.999c0 23.333 -0.333008 47.002 -1 71.002s-2.66699 47.167 -6 69.5s-8.5 43.166 -15.5 62.499s-17.167 36 -30.5 50
c-20.667 21.333 -44.167 35.833 -70.5 43.5s-53.833 11.5 -82.5 11.5h-172v-616h172c28.667 0 56.167 3.83301 82.5 11.5s49.833 22.167 70.5 43.5c13.333 14 23.5 30.667 30.5 50s12.167 40.166 15.5 62.499s5.33301 45.5 6 69.5s1 47.667 1 71zM741 0.000976562v57
l375 607h-360v48h418v-48l-378 -616h378v-48h-433zM992 780.001h-54l-123 147h57l93 -109l93 109h57z" />
    <glyph glyph-name="uni01C5" unicode="&#x1c5;" horiz-adv-x="1130" 
d="M596 356c0 -26.667 -0.333008 -53.668 -1 -81.001s-3.33398 -53.666 -8.00098 -78.999s-11.667 -49.333 -21 -72s-22.333 -42.334 -39 -59.001c-43.333 -43.333 -102.666 -65 -177.999 -65h-239v712h239c75.333 0 134.666 -21.667 177.999 -65
c16.667 -17.333 29.667 -37.166 39 -59.499s16.333 -46.333 21 -72s7.33398 -52 8.00098 -79s1 -53.833 1 -80.5zM542 355.999c0 23.333 -0.333008 47.002 -1 71.002s-2.66699 47.167 -6 69.5s-8.5 43.166 -15.5 62.499s-17.167 36 -30.5 50
c-20.667 21.333 -44.167 35.833 -70.5 43.5s-53.833 11.5 -82.5 11.5h-172v-616h172c28.667 0 56.167 3.83301 82.5 11.5s49.833 22.167 70.5 43.5c13.333 14 23.5 30.667 30.5 50s12.167 40.166 15.5 62.499s5.33301 45.5 6 69.5s1 47.667 1 71zM732 0.000976562v48
l290 389h-274v45h328v-48l-291 -389h291v-45h-344zM939 590.001h-54l-123 147h57l93 -109l93 109h57z" />
    <glyph glyph-name="uni01C6" unicode="&#x1c6;" horiz-adv-x="992" 
d="M392 0v61.998c-21.333 -28 -43.5 -46.333 -66.5 -55s-48.5 -13 -76.5 -13c-25.333 0 -48.166 3.83301 -68.499 11.5s-36.833 17.834 -49.5 30.501c-24.667 24.667 -41.167 55.5 -49.5 92.5s-12.5 74.5 -12.5 112.5s4.16699 75.5 12.5 112.5s24.833 67.833 49.5 92.5
c12.667 12.667 29.167 22.834 49.5 30.501s43.166 11.5 68.499 11.5c28 0 53.5 -4.33301 76.5 -13s45.167 -27 66.5 -55v292h51v-712h-51zM392 240.998c0 24.667 -1.5 49.167 -4.5 73.5s-9.33301 46 -19 65s-23.5 34.333 -41.5 46s-41.667 17.5 -71 17.5
s-53 -5.83301 -71 -17.5s-31.833 -27 -41.5 -46s-16 -40.667 -19 -65s-4.5 -48.833 -4.5 -73.5c0 -25.333 1.5 -50 4.5 -74s9.33301 -45.5 19 -64.5s23.5 -34.333 41.5 -46s41.667 -17.5 71 -17.5s53 5.83301 71 17.5s31.833 27 41.5 46s16 40.5 19 64.5s4.5 48.667 4.5 74z
M594 -0.00195312v48l290 389h-274v45h328v-48l-291 -389h291v-45h-344zM801 589.998h-54l-123 147h57l93 -109l93 109h57z" />
    <glyph glyph-name="uni01C7" unicode="&#x1c7;" horiz-adv-x="1070" 
d="M110 0v712h54v-664h378v-48h-432zM970 210c0 -32.667 -4.99902 -62.167 -14.999 -88.5s-24.167 -49 -42.5 -68s-40.666 -33.667 -66.999 -44s-55.5 -15.5 -87.5 -15.5c-63.333 0 -115.333 20.333 -156 61l37 37c13.333 -13.333 28.666 -25 45.999 -35
s41.666 -15 72.999 -15c52 0 91.333 15.333 118 46s40 75 40 133v491h54v-502z" />
    <glyph glyph-name="uni01C8" unicode="&#x1c8;" horiz-adv-x="817" 
d="M110 0v712h54v-664h378v-48h-432zM720 -105c0 -38 -9.33301 -68.333 -28 -91s-48 -34 -88 -34h-44v45h35c28.667 0 48.167 6.5 58.5 19.5s15.5 33.5 15.5 61.5v586h51v-587zM663 649v63h63v-63h-63z" />
    <glyph glyph-name="uni01C9" unicode="&#x1c9;" horiz-adv-x="532" 
d="M211 0c-40 0 -69.333 11.333 -88 34s-28 53 -28 91v587h51v-586c0 -28 5.16699 -48.5 15.5 -61.5s29.833 -19.5 58.5 -19.5h35v-45h-44zM435 -105c0 -38 -9.33301 -68.333 -28 -91s-48 -34 -88 -34h-44v45h35c28.667 0 48.167 6.5 58.5 19.5s15.5 33.5 15.5 61.5v586h51
v-587zM378 649v63h63v-63h-63z" />
    <glyph glyph-name="uni01CA" unicode="&#x1ca;" horiz-adv-x="1237" 
d="M575 0l-411 619v-619h-54v712h54l411 -617v617h54v-712h-54zM1137 210c0 -32.667 -4.99902 -62.167 -14.999 -88.5s-24.167 -49 -42.5 -68s-40.666 -33.667 -66.999 -44s-55.5 -15.5 -87.5 -15.5c-63.333 0 -115.333 20.333 -156 61l37 37
c13.333 -13.333 28.666 -25 45.999 -35s41.666 -15 72.999 -15c52 0 91.333 15.333 118 46s40 75 40 133v491h54v-502z" />
    <glyph glyph-name="uni01CB" unicode="&#x1cb;" horiz-adv-x="984" 
d="M575 0l-411 619v-619h-54v712h54l411 -617v617h54v-712h-54zM887 -105c0 -38 -9.33301 -68.333 -28 -91s-48 -34 -88 -34h-44v45h35c28.667 0 48.167 6.5 58.5 19.5s15.5 33.5 15.5 61.5v586h51v-587zM830 649v63h63v-63h-63z" />
    <glyph glyph-name="uni01CC" unicode="&#x1cc;" horiz-adv-x="804" 
d="M417 0v298.999c0 46.667 -11.167 82.334 -33.5 107.001s-55.5 37 -99.5 37s-77.667 -12.5 -101 -37.5s-35 -60.5 -35 -106.5v-299h-51v482h51v-57c36 42 83.333 63 142 63c54 0 96.667 -15.333 128 -46c33.333 -32 50 -76.667 50 -134v-308h-51zM707 -105.001
c0 -38 -9.33301 -68.333 -28 -91s-48 -34 -88 -34h-44v45h35c28.667 0 48.167 6.5 58.5 19.5s15.5 33.5 15.5 61.5v586h51v-587zM650 648.999v63h63v-63h-63z" />
    <glyph glyph-name="uni01F1" unicode="&#x1f1;" horiz-adv-x="1237" 
d="M596 356c0 -26.667 -0.333008 -53.668 -1 -81.001s-3.33398 -53.666 -8.00098 -78.999s-11.667 -49.333 -21 -72s-22.333 -42.334 -39 -59.001c-43.333 -43.333 -102.666 -65 -177.999 -65h-239v712h239c75.333 0 134.666 -21.667 177.999 -65
c16.667 -17.333 29.667 -37.166 39 -59.499s16.333 -46.333 21 -72s7.33398 -52 8.00098 -79s1 -53.833 1 -80.5zM542 355.999c0 23.333 -0.333008 47.002 -1 71.002s-2.66699 47.167 -6 69.5s-8.5 43.166 -15.5 62.499s-17.167 36 -30.5 50
c-20.667 21.333 -44.167 35.833 -70.5 43.5s-53.833 11.5 -82.5 11.5h-172v-616h172c28.667 0 56.167 3.83301 82.5 11.5s49.833 22.167 70.5 43.5c13.333 14 23.5 30.667 30.5 50s12.167 40.166 15.5 62.499s5.33301 45.5 6 69.5s1 47.667 1 71zM741 0.000976562v57
l375 607h-360v48h418v-48l-378 -616h378v-48h-433z" />
    <glyph glyph-name="uni01F2" unicode="&#x1f2;" horiz-adv-x="1130" 
d="M596 356c0 -26.667 -0.333008 -53.668 -1 -81.001s-3.33398 -53.666 -8.00098 -78.999s-11.667 -49.333 -21 -72s-22.333 -42.334 -39 -59.001c-43.333 -43.333 -102.666 -65 -177.999 -65h-239v712h239c75.333 0 134.666 -21.667 177.999 -65
c16.667 -17.333 29.667 -37.166 39 -59.499s16.333 -46.333 21 -72s7.33398 -52 8.00098 -79s1 -53.833 1 -80.5zM542 355.999c0 23.333 -0.333008 47.002 -1 71.002s-2.66699 47.167 -6 69.5s-8.5 43.166 -15.5 62.499s-17.167 36 -30.5 50
c-20.667 21.333 -44.167 35.833 -70.5 43.5s-53.833 11.5 -82.5 11.5h-172v-616h172c28.667 0 56.167 3.83301 82.5 11.5s49.833 22.167 70.5 43.5c13.333 14 23.5 30.667 30.5 50s12.167 40.166 15.5 62.499s5.33301 45.5 6 69.5s1 47.667 1 71zM732 0.000976562v48
l290 389h-274v45h328v-48l-291 -389h291v-45h-344z" />
    <glyph glyph-name="uni01F3" unicode="&#x1f3;" horiz-adv-x="992" 
d="M392 0v61.998c-21.333 -28 -43.5 -46.333 -66.5 -55s-48.5 -13 -76.5 -13c-25.333 0 -48.166 3.83301 -68.499 11.5s-36.833 17.834 -49.5 30.501c-24.667 24.667 -41.167 55.5 -49.5 92.5s-12.5 74.5 -12.5 112.5s4.16699 75.5 12.5 112.5s24.833 67.833 49.5 92.5
c12.667 12.667 29.167 22.834 49.5 30.501s43.166 11.5 68.499 11.5c28 0 53.5 -4.33301 76.5 -13s45.167 -27 66.5 -55v292h51v-712h-51zM392 240.998c0 24.667 -1.5 49.167 -4.5 73.5s-9.33301 46 -19 65s-23.5 34.333 -41.5 46s-41.667 17.5 -71 17.5
s-53 -5.83301 -71 -17.5s-31.833 -27 -41.5 -46s-16 -40.667 -19 -65s-4.5 -48.833 -4.5 -73.5c0 -25.333 1.5 -50 4.5 -74s9.33301 -45.5 19 -64.5s23.5 -34.333 41.5 -46s41.667 -17.5 71 -17.5s53 5.83301 71 17.5s31.833 27 41.5 46s16 40.5 19 64.5s4.5 48.667 4.5 74z
M594 -0.00195312v48l290 389h-274v45h328v-48l-291 -389h291v-45h-344z" />
    <glyph glyph-name="Aringacute" unicode="&#x1fa;" horiz-adv-x="602" 
d="M529 0l-62 173h-332l-62 -173h-58l262 712h48l262 -712h-58zM152 221h298l-149 419zM415 861c0 -16 -3 -30.833 -9 -44.5s-14.167 -25.834 -24.5 -36.501s-22.333 -19 -36 -25s-28.5 -9 -44.5 -9s-30.833 3 -44.5 9s-25.667 14.333 -36 25s-18.5 22.834 -24.5 36.501
s-9 28.5 -9 44.5s3 30.833 9 44.5s14.167 25.667 24.5 36s22.333 18.5 36 24.5s28.5 9 44.5 9s30.833 -3 44.5 -9s25.667 -14.167 36 -24.5s18.5 -22.333 24.5 -36s9 -28.5 9 -44.5zM374 861c0 20 -7.16699 37 -21.5 51s-31.5 21 -51.5 21s-37.167 -7 -51.5 -21
s-21.5 -31 -21.5 -51s7.16699 -37.167 21.5 -51.5s31.5 -21.5 51.5 -21.5s37.167 7.16699 51.5 21.5s21.5 31.5 21.5 51.5zM313 985h-58l97 147h67z" />
    <glyph glyph-name="aringacute" unicode="&#x1fb;" horiz-adv-x="524" 
d="M380 0v48.001c-20.667 -20.667 -41.834 -34.834 -63.501 -42.501s-49.5 -11.5 -83.5 -11.5c-36 0 -64.833 3.33301 -86.5 10s-40.167 18 -55.5 34c-11.333 11.333 -20 25.333 -26 42s-9 34 -9 52c0 44 14.833 78.167 44.5 102.5s70.834 36.5 123.501 36.5h156v54
c0 38.667 -10.167 68 -30.5 88s-55.5 30 -105.5 30c-34 0 -60.833 -4.66699 -80.5 -14s-37.167 -25 -52.5 -47l-37 32c20.667 28.667 44.167 48.167 70.5 58.5s59.5 15.5 99.5 15.5c64.667 0 112 -13.667 142 -41s45 -66.333 45 -117v-330h-51zM380 230.001
l-149.999 -0.000976562c-82 0 -123 -32.333 -123 -97c0 -32 10 -55.667 30 -71s52 -23 96 -23c22 0 43.167 2 63.5 6s39.166 14.333 56.499 31c18 16.667 27 47.334 27 92.001v62zM363.001 677c0 -16 -3 -30.833 -9 -44.5s-14.167 -25.834 -24.5 -36.501
s-22.333 -19 -36 -25s-28.5 -9 -44.5 -9s-30.833 3 -44.5 9s-25.667 14.333 -36 25s-18.5 22.834 -24.5 36.501s-9 28.5 -9 44.5s3 30.833 9 44.5s14.167 25.667 24.5 36s22.333 18.5 36 24.5s28.5 9 44.5 9s30.833 -3 44.5 -9s25.667 -14.167 36 -24.5
s18.5 -22.333 24.5 -36s9 -28.5 9 -44.5zM322.001 677c0 20 -7.16699 37 -21.5 51s-31.5 21 -51.5 21s-37.167 -7 -51.5 -21s-21.5 -31 -21.5 -51s7.16699 -37.167 21.5 -51.5s31.5 -21.5 51.5 -21.5s37.167 7.16699 51.5 21.5s21.5 31.5 21.5 51.5zM261.001 801h-58l97 147
h67z" />
    <glyph glyph-name="AEacute" unicode="&#x1fc;" horiz-adv-x="901" 
d="M414 0v173h-255l-90 -173h-59l377 712h458v-48h-378v-284h322v-48h-322v-284h378v-48h-431zM414 664l-232 -443h232v443zM465 780h-58l97 147h67z" />
    <glyph glyph-name="aeacute" unicode="&#x1fd;" horiz-adv-x="834" 
d="M431 230c0 -62 13.1631 -109.166 39.4961 -141.499s65.5 -48.5 117.5 -48.5c28.667 0 52.834 4.5 72.501 13.5s39.834 23.833 60.501 44.5l38 -30c-24.667 -24.667 -50 -43.167 -76 -55.5s-59 -18.5 -99 -18.5c-82 0 -139.333 30 -172 90
c-20 -32.667 -43.667 -55.834 -71 -69.501s-63.333 -20.5 -108 -20.5c-36 0 -64.833 3.33301 -86.5 10s-40.167 18 -55.5 34c-11.333 11.333 -20 25.333 -26 42s-9 34 -9 52c0 44 14.833 78.167 44.5 102.5s70.834 36.5 123.501 36.5h156v54c0 38.667 -10.167 68 -30.5 88
s-55.5 30 -105.5 30c-34 0 -60.833 -4.66699 -80.5 -14s-37.167 -25 -52.5 -47l-37 32c20.667 28.667 44.167 48.167 70.5 58.5s59.5 15.5 99.5 15.5c90.667 0 148.334 -28.333 173.001 -85c33.333 56.667 85.333 85 156 85c60.667 0 108 -20.5 142 -61.5
s51 -98.833 51 -173.5v-23h-335zM229.996 230.001c-82 0 -122.999 -32.334 -122.999 -97.001c0 -32 10 -55.667 30 -71s52 -23 96 -23c22 0 43.167 2 63.5 6s39.166 14.333 56.499 31c18 16.667 27 47.334 27 92.001v62h-150zM714.997 271
c-0.666992 11.333 -1.33203 21.168 -1.99902 29.501s-1.5 15.833 -2.5 22.5s-2.5 13 -4.5 19s-4.66699 12.667 -8 20c-10.667 25.333 -27.167 45.166 -49.5 59.499s-47.5 21.5 -75.5 21.5s-53.333 -7 -76 -21s-39 -34 -49 -60c-3.33301 -8 -5.83301 -15 -7.5 -21
s-3.16699 -12.167 -4.5 -18.5s-2.33301 -13.5 -3 -21.5s-1.33398 -18 -2.00098 -30h284zM437.999 590.002h-58l97 147h67z" />
    <glyph glyph-name="Oslashacute" unicode="&#x1fe;" horiz-adv-x="652" 
d="M570 356c0 -43.333 -0.667969 -79.833 -2.00098 -109.5s-4.33301 -55.5 -9 -77.5s-11.667 -41.167 -21 -57.5s-22.333 -32.833 -39 -49.5c-21.333 -21.333 -46.5 -38 -75.5 -50s-61.5 -18 -97.5 -18c-25.333 0 -48.666 3 -69.999 9s-41.333 14.667 -60 26l-35 -73h-53
l49 102c-18 17.333 -32 34.5 -42 51.5s-17.5 36.5 -22.5 58.5s-8 48 -9 78s-1.5 66.667 -1.5 110s0.666992 79.833 2 109.5s4.33301 55.5 9 77.5s11.667 41.167 21 57.5s22.333 32.833 39 49.5c21.333 21.333 46.5 38 75.5 50s61.5 18 97.5 18c24.667 0 48 -3 70 -9
s42 -14.667 60 -26l35 73h53l-49 -102c18 -17.333 32 -34.5 42 -51.5s17.5 -36.5 22.5 -58.5s8 -48 9 -78s1.5 -66.667 1.5 -110zM433.999 637c-32 22 -68 33.002 -108 33.002c-53.333 0 -98.333 -18.333 -135 -55c-12.667 -12.667 -22.667 -26.334 -30 -41.001
s-12.833 -31.834 -16.5 -51.501s-6 -43 -7 -70s-1.5 -59.167 -1.5 -96.5c0 -35.333 0.333008 -65.833 1 -91.5s2.5 -48 5.5 -67s7.5 -35.667 13.5 -50s14.333 -27.5 25 -39.5zM515.999 356.002c0 34.667 -0.5 64.832 -1.5 90.499s-3 48.167 -6 67.5
s-7.5 36.166 -13.5 50.499s-14 27.5 -24 39.5l-253 -529c32 -22 68 -33 108 -33c53.333 0 98.333 18.333 135 55c12.667 12.667 22.667 26.334 30 41.001s12.833 31.834 16.5 51.501s6 43 7 70s1.5 59.167 1.5 96.5zM336.999 780h-58l97 147h67z" />
    <glyph glyph-name="oslashacute" unicode="&#x1ff;" horiz-adv-x="526" 
d="M457 241c0 -34.667 -3.66699 -69.334 -11 -104.001s-23.666 -64.667 -48.999 -90c-35.333 -35.333 -80 -53 -134 -53c-38.667 0 -73.667 9.66699 -105 29l-40 -67h-48l56 94c-24 25.333 -39.5 55 -46.5 89s-10.5 68 -10.5 102c0 34.667 3.66699 69.334 11 104.001
s23.666 64.667 48.999 90c35.333 35.333 80 53 134 53c40 0 75 -10 105 -30l40 68h48l-56 -94c24 -25.333 39.5 -55 46.5 -89s10.5 -68 10.5 -102zM344 418c-23.333 16.667 -50.334 24.999 -81.001 24.999c-39.333 0 -72.666 -13.667 -99.999 -41
c-10 -10 -17.833 -21.333 -23.5 -34s-10 -26.167 -13 -40.5s-4.83301 -28.833 -5.5 -43.5s-1 -29 -1 -43c0 -25.333 1.5 -51.166 4.5 -77.499s12.167 -49.833 27.5 -70.5zM405.999 240.999c0 25.333 -1.49902 51.167 -4.49902 77.5s-12.167 49.833 -27.5 70.5l-192 -325
c23.333 -16.667 50.333 -25 81 -25c39.333 0 72.666 13.667 99.999 41c10 10 17.833 21.333 23.5 34s10 26.167 13 40.5s4.83301 28.833 5.5 43.5s1 29 1 43zM274 590h-58l97 147h67z" />
    <glyph glyph-name="Scommaaccent" unicode="&#x218;" horiz-adv-x="587" 
d="M528 191c0 -30 -5.50098 -57.1621 -16.501 -81.4951s-26.833 -45 -47.5 -62s-45.834 -30.167 -75.501 -39.5s-63.167 -14 -100.5 -14c-52.667 0 -97.167 7.5 -133.5 22.5s-70.833 38.833 -103.5 71.5l38 38c16 -16 31.5 -29.333 46.5 -40s30.5 -19.334 46.5 -26.001
s32.833 -11.334 50.5 -14.001s37.167 -4 58.5 -4c56.667 0 101.334 12.833 134.001 38.5s49 61.834 49 108.501c0 44.667 -13 78 -39 100c-6 5.33301 -12.167 10 -18.5 14s-13.333 7.33301 -21 10s-16.667 5.16699 -27 7.5s-22.5 4.5 -36.5 6.5l-83 13
c-54.667 8 -97 25 -127 51c-37.333 31.333 -56 75.333 -56 132c0 30 5.16699 57 15.5 81s25 44.5 44 61.5s42.167 30 69.5 39s58 13.5 92 13.5c44 0 81.5 -6.16699 112.5 -18.5s61.833 -31.833 92.5 -58.5l-35 -35c-10.667 10 -21.667 19 -33 27s-23.833 15 -37.5 21
s-29 10.5 -46 13.5s-35.833 4.5 -56.5 4.5c-52 0 -92.5 -13 -121.5 -39s-43.5 -62 -43.5 -108c0 -42.667 12 -74 36 -94c12.667 -10.667 27.834 -19.334 45.501 -26.001s36.5 -11.667 56.5 -15l83 -13c16.667 -2.66699 31 -5.33398 43 -8.00098
s22.833 -5.83398 32.5 -9.50098s18.667 -8.16699 27 -13.5s16.5 -11.333 24.5 -18c19.333 -16.667 34.333 -36.334 45 -59.001s16 -48.667 16 -78zM255.999 -219.995h-63l72 150h55z" />
    <glyph glyph-name="scommaaccent" unicode="&#x219;" horiz-adv-x="494" 
d="M438 137c0 -44 -17.1641 -78.834 -51.4971 -104.501s-81.5 -38.5 -141.5 -38.5c-42 0 -78.833 5.66699 -110.5 17s-59.834 28.666 -84.501 51.999l35 35c37.333 -39.333 90 -59 158 -59c96.667 0 145 32.667 145 98c0 25.333 -7.33301 44.333 -22 57s-38 20.667 -70 24
l-80 7c-96.667 8 -145 50 -145 126c0 42 15.667 75.333 47 100s73.333 37 126 37c34 0 65.333 -4.5 94 -13.5s53.667 -21.5 75 -37.5l-34 -34c-37.333 27.333 -82.333 41 -135 41c-40 0 -70.5 -8 -91.5 -24s-31.5 -39 -31.5 -69c0 -25.333 7.83301 -44.333 23.5 -57
s40.5 -20.667 74.5 -24l78 -7c20 -2 38.667 -5.33301 56 -10s32.166 -11.667 44.499 -21s22.166 -21.666 29.499 -36.999s11 -34.666 11 -57.999zM213.003 -220.001h-63l72 150h55z" />
    <glyph glyph-name="uni021A" unicode="&#x21a;" horiz-adv-x="539" 
d="M296 664v-664h-54v664h-212v48h479v-48h-213zM233 -220h-63l72 150h55z" />
    <glyph glyph-name="uni021B" unicode="&#x21b;" horiz-adv-x="325" 
d="M225 0c-38 0 -66.833 11.832 -86.5 35.499s-29.5 53.834 -29.5 90.501v318h-66v38h66v154h51v-154h109v-38h-109v-319c0 -25.333 6 -45 18 -59s30.667 -21 56 -21h35v-45h-44zM157 -220.001h-63l72 150h55z" />
    <glyph glyph-name="uni0237" unicode="&#x237;" horiz-adv-x="245" 
d="M148 -105c0 -38 -9.33301 -68.333 -28 -91s-48 -34 -88 -34h-44v45h35c28.667 0 48.167 6.5 58.5 19.5s15.5 33.5 15.5 61.5v586h51v-587z" />
    <glyph glyph-name="uni0259" unicode="&#x259;" horiz-adv-x="523" 
d="M403 252c0 62 -13.165 109.168 -39.498 141.501s-65.5 48.5 -117.5 48.5c-28.667 0 -52.834 -4.5 -72.501 -13.5s-39.834 -23.833 -60.501 -44.5l-38 30c12 12 24.167 22.667 36.5 32s25.333 17.166 39 23.499s28.5 11 44.5 14s34 4.5 54 4.5
c66.667 0 117.5 -21 152.5 -63s52.5 -103.333 52.5 -184c0 -78.667 -17 -139.5 -51 -182.5s-81.333 -64.5 -142 -64.5s-108 20.5 -142 61.5s-51 98.833 -51 173.5v23h335zM119.002 211.001c0.666992 -11.333 1.33203 -21.166 1.99902 -29.499s1.5 -15.833 2.5 -22.5
s2.5 -13 4.5 -19s4.66699 -12.667 8 -20c10.667 -25.333 27.167 -45.166 49.5 -59.499s47.5 -21.5 75.5 -21.5s53 7.16699 75 21.5s38.667 34.166 50 59.499c3.33301 7.33301 6 14 8 20s3.5 12.333 4.5 19s1.83301 14.167 2.5 22.5s1.33398 18.166 2.00098 29.499h-284z" />
    <glyph glyph-name="uni02BB" unicode="&#x2bb;" horiz-adv-x="260" 
d="M95 642v70l70 70v-140h-70z" />
    <glyph glyph-name="afii57929" unicode="&#x2bc;" horiz-adv-x="260" 
d="M95 572v140h70v-70z" />
    <glyph glyph-name="circumflex" unicode="&#x2c6;" horiz-adv-x="500" 
d="M344 590l-93 109l-93 -109h-57l123 147h54l123 -147h-57z" />
    <glyph glyph-name="caron" unicode="&#x2c7;" horiz-adv-x="500" 
d="M277 590h-54l-123 147h57l93 -109l93 109h57z" />
    <glyph glyph-name="breve" unicode="&#x2d8;" horiz-adv-x="500" 
d="M415 722c-4.66699 -42.667 -19.834 -75.834 -45.501 -99.501s-65.5 -35.5 -119.5 -35.5s-93.833 11.833 -119.5 35.5s-40.834 56.834 -45.501 99.501h45c4 -28 16.333 -50 37 -66s48.334 -24 83.001 -24s62.334 8 83.001 24s33 38 37 66h45v0z" />
    <glyph glyph-name="dotaccent" unicode="&#x2d9;" horiz-adv-x="500" 
d="M219 610v63h62v-63h-62z" />
    <glyph glyph-name="ring" unicode="&#x2da;" horiz-adv-x="500" 
d="M364 677c0 -16 -3 -30.833 -9 -44.5s-14.167 -25.834 -24.5 -36.501s-22.333 -19 -36 -25s-28.5 -9 -44.5 -9s-30.833 3 -44.5 9s-25.667 14.333 -36 25s-18.5 22.834 -24.5 36.501s-9 28.5 -9 44.5s3 30.833 9 44.5s14.167 25.667 24.5 36s22.333 18.5 36 24.5
s28.5 9 44.5 9s30.833 -3 44.5 -9s25.667 -14.167 36 -24.5s18.5 -22.333 24.5 -36s9 -28.5 9 -44.5zM323 677c0 20 -7.16699 37 -21.5 51s-31.5 21 -51.5 21s-37.167 -7 -51.5 -21s-21.5 -31 -21.5 -51s7.16699 -37.167 21.5 -51.5s31.5 -21.5 51.5 -21.5
s37.167 7.16699 51.5 21.5s21.5 31.5 21.5 51.5z" />
    <glyph glyph-name="ogonek" unicode="&#x2db;" horiz-adv-x="500" 
d="M291 -220h-63l72 150h55z" />
    <glyph glyph-name="tilde" unicode="&#x2dc;" horiz-adv-x="500" 
d="M399 653c-11.333 -11.333 -21.501 -20.3311 -30.501 -26.998s-17.167 -11.5 -24.5 -14.5s-13.666 -4.83301 -18.999 -5.5s-10.333 -1 -15 -1c-11.333 0 -21.833 1.66699 -31.5 5s-22.167 9.66602 -37.5 18.999c-9.33301 5.33301 -18.5 10.166 -27.5 14.499
s-18.5 6.5 -28.5 6.5c-8 0 -16 -1.66699 -24 -5s-19.667 -12.666 -35 -27.999l-30 29c11.333 11.333 21.5 20.333 30.5 27s17 11.5 24 14.5s13.333 4.83301 19 5.5s10.834 1 15.501 1c14.667 0 26.834 -2.16699 36.501 -6.5s20.5 -10.166 32.5 -17.499
c10.667 -6.66699 20.167 -11.834 28.5 -15.501s17.5 -5.5 27.5 -5.5c7.33301 0 15.166 1.66699 23.499 5s20.166 12.666 35.499 27.999l30 -29v0z" />
    <glyph glyph-name="hungarumlaut" unicode="&#x2dd;" horiz-adv-x="500" 
d="M188 590h-58l97 147h67zM334 590h-57l97 147h67z" />
    <glyph glyph-name="uni037E" unicode="&#x37e;" horiz-adv-x="292" 
d="M125 -136v204h68v-136zM123 312v74h74v-74h-74z" />
    <glyph glyph-name="tonos" unicode="&#x384;" horiz-adv-x="253" 
d="M101 582v130h58v-97z" />
    <glyph glyph-name="dieresistonos" unicode="&#x385;" horiz-adv-x="500" 
d="M325 600v77h58v-77h-58zM221 582v130h58v-97zM117 600v77h58v-77h-58z" />
    <glyph glyph-name="Alphatonos" unicode="&#x386;" horiz-adv-x="602" 
d="M529 0l-62 173h-332l-62 -173h-58l262 712h48l262 -712h-58zM152 221h298l-149 419zM11 582v130h58v-97z" />
    <glyph glyph-name="anoteleia" unicode="&#x387;" horiz-adv-x="264" 
d="M95 227v74h74v-74h-74z" />
    <glyph glyph-name="Epsilontonos" unicode="&#x388;" horiz-adv-x="598" 
d="M110 0v712h432v-48h-378v-281h322v-48h-322v-287h378v-48h-432zM-49 582v130h58v-97z" />
    <glyph glyph-name="Etatonos" unicode="&#x389;" horiz-adv-x="699" 
d="M535 0v335h-371v-335h-54v712h54v-329h371v329h54v-712h-54zM-49 582v130h58v-97z" />
    <glyph glyph-name="Iotatonos" unicode="&#x38a;" horiz-adv-x="274" 
d="M110 0v712h54v-712h-54zM-49 582v130h58v-97z" />
    <glyph glyph-name="Omicrontonos" unicode="&#x38c;" horiz-adv-x="652" 
d="M570 356c0 -43.333 -0.666992 -79.833 -2 -109.5s-4.33301 -55.5 -9 -77.5s-11.667 -41.167 -21 -57.5s-22.333 -32.833 -39 -49.5c-21.333 -21.333 -46.5 -38 -75.5 -50s-61.5 -18 -97.5 -18s-68.5 6 -97.5 18s-54.167 28.667 -75.5 50
c-16.667 16.667 -29.667 33.167 -39 49.5s-16.333 35.5 -21 57.5s-7.66699 47.833 -9 77.5s-2 66.167 -2 109.5s0.666992 79.833 2 109.5s4.33301 55.5 9 77.5s11.667 41.167 21 57.5s22.333 32.833 39 49.5c21.333 21.333 46.5 38 75.5 50s61.5 18 97.5 18
s68.5 -6 97.5 -18s54.167 -28.667 75.5 -50c16.667 -16.667 29.667 -33.167 39 -49.5s16.333 -35.5 21 -57.5s7.66699 -47.833 9 -77.5s2 -66.167 2 -109.5zM516 356c0 37.333 -0.5 69.5 -1.5 96.5s-3.33301 50.333 -7 70s-9.16699 36.834 -16.5 51.501
s-17.333 28.334 -30 41.001c-36.667 36.667 -81.667 55 -135 55s-98.333 -18.333 -135 -55c-12.667 -12.667 -22.667 -26.334 -30 -41.001s-12.833 -31.834 -16.5 -51.501s-6 -43 -7 -70s-1.5 -59.167 -1.5 -96.5s0.5 -69.5 1.5 -96.5s3.33301 -50.333 7 -70
s9.16699 -36.834 16.5 -51.501s17.333 -28.334 30 -41.001c36.667 -36.667 81.667 -55 135 -55s98.333 18.333 135 55c12.667 12.667 22.667 26.334 30 41.001s12.833 31.834 16.5 51.501s6 43 7 70s1.5 59.167 1.5 96.5zM-29 582v130h58v-97z" />
    <glyph glyph-name="Upsilontonos" unicode="&#x38e;" horiz-adv-x="494" 
d="M274 295v-295h-54v295l-210 417h58l181 -360l177 360h58zM-69 582v130h58v-97z" />
    <glyph glyph-name="Omegatonos" unicode="&#x38f;" horiz-adv-x="652" 
d="M570 356c0 -57.333 -1.33887 -105 -4.00586 -143s-11 -69.667 -25 -95c-7.33301 -13.333 -15.666 -25.5 -24.999 -36.5s-21.666 -22.5 -36.999 -34.5h91v-47h-186v47c23.333 11.333 43.333 23.5 60 36.5s31.667 30.167 45 51.5c12.667 20.667 20.334 49.167 23.001 85.5
s4 81.5 4 135.5c0 37.333 -0.5 69.5 -1.5 96.5s-3.33301 50.333 -7 70s-9.16699 36.834 -16.5 51.501s-17.333 28.334 -30 41.001c-36.667 36.667 -81.667 55 -135 55s-98.333 -18.333 -135 -55c-12.667 -12.667 -22.667 -26.334 -30 -41.001s-12.833 -31.834 -16.5 -51.501
s-6 -43 -7 -70s-1.5 -59.167 -1.5 -96.5c0 -54 1.33301 -99.167 4 -135.5s10.334 -64.833 23.001 -85.5c13.333 -21.333 28.333 -38.5 45 -51.5s36.667 -25.167 60 -36.5v-47h-186v47h91c-15.333 12 -27.666 23.5 -36.999 34.5s-17.666 23.167 -24.999 36.5
c-14 25.333 -22.333 57 -25 95s-4 85.667 -4 143c0 43.333 0.666992 79.833 2 109.5s4.33301 55.5 9 77.5s11.667 41.167 21 57.5s22.333 32.833 39 49.5c21.333 21.333 46.5 38 75.5 50s61.5 18 97.5 18s68.5 -6 97.5 -18s54.167 -28.667 75.5 -50
c16.667 -16.667 29.667 -33.167 39 -49.5s16.333 -35.5 21 -57.5s7.66699 -47.833 9 -77.5s2 -66.167 2 -109.5zM-29.0059 582v130h58v-97z" />
    <glyph glyph-name="iotadieresistonos" unicode="&#x390;" horiz-adv-x="287" 
d="M211 0c-40 0 -69.333 11.333 -88 34s-28 53 -28 91v357h51v-356c0 -28 5.16699 -48.5 15.5 -61.5s29.833 -19.5 58.5 -19.5h35v-45h-44zM196 600v77h58v-77h-58zM92 582v130h58v-97zM-12 600v77h58v-77h-58z" />
    <glyph glyph-name="Alpha" unicode="&#x391;" horiz-adv-x="602" 
d="M529 0l-62 173h-332l-62 -173h-58l262 712h48l262 -712h-58zM152 221h298l-149 419z" />
    <glyph glyph-name="Beta" unicode="&#x392;" horiz-adv-x="671" 
d="M589 194c0 -32 -4.99609 -60.001 -14.9961 -84.001s-24.167 -44.167 -42.5 -60.5s-40.333 -28.666 -66 -36.999s-54.167 -12.5 -85.5 -12.5h-270v712h262c29.333 0 56.666 -4.16699 81.999 -12.5s47.166 -20.5 65.499 -36.5s32.666 -35.5 42.999 -58.5
s15.5 -49.167 15.5 -78.5c0 -38 -9.83301 -71.333 -29.5 -100s-46.834 -48.667 -81.501 -60c38.667 -13.333 68.667 -34.833 90 -64.5s32 -65.5 32 -107.5zM535.004 193.999c0 46 -14.667 81.833 -44 107.5s-68.333 38.5 -117 38.5h-210v-292h210
c48.667 0 87.667 12.833 117 38.5s44 61.5 44 107.5zM524.004 525.999c0 24.667 -4.16699 45.667 -12.5 63s-19.666 31.5 -33.999 42.5s-31.166 19.167 -50.499 24.5s-39.666 8 -60.999 8h-202v-276h202c21.333 0 41.666 2.66699 60.999 8s36.166 13.5 50.499 24.5
s25.666 25.167 33.999 42.5s12.5 38.333 12.5 63z" />
    <glyph glyph-name="Gamma" unicode="&#x393;" horiz-adv-x="554" 
d="M172 664v-664h-54v712h412v-48h-358z" />
    <glyph glyph-name="uni0394" unicode="&#x394;" horiz-adv-x="591" 
d="M10 0l262 712h47l262 -712h-571zM295 640l-215 -592h431z" />
    <glyph glyph-name="Epsilon" unicode="&#x395;" horiz-adv-x="598" 
d="M110 0v712h432v-48h-378v-281h322v-48h-322v-287h378v-48h-432z" />
    <glyph glyph-name="Zeta" unicode="&#x396;" 
d="M63 0v57l375 607h-360v48h418v-48l-378 -616h378v-48h-433z" />
    <glyph glyph-name="Eta" unicode="&#x397;" horiz-adv-x="699" 
d="M535 0v335h-371v-335h-54v712h54v-329h371v329h54v-712h-54z" />
    <glyph glyph-name="Theta" unicode="&#x398;" horiz-adv-x="652" 
d="M570 356c0 -43.333 -0.666992 -79.833 -2 -109.5s-4.33301 -55.5 -9 -77.5s-11.667 -41.167 -21 -57.5s-22.333 -32.833 -39 -49.5c-21.333 -21.333 -46.5 -38 -75.5 -50s-61.5 -18 -97.5 -18s-68.5 6 -97.5 18s-54.167 28.667 -75.5 50
c-16.667 16.667 -29.667 33.167 -39 49.5s-16.333 35.5 -21 57.5s-7.66699 47.833 -9 77.5s-2 66.167 -2 109.5s0.666992 79.833 2 109.5s4.33301 55.5 9 77.5s11.667 41.167 21 57.5s22.333 32.833 39 49.5c21.333 21.333 46.5 38 75.5 50s61.5 18 97.5 18
s68.5 -6 97.5 -18s54.167 -28.667 75.5 -50c16.667 -16.667 29.667 -33.167 39 -49.5s16.333 -35.5 21 -57.5s7.66699 -47.833 9 -77.5s2 -66.167 2 -109.5zM136 335c0 -33.333 0.5 -62.333 1.5 -87s3.5 -46.167 7.5 -64.5s9.66699 -34.333 17 -48s17 -26.5 29 -38.5
c36.667 -36.667 81.667 -55 135 -55s98.333 18.333 135 55c12 12 21.5 24.833 28.5 38.5s12.5 29.667 16.5 48s6.66699 39.833 8 64.5s2 53.667 2 87h-380zM516 383c0 32.667 -0.666992 60.834 -2 84.501s-4 44.5 -8 62.5s-9.5 33.667 -16.5 47s-16.5 26 -28.5 38
c-36.667 36.667 -81.667 55 -135 55s-98.333 -18.333 -135 -55c-12 -12 -21.667 -24.667 -29 -38s-12.833 -29 -16.5 -47s-6.16699 -38.833 -7.5 -62.5s-2 -51.834 -2 -84.501h380z" />
    <glyph glyph-name="Iota" unicode="&#x399;" horiz-adv-x="274" 
d="M110 0v712h54v-712h-54z" />
    <glyph glyph-name="Kappa" unicode="&#x39a;" horiz-adv-x="645" 
d="M563 0l-229 399l-170 -206v-193h-54v712h54v-445l361 445h65l-220 -272l257 -440h-64z" />
    <glyph glyph-name="Lambda" unicode="&#x39b;" horiz-adv-x="570" 
d="M488 0l-203 640l-203 -640h-57l234 712h52l234 -712h-57z" />
    <glyph glyph-name="Mu" unicode="&#x39c;" horiz-adv-x="818" 
d="M654 0v587l-216 -487h-54l-220 487v-587h-54v712h54l248 -549l242 549h54v-712h-54z" />
    <glyph glyph-name="Nu" unicode="&#x39d;" horiz-adv-x="739" 
d="M575 0l-411 619v-619h-54v712h54l411 -617v617h54v-712h-54z" />
    <glyph glyph-name="Xi" unicode="&#x39e;" horiz-adv-x="564" 
d="M56 0v48h199v287h-143v48h143v281h-199v48h452v-48h-199v-281h143v-48h-143v-287h199v-48h-452z" />
    <glyph glyph-name="Omicron" unicode="&#x39f;" horiz-adv-x="652" 
d="M570 356c0 -43.333 -0.666992 -79.833 -2 -109.5s-4.33301 -55.5 -9 -77.5s-11.667 -41.167 -21 -57.5s-22.333 -32.833 -39 -49.5c-21.333 -21.333 -46.5 -38 -75.5 -50s-61.5 -18 -97.5 -18s-68.5 6 -97.5 18s-54.167 28.667 -75.5 50
c-16.667 16.667 -29.667 33.167 -39 49.5s-16.333 35.5 -21 57.5s-7.66699 47.833 -9 77.5s-2 66.167 -2 109.5s0.666992 79.833 2 109.5s4.33301 55.5 9 77.5s11.667 41.167 21 57.5s22.333 32.833 39 49.5c21.333 21.333 46.5 38 75.5 50s61.5 18 97.5 18
s68.5 -6 97.5 -18s54.167 -28.667 75.5 -50c16.667 -16.667 29.667 -33.167 39 -49.5s16.333 -35.5 21 -57.5s7.66699 -47.833 9 -77.5s2 -66.167 2 -109.5zM516 356c0 37.333 -0.5 69.5 -1.5 96.5s-3.33301 50.333 -7 70s-9.16699 36.834 -16.5 51.501
s-17.333 28.334 -30 41.001c-36.667 36.667 -81.667 55 -135 55s-98.333 -18.333 -135 -55c-12.667 -12.667 -22.667 -26.334 -30 -41.001s-12.833 -31.834 -16.5 -51.501s-6 -43 -7 -70s-1.5 -59.167 -1.5 -96.5s0.5 -69.5 1.5 -96.5s3.33301 -50.333 7 -70
s9.16699 -36.834 16.5 -51.501s17.333 -28.334 30 -41.001c36.667 -36.667 81.667 -55 135 -55s98.333 18.333 135 55c12.667 12.667 22.667 26.334 30 41.001s12.833 31.834 16.5 51.501s6 43 7 70s1.5 59.167 1.5 96.5z" />
    <glyph glyph-name="Pi" unicode="&#x3a0;" horiz-adv-x="680" 
d="M515 0v664h-351v-664h-54v712h459v-712h-54z" />
    <glyph glyph-name="Rho" unicode="&#x3a1;" horiz-adv-x="631" 
d="M586 507c0 -32.667 -5.5 -61.6689 -16.5 -87.002s-26 -46.833 -45 -64.5s-41.667 -31 -68 -40s-54.833 -13.5 -85.5 -13.5h-207v-302h-54v712h261c30.667 0 59.167 -4.66699 85.5 -14s49 -22.666 68 -39.999s34 -38.666 45 -63.999s16.5 -54.333 16.5 -87zM532 506.998
c0 53.333 -15.5 92.833 -46.5 118.5s-71.167 38.5 -120.5 38.5h-201v-314h201c49.333 0 89.5 12.833 120.5 38.5s46.5 65.167 46.5 118.5z" />
    <glyph glyph-name="Sigma" unicode="&#x3a3;" horiz-adv-x="552" 
d="M63 0v57l199 324l-184 283v48h418v-48h-359l185 -282l-204 -334h378v-48h-433z" />
    <glyph glyph-name="Tau" unicode="&#x3a4;" horiz-adv-x="539" 
d="M296 664v-664h-54v664h-212v48h479v-48h-213z" />
    <glyph glyph-name="Upsilon" unicode="&#x3a5;" horiz-adv-x="494" 
d="M274 295v-295h-54v295l-210 417h58l181 -360l177 360h58z" />
    <glyph glyph-name="Phi" unicode="&#x3a6;" horiz-adv-x="715" 
d="M649 361c0 -19.333 -0.5 -39 -1.5 -59s-3.5 -39.5 -7.5 -58.5s-10.167 -37.167 -18.5 -54.5s-19.833 -33.333 -34.5 -48c-29.333 -29.333 -60.333 -49.5 -93 -60.5s-69 -16.5 -109 -16.5v-64h-54v64c-40 0 -76.333 5.5 -109 16.5s-63.667 31.167 -93 60.5
c-14.667 14.667 -26.167 30.667 -34.5 48s-14.5 35.5 -18.5 54.5s-6.5 38.5 -7.5 58.5s-1.5 39.667 -1.5 59s0.5 39 1.5 59s3.5 39.5 7.5 58.5s10.167 37.167 18.5 54.5s19.833 33.333 34.5 48c29.333 29.333 60.333 49.5 93 60.5s69 16.5 109 16.5v54h54v-54
c40 0 76.333 -5.5 109 -16.5s63.667 -31.167 93 -60.5c14.667 -14.667 26.167 -30.667 34.5 -48s14.5 -35.5 18.5 -54.5s6.5 -38.5 7.5 -58.5s1.5 -39.667 1.5 -59zM331 610c-32 0 -60.667 -4 -86 -12s-49.666 -23.667 -72.999 -47c-12 -12 -21.5 -25.667 -28.5 -41
s-12.167 -31.333 -15.5 -48s-5.33301 -33.667 -6 -51s-1 -34 -1 -50s0.333008 -32.667 1 -50s2.66699 -34.333 6 -51s8.5 -32.667 15.5 -48s16.5 -29 28.5 -41c23.333 -23.333 47.666 -39 72.999 -47s54 -12 86 -12v498zM595 361c0 16 -0.333008 32.667 -1 50
s-2.66699 34.333 -6 51s-8.5 32.667 -15.5 48s-16.5 29 -28.5 41c-23.333 23.333 -47.666 39 -72.999 47s-54 12 -86 12v-498c32 0 60.667 4 86 12s49.666 23.667 72.999 47c12 12 21.5 25.667 28.5 41s12.167 31.333 15.5 48s5.33301 33.667 6 51s1 34 1 50z" />
    </font>
</defs>
</svg>
